<svg version="1.1" viewBox="0.0 0.0 600.0 371.0" fill="none" stroke="none" stroke-linecap="square" stroke-miterlimit="10" xmlns:xlink="http://www.w3.org/1999/xlink" xmlns="http://www.w3.org/2000/svg"><path fill="#ffffff" d="M0 0L600.0 0L600.0 371.0L0 371.0L0 0Z" fill-rule="nonzero"/><path stroke="#333333" stroke-width="1.0" stroke-linecap="butt" d="M85.5 82.5L85.5 298.5" fill-rule="nonzero"/><path stroke="#cccccc" stroke-width="1.0" stroke-linecap="butt" d="M209.5 82.5L209.5 298.5" fill-rule="nonzero"/><path stroke="#cccccc" stroke-width="1.0" stroke-linecap="butt" d="M333.5 82.5L333.5 298.5" fill-rule="nonzero"/><path stroke="#cccccc" stroke-width="1.0" stroke-linecap="butt" d="M457.5 82.5L457.5 298.5" fill-rule="nonzero"/><path stroke="#cccccc" stroke-width="1.0" stroke-linecap="butt" d="M581.5 82.5L581.5 298.5" fill-rule="nonzero"/><clipPath id="id_0"><path d="M85.55 82.28333L581.45 82.28333L581.45 298.45L85.55 298.45L85.55 82.28333Z" clip-rule="nonzero"/></clipPath><path stroke="#000000" stroke-width="2.0" stroke-linecap="butt" stroke-opacity="0.0" clip-path="url(#id_0)" d="M86.0 93.0L86.0 90.0L100.5 90.0C101.32843 90.0 102.0 90.67157 102.0 91.5L102.0 91.5C102.0 92.32843 101.32843 93.0 100.5 93.0Z" fill-rule="nonzero"/><path fill="#4285f4" clip-path="url(#id_0)" d="M86.0 93.0L86.0 90.0L100.5 90.0C101.32843 90.0 102.0 90.67157 102.0 91.5L102.0 91.5C102.0 92.32843 101.32843 93.0 100.5 93.0Z" fill-rule="nonzero"/><path stroke="#000000" stroke-width="2.0" stroke-linecap="butt" stroke-opacity="0.0" clip-path="url(#id_0)" d="M86.0 114.0L86.0 111.0L101.5 111.0C102.32843 111.0 103.0 111.67157 103.0 112.5L103.0 112.5C103.0 113.32843 102.32843 114.0 101.5 114.0Z" fill-rule="nonzero"/><path fill="#4285f4" clip-path="url(#id_0)" d="M86.0 114.0L86.0 111.0L101.5 111.0C102.32843 111.0 103.0 111.67157 103.0 112.5L103.0 112.5C103.0 113.32843 102.32843 114.0 101.5 114.0Z" fill-rule="nonzero"/><path stroke="#000000" stroke-width="2.0" stroke-linecap="butt" stroke-opacity="0.0" clip-path="url(#id_0)" d="M86.0 135.0L86.0 132.0L114.5 132.0C115.32843 132.0 116.0 132.67157 116.0 133.5L116.0 133.5C116.0 134.32843 115.32843 135.0 114.5 135.0Z" fill-rule="nonzero"/><path fill="#4285f4" clip-path="url(#id_0)" d="M86.0 135.0L86.0 132.0L114.5 132.0C115.32843 132.0 116.0 132.67157 116.0 133.5L116.0 133.5C116.0 134.32843 115.32843 135.0 114.5 135.0Z" fill-rule="nonzero"/><path stroke="#000000" stroke-width="2.0" stroke-linecap="butt" stroke-opacity="0.0" clip-path="url(#id_0)" d="M86.0 156.0L86.0 153.0L127.5 153.0C128.32843 153.0 129.0 153.67157 129.0 154.5L129.0 154.5C129.0 155.32843 128.32843 156.0 127.5 156.0Z" fill-rule="nonzero"/><path fill="#4285f4" clip-path="url(#id_0)" d="M86.0 156.0L86.0 153.0L127.5 153.0C128.32843 153.0 129.0 153.67157 129.0 154.5L129.0 154.5C129.0 155.32843 128.32843 156.0 127.5 156.0Z" fill-rule="nonzero"/><path stroke="#000000" stroke-width="2.0" stroke-linecap="butt" stroke-opacity="0.0" clip-path="url(#id_0)" d="M86.0 177.0L86.0 174.0L127.5 174.0C128.32843 174.0 129.0 174.67157 129.0 175.5L129.0 175.5C129.0 176.32843 128.32843 177.0 127.5 177.0Z" fill-rule="nonzero"/><path fill="#4285f4" clip-path="url(#id_0)" d="M86.0 177.0L86.0 174.0L127.5 174.0C128.32843 174.0 129.0 174.67157 129.0 175.5L129.0 175.5C129.0 176.32843 128.32843 177.0 127.5 177.0Z" fill-rule="nonzero"/><path stroke="#000000" stroke-width="2.0" stroke-linecap="butt" stroke-opacity="0.0" clip-path="url(#id_0)" d="M86.0 198.0L86.0 195.0L141.5 195.0C142.32843 195.0 143.0 195.67157 143.0 196.5L143.0 196.5C143.0 197.32843 142.32843 198.0 141.5 198.0Z" fill-rule="nonzero"/><path fill="#4285f4" clip-path="url(#id_0)" d="M86.0 198.0L86.0 195.0L141.5 195.0C142.32843 195.0 143.0 195.67157 143.0 196.5L143.0 196.5C143.0 197.32843 142.32843 198.0 141.5 198.0Z" fill-rule="nonzero"/><path stroke="#000000" stroke-width="2.0" stroke-linecap="butt" stroke-opacity="0.0" clip-path="url(#id_0)" d="M86.0 219.0L86.0 216.0L154.5 216.0C155.32843 216.0 156.0 216.67157 156.0 217.5L156.0 217.5C156.0 218.32843 155.32843 219.0 154.5 219.0Z" fill-rule="nonzero"/><path fill="#4285f4" clip-path="url(#id_0)" d="M86.0 219.0L86.0 216.0L154.5 216.0C155.32843 216.0 156.0 216.67157 156.0 217.5L156.0 217.5C156.0 218.32843 155.32843 219.0 154.5 219.0Z" fill-rule="nonzero"/><path stroke="#000000" stroke-width="2.0" stroke-linecap="butt" stroke-opacity="0.0" clip-path="url(#id_0)" d="M86.0 240.0L86.0 237.0L207.5 237.0C208.32843 237.0 209.0 237.67157 209.0 238.5L209.0 238.5C209.0 239.32843 208.32843 240.0 207.5 240.0Z" fill-rule="nonzero"/><path fill="#4285f4" clip-path="url(#id_0)" d="M86.0 240.0L86.0 237.0L207.5 237.0C208.32843 237.0 209.0 237.67157 209.0 238.5L209.0 238.5C209.0 239.32843 208.32843 240.0 207.5 240.0Z" fill-rule="nonzero"/><path stroke="#000000" stroke-width="2.0" stroke-linecap="butt" stroke-opacity="0.0" clip-path="url(#id_0)" d="M86.0 260.0L86.0 257.0L314.5 257.0C315.32843 257.0 316.0 257.67157 316.0 258.5L316.0 258.5C316.0 259.32843 315.32843 260.0 314.5 260.0Z" fill-rule="nonzero"/><path fill="#4285f4" clip-path="url(#id_0)" d="M86.0 260.0L86.0 257.0L314.5 257.0C315.32843 257.0 316.0 257.67157 316.0 258.5L316.0 258.5C316.0 259.32843 315.32843 260.0 314.5 260.0Z" fill-rule="nonzero"/><path stroke="#000000" stroke-width="2.0" stroke-linecap="butt" stroke-opacity="0.0" clip-path="url(#id_0)" d="M86.0 281.0L86.0 278.0L528.5 278.0C529.3284 278.0 530.0 278.67157 530.0 279.5L530.0 279.5C530.0 280.32843 529.3284 281.0 528.5 281.0Z" fill-rule="nonzero"/><path fill="#4285f4" clip-path="url(#id_0)" d="M86.0 281.0L86.0 278.0L528.5 278.0C529.3284 278.0 530.0 278.67157 530.0 279.5L530.0 279.5C530.0 280.32843 529.3284 281.0 528.5 281.0Z" fill-rule="nonzero"/><path stroke="#000000" stroke-width="2.0" stroke-linecap="butt" stroke-opacity="0.0" clip-path="url(#id_0)" d="M86.0 98.0L86.0 95.0L103.5 95.0C104.32843 95.0 105.0 95.67157 105.0 96.5L105.0 96.5C105.0 97.32843 104.32843 98.0 103.5 98.0Z" fill-rule="nonzero"/><path fill="#db4437" clip-path="url(#id_0)" d="M86.0 98.0L86.0 95.0L103.5 95.0C104.32843 95.0 105.0 95.67157 105.0 96.5L105.0 96.5C105.0 97.32843 104.32843 98.0 103.5 98.0Z" fill-rule="nonzero"/><path stroke="#000000" stroke-width="2.0" stroke-linecap="butt" stroke-opacity="0.0" clip-path="url(#id_0)" d="M86.0 119.0L86.0 116.0L103.5 116.0C104.32843 116.0 105.0 116.67157 105.0 117.5L105.0 117.5C105.0 118.32843 104.32843 119.0 103.5 119.0Z" fill-rule="nonzero"/><path fill="#db4437" clip-path="url(#id_0)" d="M86.0 119.0L86.0 116.0L103.5 116.0C104.32843 116.0 105.0 116.67157 105.0 117.5L105.0 117.5C105.0 118.32843 104.32843 119.0 103.5 119.0Z" fill-rule="nonzero"/><path stroke="#000000" stroke-width="2.0" stroke-linecap="butt" stroke-opacity="0.0" clip-path="url(#id_0)" d="M86.0 140.0L86.0 137.0L103.5 137.0C104.32843 137.0 105.0 137.67157 105.0 138.5L105.0 138.5C105.0 139.32843 104.32843 140.0 103.5 140.0Z" fill-rule="nonzero"/><path fill="#db4437" clip-path="url(#id_0)" d="M86.0 140.0L86.0 137.0L103.5 137.0C104.32843 137.0 105.0 137.67157 105.0 138.5L105.0 138.5C105.0 139.32843 104.32843 140.0 103.5 140.0Z" fill-rule="nonzero"/><path stroke="#000000" stroke-width="2.0" stroke-linecap="butt" stroke-opacity="0.0" clip-path="url(#id_0)" d="M86.0 161.0L86.0 158.0L103.5 158.0C104.32843 158.0 105.0 158.67157 105.0 159.5L105.0 159.5C105.0 160.32843 104.32843 161.0 103.5 161.0Z" fill-rule="nonzero"/><path fill="#db4437" clip-path="url(#id_0)" d="M86.0 161.0L86.0 158.0L103.5 158.0C104.32843 158.0 105.0 158.67157 105.0 159.5L105.0 159.5C105.0 160.32843 104.32843 161.0 103.5 161.0Z" fill-rule="nonzero"/><path stroke="#000000" stroke-width="2.0" stroke-linecap="butt" stroke-opacity="0.0" clip-path="url(#id_0)" d="M86.0 182.0L86.0 179.0L103.5 179.0C104.32843 179.0 105.0 179.67157 105.0 180.5L105.0 180.5C105.0 181.32843 104.32843 182.0 103.5 182.0Z" fill-rule="nonzero"/><path fill="#db4437" clip-path="url(#id_0)" d="M86.0 182.0L86.0 179.0L103.5 179.0C104.32843 179.0 105.0 179.67157 105.0 180.5L105.0 180.5C105.0 181.32843 104.32843 182.0 103.5 182.0Z" fill-rule="nonzero"/><path stroke="#000000" stroke-width="2.0" stroke-linecap="butt" stroke-opacity="0.0" clip-path="url(#id_0)" d="M86.0 203.0L86.0 200.0L103.5 200.0C104.32843 200.0 105.0 200.67157 105.0 201.5L105.0 201.5C105.0 202.32843 104.32843 203.0 103.5 203.0Z" fill-rule="nonzero"/><path fill="#db4437" clip-path="url(#id_0)" d="M86.0 203.0L86.0 200.0L103.5 200.0C104.32843 200.0 105.0 200.67157 105.0 201.5L105.0 201.5C105.0 202.32843 104.32843 203.0 103.5 203.0Z" fill-rule="nonzero"/><path stroke="#000000" stroke-width="2.0" stroke-linecap="butt" stroke-opacity="0.0" clip-path="url(#id_0)" d="M86.0 224.0L86.0 221.0L103.5 221.0C104.32843 221.0 105.0 221.67157 105.0 222.5L105.0 222.5C105.0 223.32843 104.32843 224.0 103.5 224.0Z" fill-rule="nonzero"/><path fill="#db4437" clip-path="url(#id_0)" d="M86.0 224.0L86.0 221.0L103.5 221.0C104.32843 221.0 105.0 221.67157 105.0 222.5L105.0 222.5C105.0 223.32843 104.32843 224.0 103.5 224.0Z" fill-rule="nonzero"/><path stroke="#000000" stroke-width="2.0" stroke-linecap="butt" stroke-opacity="0.0" clip-path="url(#id_0)" d="M86.0 245.0L86.0 242.0L103.5 242.0C104.32843 242.0 105.0 242.67157 105.0 243.5L105.0 243.5C105.0 244.32843 104.32843 245.0 103.5 245.0Z" fill-rule="nonzero"/><path fill="#db4437" clip-path="url(#id_0)" d="M86.0 245.0L86.0 242.0L103.5 242.0C104.32843 242.0 105.0 242.67157 105.0 243.5L105.0 243.5C105.0 244.32843 104.32843 245.0 103.5 245.0Z" fill-rule="nonzero"/><path stroke="#000000" stroke-width="2.0" stroke-linecap="butt" stroke-opacity="0.0" clip-path="url(#id_0)" d="M86.0 265.0L86.0 262.0L103.5 262.0C104.32843 262.0 105.0 262.67157 105.0 263.5L105.0 263.5C105.0 264.32843 104.32843 265.0 103.5 265.0Z" fill-rule="nonzero"/><path fill="#db4437" clip-path="url(#id_0)" d="M86.0 265.0L86.0 262.0L103.5 262.0C104.32843 262.0 105.0 262.67157 105.0 263.5L105.0 263.5C105.0 264.32843 104.32843 265.0 103.5 265.0Z" fill-rule="nonzero"/><path stroke="#000000" stroke-width="2.0" stroke-linecap="butt" stroke-opacity="0.0" clip-path="url(#id_0)" d="M86.0 286.0L86.0 283.0L104.5 283.0C105.32843 283.0 106.0 283.67157 106.0 284.5L106.0 284.5C106.0 285.32843 105.32843 286.0 104.5 286.0Z" fill-rule="nonzero"/><path fill="#db4437" clip-path="url(#id_0)" d="M86.0 286.0L86.0 283.0L104.5 283.0C105.32843 283.0 106.0 283.67157 106.0 284.5L106.0 284.5C106.0 285.32843 105.32843 286.0 104.5 286.0Z" fill-rule="nonzero"/><path stroke="#000000" stroke-width="2.0" stroke-linecap="butt" stroke-opacity="0.0" clip-path="url(#id_0)" d="M86.0 103.0L86.0 100.0L116.5 100.0C117.32843 100.0 118.0 100.67157 118.0 101.5L118.0 101.5C118.0 102.32843 117.32843 103.0 116.5 103.0Z" fill-rule="nonzero"/><path fill="#f4b400" clip-path="url(#id_0)" d="M86.0 103.0L86.0 100.0L116.5 100.0C117.32843 100.0 118.0 100.67157 118.0 101.5L118.0 101.5C118.0 102.32843 117.32843 103.0 116.5 103.0Z" fill-rule="nonzero"/><path stroke="#000000" stroke-width="2.0" stroke-linecap="butt" stroke-opacity="0.0" clip-path="url(#id_0)" d="M86.0 124.0L86.0 121.0L116.5 121.0C117.32843 121.0 118.0 121.67157 118.0 122.5L118.0 122.5C118.0 123.32843 117.32843 124.0 116.5 124.0Z" fill-rule="nonzero"/><path fill="#f4b400" clip-path="url(#id_0)" d="M86.0 124.0L86.0 121.0L116.5 121.0C117.32843 121.0 118.0 121.67157 118.0 122.5L118.0 122.5C118.0 123.32843 117.32843 124.0 116.5 124.0Z" fill-rule="nonzero"/><path stroke="#000000" stroke-width="2.0" stroke-linecap="butt" stroke-opacity="0.0" clip-path="url(#id_0)" d="M86.0 145.0L86.0 142.0L116.5 142.0C117.32843 142.0 118.0 142.67157 118.0 143.5L118.0 143.5C118.0 144.32843 117.32843 145.0 116.5 145.0Z" fill-rule="nonzero"/><path fill="#f4b400" clip-path="url(#id_0)" d="M86.0 145.0L86.0 142.0L116.5 142.0C117.32843 142.0 118.0 142.67157 118.0 143.5L118.0 143.5C118.0 144.32843 117.32843 145.0 116.5 145.0Z" fill-rule="nonzero"/><path stroke="#000000" stroke-width="2.0" stroke-linecap="butt" stroke-opacity="0.0" clip-path="url(#id_0)" d="M86.0 166.0L86.0 163.0L116.5 163.0C117.32843 163.0 118.0 163.67157 118.0 164.5L118.0 164.5C118.0 165.32843 117.32843 166.0 116.5 166.0Z" fill-rule="nonzero"/><path fill="#f4b400" clip-path="url(#id_0)" d="M86.0 166.0L86.0 163.0L116.5 163.0C117.32843 163.0 118.0 163.67157 118.0 164.5L118.0 164.5C118.0 165.32843 117.32843 166.0 116.5 166.0Z" fill-rule="nonzero"/><path stroke="#000000" stroke-width="2.0" stroke-linecap="butt" stroke-opacity="0.0" clip-path="url(#id_0)" d="M86.0 187.0L86.0 184.0L116.5 184.0C117.32843 184.0 118.0 184.67157 118.0 185.5L118.0 185.5C118.0 186.32843 117.32843 187.0 116.5 187.0Z" fill-rule="nonzero"/><path fill="#f4b400" clip-path="url(#id_0)" d="M86.0 187.0L86.0 184.0L116.5 184.0C117.32843 184.0 118.0 184.67157 118.0 185.5L118.0 185.5C118.0 186.32843 117.32843 187.0 116.5 187.0Z" fill-rule="nonzero"/><path stroke="#000000" stroke-width="2.0" stroke-linecap="butt" stroke-opacity="0.0" clip-path="url(#id_0)" d="M86.0 208.0L86.0 205.0L116.5 205.0C117.32843 205.0 118.0 205.67157 118.0 206.5L118.0 206.5C118.0 207.32843 117.32843 208.0 116.5 208.0Z" fill-rule="nonzero"/><path fill="#f4b400" clip-path="url(#id_0)" d="M86.0 208.0L86.0 205.0L116.5 205.0C117.32843 205.0 118.0 205.67157 118.0 206.5L118.0 206.5C118.0 207.32843 117.32843 208.0 116.5 208.0Z" fill-rule="nonzero"/><path stroke="#000000" stroke-width="2.0" stroke-linecap="butt" stroke-opacity="0.0" clip-path="url(#id_0)" d="M86.0 229.0L86.0 226.0L116.5 226.0C117.32843 226.0 118.0 226.67157 118.0 227.5L118.0 227.5C118.0 228.32843 117.32843 229.0 116.5 229.0Z" fill-rule="nonzero"/><path fill="#f4b400" clip-path="url(#id_0)" d="M86.0 229.0L86.0 226.0L116.5 226.0C117.32843 226.0 118.0 226.67157 118.0 227.5L118.0 227.5C118.0 228.32843 117.32843 229.0 116.5 229.0Z" fill-rule="nonzero"/><path stroke="#000000" stroke-width="2.0" stroke-linecap="butt" stroke-opacity="0.0" clip-path="url(#id_0)" d="M86.0 250.0L86.0 247.0L116.5 247.0C117.32843 247.0 118.0 247.67157 118.0 248.5L118.0 248.5C118.0 249.32843 117.32843 250.0 116.5 250.0Z" fill-rule="nonzero"/><path fill="#f4b400" clip-path="url(#id_0)" d="M86.0 250.0L86.0 247.0L116.5 247.0C117.32843 247.0 118.0 247.67157 118.0 248.5L118.0 248.5C118.0 249.32843 117.32843 250.0 116.5 250.0Z" fill-rule="nonzero"/><path stroke="#000000" stroke-width="2.0" stroke-linecap="butt" stroke-opacity="0.0" clip-path="url(#id_0)" d="M86.0 270.0L86.0 267.0L117.5 267.0C118.32843 267.0 119.0 267.67157 119.0 268.5L119.0 268.5C119.0 269.32843 118.32843 270.0 117.5 270.0Z" fill-rule="nonzero"/><path fill="#f4b400" clip-path="url(#id_0)" d="M86.0 270.0L86.0 267.0L117.5 267.0C118.32843 267.0 119.0 267.67157 119.0 268.5L119.0 268.5C119.0 269.32843 118.32843 270.0 117.5 270.0Z" fill-rule="nonzero"/><path stroke="#000000" stroke-width="2.0" stroke-linecap="butt" stroke-opacity="0.0" clip-path="url(#id_0)" d="M86.0 291.0L86.0 288.0L117.5 288.0C118.32843 288.0 119.0 288.67157 119.0 289.5L119.0 289.5C119.0 290.32843 118.32843 291.0 117.5 291.0Z" fill-rule="nonzero"/><path fill="#f4b400" clip-path="url(#id_0)" d="M86.0 291.0L86.0 288.0L117.5 288.0C118.32843 288.0 119.0 288.67157 119.0 289.5L119.0 289.5C119.0 290.32843 118.32843 291.0 117.5 291.0Z" fill-rule="nonzero"/><path fill="#424242" d="M317.29688 348.325Q316.85938 348.95 316.07812 349.2625Q315.29688 349.575 314.26562 349.575Q313.23438 349.575 312.42188 349.09064Q311.60938 348.59064 311.17188 347.6844Q310.73438 346.77814 310.71875 345.59064L310.71875 344.85626Q310.71875 342.91876 311.60938 341.85626Q312.51562 340.79376 314.14062 340.79376Q315.48438 340.79376 316.29688 341.48126Q317.10938 342.16876 317.29688 343.41876L316.17188 343.41876Q315.84375 341.73126 314.15625 341.73126Q313.01562 341.73126 312.4375 342.52814Q311.85938 343.3094 311.84375 344.825L311.84375 345.5125Q311.84375 346.95 312.5 347.8094Q313.15625 348.65314 314.28125 348.65314Q314.90625 348.65314 315.375 348.5125Q315.85938 348.3719 316.17188 348.02814L316.17188 346.1219L314.20312 346.1219L314.20312 345.2L317.29688 345.2L317.29688 348.325ZM322.73438 349.45Q322.64062 349.2625 322.57812 348.77814Q321.82812 349.575 320.78125 349.575Q319.84375 349.575 319.23438 349.04376Q318.64062 348.5125 318.64062 347.6844Q318.64062 346.7 319.39062 346.15314Q320.14062 345.60626 321.51562 345.60626L322.5625 345.60626L322.5625 345.10626Q322.5625 344.54376 322.21875 344.21564Q321.89062 343.8719 321.21875 343.8719Q320.64062 343.8719 320.25 344.16876Q319.85938 344.45 319.85938 344.8719L318.76562 344.8719Q318.76562 344.3875 319.09375 343.95Q319.4375 343.5125 320.01562 343.2625Q320.59375 342.9969 321.28125 342.9969Q322.39062 342.9969 323.0 343.54376Q323.625 344.09064 323.65625 345.04376L323.65625 347.96564Q323.65625 348.84064 323.875 349.35626L323.875 349.45L322.73438 349.45ZM320.9375 348.6219Q321.45312 348.6219 321.90625 348.35626Q322.35938 348.09064 322.5625 347.66876L322.5625 346.3719L321.71875 346.3719Q319.71875 346.3719 319.71875 347.54376Q319.71875 348.04376 320.0625 348.34064Q320.40625 348.6219 320.9375 348.6219ZM329.51562 347.7625Q329.51562 347.325 329.17188 347.09064Q328.84375 346.84064 328.01562 346.66876Q327.20312 346.4969 326.71875 346.2469Q326.23438 345.9969 326.0 345.66876Q325.78125 345.325 325.78125 344.85626Q325.78125 344.075 326.4375 343.54376Q327.09375 342.9969 328.125 342.9969Q329.20312 342.9969 329.85938 343.5594Q330.53125 344.10626 330.53125 344.96564L329.45312 344.96564Q329.45312 344.52814 329.0625 344.21564Q328.6875 343.8875 328.125 343.8875Q327.53125 343.8875 327.1875 344.15314Q326.85938 344.40314 326.85938 344.8094Q326.85938 345.2 327.17188 345.40314Q327.48438 345.60626 328.29688 345.79376Q329.10938 345.96564 329.60938 346.21564Q330.10938 346.46564 330.34375 346.825Q330.59375 347.1844 330.59375 347.6844Q330.59375 348.54376 329.90625 349.0594Q329.23438 349.575 328.15625 349.575Q327.39062 349.575 326.79688 349.3094Q326.21875 349.02814 325.89062 348.54376Q325.5625 348.0594 325.5625 347.4969L326.64062 347.4969Q326.67188 348.04376 327.07812 348.3719Q327.48438 348.6844 328.15625 348.6844Q328.76562 348.6844 329.14062 348.4344Q329.51562 348.1844 329.51562 347.7625ZM337.35938 348.6844Q337.9375 348.6844 338.375 348.34064Q338.8125 347.98126 338.85938 347.45L339.89062 347.45Q339.85938 347.9969 339.5 348.4969Q339.15625 348.98126 338.57812 349.27814Q338.01562 349.575 337.35938 349.575Q336.0625 349.575 335.29688 348.71564Q334.54688 347.84064 334.54688 346.34064L334.54688 346.15314Q334.54688 345.23126 334.875 344.5125Q335.21875 343.79376 335.84375 343.40314Q336.48438 342.9969 337.35938 342.9969Q338.42188 342.9969 339.125 343.6375Q339.84375 344.2625 339.89062 345.29376L338.85938 345.29376Q338.8125 344.66876 338.39062 344.27814Q337.96875 343.8875 337.35938 343.8875Q336.53125 343.8875 336.07812 344.48126Q335.625 345.075 335.625 346.2L335.625 346.40314Q335.625 347.4969 336.07812 348.09064Q336.53125 348.6844 337.35938 348.6844ZM340.53125 346.21564Q340.53125 345.29376 340.89062 344.54376Q341.26562 343.79376 341.92188 343.40314Q342.57812 342.9969 343.40625 342.9969Q344.70312 342.9969 345.5 343.8875Q346.3125 344.77814 346.3125 346.27814L346.3125 346.35626Q346.3125 347.27814 345.95312 348.0125Q345.59375 348.7469 344.9375 349.16876Q344.28125 349.575 343.42188 349.575Q342.14062 349.575 341.32812 348.6844Q340.53125 347.77814 340.53125 346.29376L340.53125 346.21564ZM341.625 346.35626Q341.625 347.40314 342.10938 348.04376Q342.60938 348.6844 343.42188 348.6844Q344.25 348.6844 344.73438 348.04376Q345.21875 347.3875 345.21875 346.21564Q345.21875 345.1844 344.71875 344.54376Q344.23438 343.8875 343.40625 343.8875Q342.60938 343.8875 342.10938 344.52814Q341.625 345.15314 341.625 346.35626ZM351.51562 347.7625Q351.51562 347.325 351.17188 347.09064Q350.84375 346.84064 350.01562 346.66876Q349.20312 346.4969 348.71875 346.2469Q348.23438 345.9969 348.0 345.66876Q347.78125 345.325 347.78125 344.85626Q347.78125 344.075 348.4375 343.54376Q349.09375 342.9969 350.125 342.9969Q351.20312 342.9969 351.85938 343.5594Q352.53125 344.10626 352.53125 344.96564L351.45312 344.96564Q351.45312 344.52814 351.0625 344.21564Q350.6875 343.8875 350.125 343.8875Q349.53125 343.8875 349.1875 344.15314Q348.85938 344.40314 348.85938 344.8094Q348.85938 345.2 349.17188 345.40314Q349.48438 345.60626 350.29688 345.79376Q351.10938 345.96564 351.60938 346.21564Q352.10938 346.46564 352.34375 346.825Q352.59375 347.1844 352.59375 347.6844Q352.59375 348.54376 351.90625 349.0594Q351.23438 349.575 350.15625 349.575Q349.39062 349.575 348.79688 349.3094Q348.21875 349.02814 347.89062 348.54376Q347.5625 348.0594 347.5625 347.4969L348.64062 347.4969Q348.67188 348.04376 349.07812 348.3719Q349.48438 348.6844 350.15625 348.6844Q350.76562 348.6844 351.14062 348.4344Q351.51562 348.1844 351.51562 347.7625ZM355.29688 341.575L355.29688 343.10626L356.46875 343.10626L356.46875 343.95L355.29688 343.95L355.29688 347.8719Q355.29688 348.2625 355.45312 348.45Q355.60938 348.6375 355.98438 348.6375Q356.17188 348.6375 356.5 348.575L356.5 349.45Q356.07812 349.575 355.67188 349.575Q354.95312 349.575 354.57812 349.1375Q354.20312 348.6844 354.20312 347.8719L354.20312 343.95L353.04688 343.95L353.04688 343.10626L354.20312 343.10626L354.20312 341.575L355.29688 341.575Z" fill-rule="nonzero"/><path fill="#424242" d="M26.753138 228.36667Q26.331263 229.80417 25.721888 230.47604Q25.112513 231.1323 24.221888 231.1323Q23.221888 231.1323 22.565638 230.33542Q21.893763 229.52292 21.893763 228.22604Q21.893763 227.35104 22.237513 226.66354Q22.581263 225.97604 23.175013 225.60104Q23.768763 225.21042 24.487513 225.21042L24.487513 226.35104Q23.706263 226.35104 23.268763 226.85104Q22.831263 227.33542 22.831263 228.22604Q22.831263 229.05417 23.206263 229.52292Q23.565638 229.99167 24.206263 229.99167Q24.737513 229.99167 25.096888 229.55417Q25.456263 229.10104 25.753138 228.03854Q26.050013 226.97604 26.409388 226.3823Q26.768763 225.77292 27.253138 225.49167Q27.737513 225.1948 28.378138 225.1948Q29.425013 225.1948 30.050013 226.0073Q30.675013 226.8198 30.675013 228.16354Q30.675013 229.05417 30.331263 229.8198Q29.987513 230.5698 29.409388 230.99167Q28.815638 231.39792 28.081263 231.39792L28.081263 230.27292Q28.846888 230.27292 29.300013 229.6948Q29.753138 229.11667 29.753138 228.16354Q29.753138 227.27292 29.393763 226.80417Q29.018763 226.33542 28.393763 226.33542Q27.768763 226.33542 27.425013 226.77292Q27.081263 227.21042 26.753138 228.36667ZM30.550013 222.86667L30.550013 223.9448L24.206263 223.9448L24.206263 222.86667L30.550013 222.86667ZM22.534388 224.03854Q22.268763 224.03854 22.081263 223.8823Q21.893763 223.71042 21.893763 223.39792Q21.893763 223.08542 22.081263 222.92917Q22.268763 222.7573 22.534388 222.7573Q22.784388 222.7573 22.971888 222.92917Q23.143763 223.08542 23.143763 223.39792Q23.143763 223.71042 22.971888 223.8823Q22.784388 224.03854 22.534388 224.03854ZM29.659388 220.02292L29.659388 216.3198L30.550013 216.3198L30.550013 221.35104L29.753138 221.35104L25.112513 217.85104L25.112513 221.30417L24.206263 221.30417L24.206263 216.49167L24.971888 216.49167L29.659388 220.02292ZM30.675013 212.41354Q30.675013 213.71042 29.831263 214.52292Q28.971888 215.3198 27.550013 215.3198L27.362513 215.3198Q26.409388 215.3198 25.675013 214.96042Q24.925013 214.60104 24.518763 213.96042Q24.096888 213.30417 24.096888 212.55417Q24.096888 211.3198 24.909388 210.6323Q25.721888 209.9448 27.237513 209.9448L27.690638 209.9448L27.690638 214.24167Q28.628138 214.21042 29.206263 213.6948Q29.784388 213.16354 29.784388 212.35104Q29.784388 211.78854 29.550013 211.39792Q29.315638 210.99167 28.925013 210.67917L29.440638 210.02292Q30.675013 210.8198 30.675013 212.41354ZM24.987513 212.55417Q24.987513 213.21042 25.471888 213.66354Q25.940638 214.10104 26.800013 214.1948L26.800013 211.02292L26.721888 211.02292Q25.893763 211.0698 25.440638 211.47604Q24.987513 211.86667 24.987513 212.55417ZM27.081263 206.08542Q25.768763 206.08542 24.550013 205.74167Q23.331263 205.3823 22.331263 204.67917Q21.331263 203.97604 20.925013 203.21042L21.643763 202.99167Q22.300013 203.85104 23.643763 204.39792Q24.987513 204.9448 26.659388 204.99167L27.159388 205.0073Q29.425013 205.0073 31.081263 204.17917Q32.08126 203.67917 32.64376 202.99167L33.30001 203.21042Q32.878136 203.99167 31.846888 204.71042Q29.862513 206.08542 27.081263 206.08542ZM27.456263 196.67917Q28.909388 196.67917 29.800013 197.35104Q30.675013 198.0073 30.675013 199.1323Q30.675013 200.33542 29.815638 200.99167L30.550013 201.05417L30.550013 202.03854L21.550013 202.03854L21.550013 200.96042L24.909388 200.96042Q24.096888 200.30417 24.096888 199.14792Q24.096888 197.99167 24.971888 197.33542Q25.831263 196.67917 27.362513 196.67917L27.456263 196.67917ZM27.331263 197.7573Q26.221888 197.7573 25.628138 198.1948Q25.018763 198.61667 25.018763 199.41354Q25.018763 200.49167 26.003138 200.96042L28.753138 200.96042Q29.753138 200.46042 29.753138 199.41354Q29.753138 198.6323 29.143763 198.1948Q28.534388 197.7573 27.331263 197.7573ZM28.956263 192.97604L24.206263 191.49167L24.206263 190.33542L31.534388 192.8823Q33.11251 193.47604 33.11251 194.7573L33.096886 194.97604L33.01876 195.36667L32.14376 195.36667L32.159386 195.08542Q32.159386 194.52292 31.940638 194.22604Q31.721888 193.91354 31.128138 193.71042L30.471888 193.47604L24.206263 195.74167L24.206263 194.55417L28.956263 192.97604ZM22.675013 187.5698L24.206263 187.5698L24.206263 186.39792L25.050013 186.39792L25.050013 187.5698L28.971888 187.5698Q29.362513 187.5698 29.550013 187.41354Q29.737513 187.2573 29.737513 186.8823Q29.737513 186.6948 29.675013 186.36667L30.550013 186.36667Q30.675013 186.78854 30.675013 187.1948Q30.675013 187.91354 30.237513 188.28854Q29.784388 188.66354 28.971888 188.66354L25.050013 188.66354L25.050013 189.8198L24.206263 189.8198L24.206263 188.66354L22.675013 188.66354L22.675013 187.5698ZM30.675013 182.41354Q30.675013 183.71042 29.831263 184.52292Q28.971888 185.3198 27.550013 185.3198L27.362513 185.3198Q26.409388 185.3198 25.675013 184.96042Q24.925013 184.60104 24.518763 183.96042Q24.096888 183.30417 24.096888 182.55417Q24.096888 181.3198 24.909388 180.6323Q25.721888 179.9448 27.237513 179.9448L27.690638 179.9448L27.690638 184.24167Q28.628138 184.21042 29.206263 183.6948Q29.784388 183.16354 29.784388 182.35104Q29.784388 181.78854 29.550013 181.39792Q29.315638 180.99167 28.925013 180.67917L29.440638 180.02292Q30.675013 180.8198 30.675013 182.41354ZM24.987513 182.55417Q24.987513 183.21042 25.471888 183.66354Q25.940638 184.10104 26.800013 184.1948L26.800013 181.02292L26.721888 181.02292Q25.893763 181.0698 25.440638 181.47604Q24.987513 181.86667 24.987513 182.55417ZM28.862513 175.35104Q28.425013 175.35104 28.190638 175.6948Q27.940638 176.02292 27.768763 176.85104Q27.596888 177.66354 27.346888 178.14792Q27.096888 178.6323 26.768763 178.86667Q26.425013 179.08542 25.956263 179.08542Q25.175013 179.08542 24.643763 178.42917Q24.096888 177.77292 24.096888 176.74167Q24.096888 175.66354 24.659388 175.0073Q25.206263 174.33542 26.065638 174.33542L26.065638 175.41354Q25.628138 175.41354 25.315638 175.80417Q24.987513 176.17917 24.987513 176.74167Q24.987513 177.33542 25.253138 177.67917Q25.503138 178.0073 25.909388 178.0073Q26.300013 178.0073 26.503138 177.6948Q26.706263 177.3823 26.893763 176.5698Q27.065638 175.7573 27.315638 175.2573Q27.565638 174.7573 27.925013 174.52292Q28.284388 174.27292 28.784388 174.27292Q29.643763 174.27292 30.159388 174.96042Q30.675013 175.6323 30.675013 176.71042Q30.675013 177.47604 30.409388 178.0698Q30.128138 178.64792 29.643763 178.97604Q29.159388 179.30417 28.596888 179.30417L28.596888 178.22604Q29.143763 178.1948 29.471888 177.78854Q29.784388 177.3823 29.784388 176.71042Q29.784388 176.10104 29.534388 175.72604Q29.284388 175.35104 28.862513 175.35104ZM27.143763 170.53854Q28.456263 170.53854 29.659388 170.8823Q30.846888 171.22604 31.862513 171.9448Q32.878136 172.64792 33.30001 173.41354L32.64376 173.64792Q31.956263 172.74167 30.503138 172.1948Q29.034388 171.64792 27.268763 171.6323L27.081263 171.6323Q25.846888 171.6323 24.784388 171.89792Q23.721888 172.14792 22.893763 172.61667Q22.050013 173.0698 21.581263 173.64792L20.925013 173.41354Q21.346888 172.64792 22.346888 171.9448Q23.346888 171.24167 24.565638 170.89792Q25.768763 170.53854 27.143763 170.53854Z" fill-rule="nonzero"/><path fill="#757575" d="M78.6125 97.24053Q78.6125 99.14678 77.95625 100.08428Q77.31563 101.00616 75.925 101.00616Q74.56563 101.00616 73.90938 100.09991Q73.25313 99.19366 73.22188 97.38116L73.22188 95.94366Q73.22188 94.05303 73.8625 93.14678Q74.51875 92.22491 75.90938 92.22491Q77.28438 92.22491 77.94063 93.11553Q78.59688 93.99053 78.6125 95.83428L78.6125 97.24053ZM77.51875 95.75616Q77.51875 94.38116 77.12813 93.75616Q76.75313 93.11553 75.90938 93.11553Q75.08125 93.11553 74.69063 93.75616Q74.31563 94.38116 74.31563 95.67803L74.31563 97.41241Q74.31563 98.78741 74.70625 99.45928Q75.1125 100.11553 75.925 100.11553Q76.72188 100.11553 77.1125 99.49053Q77.50313 98.86553 77.51875 97.53741L77.51875 95.75616Z" fill-rule="nonzero"/><path fill="#757575" d="M78.84688 121.76683L73.25313 121.76683L73.25313 120.98558L76.20625 117.70433Q76.8625 116.95433 77.1125 116.501205Q77.3625 116.032455 77.3625 115.532455Q77.3625 114.86058 76.95625 114.438705Q76.56563 114.001205 75.87813 114.001205Q75.08125 114.001205 74.62813 114.469955Q74.175 114.92308 74.175 115.751205L73.09688 115.751205Q73.09688 114.563705 73.84688 113.844955Q74.6125 113.11058 75.87813 113.11058Q77.08125 113.11058 77.76875 113.73558Q78.45625 114.36058 78.45625 115.407455Q78.45625 116.657455 76.84688 118.407455L74.56563 120.876205L78.84688 120.876205L78.84688 121.76683Z" fill-rule="nonzero"/><path fill="#757575" d="M67.83125 137.85562L68.64375 137.85562Q69.425 137.84 69.8625 137.44937Q70.3 137.05875 70.3 136.38687Q70.3 134.88687 68.8 134.88687Q68.09688 134.88687 67.675 135.29312Q67.26875 135.69937 67.26875 136.35562L66.175 136.35562Q66.175 135.34 66.90938 134.66812Q67.65938 133.99625 68.8 133.99625Q70.00313 133.99625 70.69063 134.63687Q71.37813 135.2775 71.37813 136.41812Q71.37813 136.98062 71.01875 137.49625Q70.65938 138.01187 70.03438 138.2775Q70.7375 138.49625 71.1125 139.01187Q71.50313 139.5275 71.50313 140.2775Q71.50313 141.41812 70.75313 142.10562Q70.00313 142.7775 68.8 142.7775Q67.6125 142.7775 66.84688 142.12125Q66.09688 141.465 66.09688 140.4025L67.19063 140.4025Q67.19063 141.07437 67.62813 141.48062Q68.06563 141.88687 68.81563 141.88687Q69.59688 141.88687 70.00313 141.48062Q70.425 141.05875 70.425 140.29312Q70.425 139.55875 69.97188 139.16812Q69.51875 138.76187 68.64375 138.74625L67.83125 138.74625L67.83125 137.85562ZM78.84688 142.6525L73.25313 142.6525L73.25313 141.87125L76.20625 138.59Q76.8625 137.84 77.1125 137.38687Q77.3625 136.91812 77.3625 136.41812Q77.3625 135.74625 76.95625 135.32437Q76.56563 134.88687 75.87813 134.88687Q75.08125 134.88687 74.62813 135.35562Q74.175 135.80875 74.175 136.63687L73.09688 136.63687Q73.09688 135.44937 73.84688 134.73062Q74.6125 133.99625 75.87813 133.99625Q77.08125 133.99625 77.76875 134.62125Q78.45625 135.24625 78.45625 136.29312Q78.45625 137.54312 76.84688 139.29312L74.56563 141.76187L78.84688 141.76187L78.84688 142.6525Z" fill-rule="nonzero"/><path fill="#757575" d="M67.83125 158.74129L68.64375 158.74129Q69.425 158.72566 69.8625 158.33504Q70.3 157.94441 70.3 157.27254Q70.3 155.77254 68.8 155.77254Q68.09688 155.77254 67.675 156.17879Q67.26875 156.58504 67.26875 157.24129L66.175 157.24129Q66.175 156.22566 66.90938 155.55379Q67.65938 154.88191 68.8 154.88191Q70.00313 154.88191 70.69063 155.52254Q71.37813 156.16316 71.37813 157.30379Q71.37813 157.86629 71.01875 158.38191Q70.65938 158.89754 70.03438 159.16316Q70.7375 159.38191 71.1125 159.89754Q71.50313 160.41316 71.50313 161.16316Q71.50313 162.30379 70.75313 162.99129Q70.00313 163.66316 68.8 163.66316Q67.6125 163.66316 66.84688 163.00691Q66.09688 162.35066 66.09688 161.28816L67.19063 161.28816Q67.19063 161.96004 67.62813 162.36629Q68.06563 162.77254 68.81563 162.77254Q69.59688 162.77254 70.00313 162.36629Q70.425 161.94441 70.425 161.17879Q70.425 160.44441 69.97188 160.05379Q69.51875 159.64754 68.64375 159.63191L67.83125 159.63191L67.83125 158.74129ZM74.83125 158.74129L75.64375 158.74129Q76.425 158.72566 76.8625 158.33504Q77.3 157.94441 77.3 157.27254Q77.3 155.77254 75.8 155.77254Q75.09688 155.77254 74.675 156.17879Q74.26875 156.58504 74.26875 157.24129L73.175 157.24129Q73.175 156.22566 73.90938 155.55379Q74.65938 154.88191 75.8 154.88191Q77.00313 154.88191 77.69063 155.52254Q78.37813 156.16316 78.37813 157.30379Q78.37813 157.86629 78.01875 158.38191Q77.65938 158.89754 77.03438 159.16316Q77.7375 159.38191 78.1125 159.89754Q78.50313 160.41316 78.50313 161.16316Q78.50313 162.30379 77.75313 162.99129Q77.00313 163.66316 75.8 163.66316Q74.6125 163.66316 73.84688 163.00691Q73.09688 162.35066 73.09688 161.28816L74.19063 161.28816Q74.19063 161.96004 74.62813 162.36629Q75.06563 162.77254 75.81563 162.77254Q76.59688 162.77254 77.00313 162.36629Q77.425 161.94441 77.425 161.17879Q77.425 160.44441 76.97188 160.05379Q76.51875 159.64754 75.64375 159.63191L74.83125 159.63191L74.83125 158.74129Z" fill-rule="nonzero"/><path fill="#757575" d="M70.51875 175.89258L70.51875 176.79883L70.31563 176.79883Q69.05 176.83008 68.3 177.56445Q67.55 178.2832 67.425 179.5957Q68.1125 178.83008 69.26875 178.83008Q70.37813 178.83008 71.05 179.61133Q71.72188 180.39258 71.72188 181.64258Q71.72188 182.95508 71.00313 183.75195Q70.28438 184.54883 69.06563 184.54883Q67.84688 184.54883 67.08125 183.61133Q66.33125 182.6582 66.33125 181.17383L66.33125 180.76758Q66.33125 178.4082 67.33125 177.1582Q68.33125 175.9082 70.31563 175.89258L70.51875 175.89258ZM69.09688 179.73633Q68.53438 179.73633 68.06563 180.06445Q67.59688 180.39258 67.40938 180.9082L67.40938 181.29883Q67.40938 182.36133 67.87813 183.00195Q68.3625 183.64258 69.06563 183.64258Q69.8 183.64258 70.22188 183.11133Q70.64375 182.56445 70.64375 181.68945Q70.64375 180.81445 70.22188 180.2832Q69.8 179.73633 69.09688 179.73633ZM77.83125 181.56445L79.01875 181.56445L79.01875 182.43945L77.83125 182.43945L77.83125 184.42383L76.75313 184.42383L76.75313 182.43945L72.8625 182.43945L72.8625 181.79883L76.675 175.89258L77.83125 175.89258L77.83125 181.56445ZM74.09688 181.56445L76.75313 181.56445L76.75313 177.37695L76.6125 177.61133L74.09688 181.56445Z" fill-rule="nonzero"/><path fill="#757575" d="M70.40938 201.5595Q70.08125 201.96574 69.59688 202.21574Q69.12813 202.45012 68.56563 202.45012Q67.83125 202.45012 67.28438 202.09074Q66.7375 201.73137 66.44063 201.07512Q66.14375 200.40324 66.14375 199.60637Q66.14375 198.76262 66.45625 198.07512Q66.78438 197.38762 67.37813 197.02824Q67.9875 196.65324 68.78438 196.65324Q70.05 196.65324 70.76875 197.60637Q71.50313 198.5595 71.50313 200.1845L71.50313 200.497Q71.50313 202.997 70.51875 204.13762Q69.53438 205.27824 67.55 205.3095L67.33125 205.3095L67.33125 204.40324L67.56563 204.40324Q68.90938 204.372 69.62813 203.70012Q70.34688 203.02824 70.40938 201.5595ZM68.7375 201.5595Q69.28438 201.5595 69.7375 201.23137Q70.20625 200.88762 70.425 200.40324L70.425 199.96574Q70.425 198.90324 69.95625 198.23137Q69.4875 197.5595 68.78438 197.5595Q68.06563 197.5595 67.62813 198.10637Q67.20625 198.65324 67.20625 199.5595Q67.20625 200.4345 67.6125 200.997Q68.03438 201.5595 68.7375 201.5595ZM77.51875 196.77824L77.51875 197.6845L77.31563 197.6845Q76.05 197.71574 75.3 198.45012Q74.55 199.16887 74.425 200.48137Q75.1125 199.71574 76.26875 199.71574Q77.37813 199.71574 78.05 200.497Q78.72188 201.27824 78.72188 202.52824Q78.72188 203.84074 78.00313 204.63762Q77.28438 205.4345 76.06563 205.4345Q74.84688 205.4345 74.08125 204.497Q73.33125 203.54387 73.33125 202.0595L73.33125 201.65324Q73.33125 199.29387 74.33125 198.04387Q75.33125 196.79387 77.31563 196.77824L77.51875 196.77824ZM76.09688 200.622Q75.53438 200.622 75.06563 200.95012Q74.59688 201.27824 74.40938 201.79387L74.40938 202.1845Q74.40938 203.247 74.87813 203.88762Q75.3625 204.52824 76.06563 204.52824Q76.8 204.52824 77.22188 203.997Q77.64375 203.45012 77.64375 202.57512Q77.64375 201.70012 77.22188 201.16887Q76.8 200.622 76.09688 200.622Z" fill-rule="nonzero"/><path fill="#757575" d="M62.815624 226.19518L61.7375 226.19518L61.7375 218.97643L59.55 219.7733L59.55 218.78893L62.659374 217.61705L62.815624 217.61705L62.815624 226.19518ZM71.84688 226.19518L66.25313 226.19518L66.25313 225.41393L69.20625 222.13268Q69.8625 221.38268 70.1125 220.92955Q70.3625 220.4608 70.3625 219.9608Q70.3625 219.28893 69.95625 218.86705Q69.56563 218.42955 68.87813 218.42955Q68.08125 218.42955 67.62813 218.8983Q67.175 219.35143 67.175 220.17955L66.09688 220.17955Q66.09688 218.99205 66.84688 218.2733Q67.6125 217.53893 68.87813 217.53893Q70.08125 217.53893 70.76875 218.16393Q71.45625 218.78893 71.45625 219.8358Q71.45625 221.0858 69.84688 222.8358L67.56563 225.30455L71.84688 225.30455L71.84688 226.19518ZM78.44063 219.88268Q78.44063 220.5233 78.09688 221.0233Q77.75313 221.5233 77.19063 221.80455Q77.84688 222.0858 78.2375 222.6483Q78.62813 223.19518 78.62813 223.8983Q78.62813 224.99205 77.87813 225.66393Q77.14375 226.32018 75.925 226.32018Q74.69063 226.32018 73.94063 225.66393Q73.20625 224.99205 73.20625 223.8983Q73.20625 223.19518 73.58125 222.6483Q73.95625 222.0858 74.62813 221.80455Q74.06563 221.5233 73.7375 221.0233Q73.40938 220.5233 73.40938 219.88268Q73.40938 218.80455 74.09688 218.17955Q74.78438 217.53893 75.925 217.53893Q77.05 217.53893 77.7375 218.17955Q78.44063 218.80455 78.44063 219.88268ZM77.55 223.86705Q77.55 223.1483 77.09688 222.7108Q76.64375 222.25768 75.90938 222.25768Q75.175 222.25768 74.72188 222.7108Q74.28438 223.1483 74.28438 223.88268Q74.28438 224.60143 74.72188 225.0233Q75.15938 225.42955 75.925 225.42955Q76.675 225.42955 77.1125 225.00768Q77.55 224.5858 77.55 223.86705ZM75.925 218.42955Q75.28438 218.42955 74.87813 218.8358Q74.4875 219.22643 74.4875 219.91393Q74.4875 220.55455 74.87813 220.9608Q75.26875 221.36705 75.90938 221.36705Q76.56563 221.36705 76.95625 220.9608Q77.34688 220.55455 77.34688 219.91393Q77.34688 219.25768 76.94063 218.85143Q76.53438 218.42955 75.925 218.42955Z" fill-rule="nonzero"/><path fill="#757575" d="M64.84688 247.08084L59.253124 247.08084L59.253124 246.29959L62.20625 243.01834Q62.8625 242.26834 63.1125 241.81522Q63.3625 241.34647 63.3625 240.84647Q63.3625 240.17459 62.95625 239.75272Q62.565624 239.31522 61.878124 239.31522Q61.08125 239.31522 60.628124 239.78397Q60.175 240.23709 60.175 241.06522L59.096874 241.06522Q59.096874 239.87772 59.846874 239.15897Q60.6125 238.42459 61.878124 238.42459Q63.08125 238.42459 63.76875 239.04959Q64.45625 239.67459 64.45625 240.72147Q64.45625 241.97147 62.846874 243.72147L60.565624 246.19022L64.84688 246.19022L64.84688 247.08084ZM66.75313 242.79959L67.19063 238.54959L71.56563 238.54959L71.56563 239.54959L68.1125 239.54959L67.84688 241.87772Q68.4875 241.50272 69.28438 241.50272Q70.44063 241.50272 71.12813 242.28397Q71.81563 243.04959 71.81563 244.36209Q71.81563 245.67459 71.09688 246.44022Q70.39375 247.20584 69.1125 247.20584Q67.9875 247.20584 67.26875 246.58084Q66.55 245.94022 66.45625 244.83084L67.47188 244.83084Q67.58125 245.56522 68.00313 245.94022Q68.425 246.31522 69.1125 246.31522Q69.8625 246.31522 70.3 245.79959Q70.7375 245.28397 70.7375 244.37772Q70.7375 243.51834 70.26875 243.00272Q69.8 242.48709 69.01875 242.48709Q68.31563 242.48709 67.90938 242.78397L67.62813 243.01834L66.75313 242.79959ZM77.51875 238.54959L77.51875 239.45584L77.31563 239.45584Q76.05 239.48709 75.3 240.22147Q74.55 240.94022 74.425 242.25272Q75.1125 241.48709 76.26875 241.48709Q77.37813 241.48709 78.05 242.26834Q78.72188 243.04959 78.72188 244.29959Q78.72188 245.61209 78.00313 246.40897Q77.28438 247.20584 76.06563 247.20584Q74.84688 247.20584 74.08125 246.26834Q73.33125 245.31522 73.33125 243.83084L73.33125 243.42459Q73.33125 241.06522 74.33125 239.81522Q75.33125 238.56522 77.31563 238.54959L77.51875 238.54959ZM76.09688 242.39334Q75.53438 242.39334 75.06563 242.72147Q74.59688 243.04959 74.40938 243.56522L74.40938 243.95584Q74.40938 245.01834 74.87813 245.65897Q75.3625 246.29959 76.06563 246.29959Q76.8 246.29959 77.22188 245.76834Q77.64375 245.22147 77.64375 244.34647Q77.64375 243.47147 77.22188 242.94022Q76.8 242.39334 76.09688 242.39334Z" fill-rule="nonzero"/><path fill="#757575" d="M59.753124 263.68524L60.190624 259.43524L64.56563 259.43524L64.56563 260.43524L61.1125 260.43524L60.846874 262.76337Q61.4875 262.38837 62.284374 262.38837Q63.440624 262.38837 64.12813 263.16962Q64.81563 263.93524 64.81563 265.24774Q64.81563 266.56024 64.09688 267.32587Q63.39375 268.0915 62.1125 268.0915Q60.9875 268.0915 60.26875 267.4665Q59.55 266.82587 59.45625 265.7165L60.471874 265.7165Q60.58125 266.45087 61.003124 266.82587Q61.425 267.20087 62.1125 267.20087Q62.8625 267.20087 63.3 266.68524Q63.7375 266.16962 63.7375 265.26337Q63.7375 264.404 63.26875 263.88837Q62.8 263.37274 62.01875 263.37274Q61.315624 263.37274 60.909374 263.66962L60.628124 263.904L59.753124 263.68524ZM69.81563 267.9665L68.7375 267.9665L68.7375 260.74774L66.55 261.54462L66.55 260.56024L69.65938 259.38837L69.81563 259.38837L69.81563 267.9665ZM78.84688 267.9665L73.25313 267.9665L73.25313 267.18524L76.20625 263.904Q76.8625 263.154 77.1125 262.70087Q77.3625 262.23212 77.3625 261.73212Q77.3625 261.06024 76.95625 260.63837Q76.56563 260.20087 75.87813 260.20087Q75.08125 260.20087 74.62813 260.66962Q74.175 261.12274 74.175 261.95087L73.09688 261.95087Q73.09688 260.76337 73.84688 260.04462Q74.6125 259.31024 75.87813 259.31024Q77.08125 259.31024 77.76875 259.93524Q78.45625 260.56024 78.45625 261.60712Q78.45625 262.85712 76.84688 264.60712L74.56563 267.07587L78.84688 267.07587L78.84688 267.9665Z" fill-rule="nonzero"/><path fill="#757575" d="M55.815624 288.85217L54.7375 288.85217L54.7375 281.63342L52.55 282.4303L52.55 281.44592L55.659374 280.27405L55.815624 280.27405L55.815624 288.85217ZM64.6125 285.21155Q64.6125 287.1178 63.95625 288.0553Q63.315624 288.97717 61.925 288.97717Q60.565624 288.97717 59.909374 288.07092Q59.253124 287.16467 59.221874 285.35217L59.221874 283.91467Q59.221874 282.02405 59.8625 281.1178Q60.51875 280.19592 61.909374 280.19592Q63.284374 280.19592 63.940624 281.08655Q64.59688 281.96155 64.6125 283.8053L64.6125 285.21155ZM63.51875 283.72717Q63.51875 282.35217 63.128124 281.72717Q62.753124 281.08655 61.909374 281.08655Q61.08125 281.08655 60.690624 281.72717Q60.315624 282.35217 60.315624 283.64905L60.315624 285.38342Q60.315624 286.75842 60.70625 287.4303Q61.1125 288.08655 61.925 288.08655Q62.721874 288.08655 63.1125 287.46155Q63.503124 286.83655 63.51875 285.50842L63.51875 283.72717ZM71.84688 288.85217L66.25313 288.85217L66.25313 288.07092L69.20625 284.78967Q69.8625 284.03967 70.1125 283.58655Q70.3625 283.1178 70.3625 282.6178Q70.3625 281.94592 69.95625 281.52405Q69.56563 281.08655 68.87813 281.08655Q68.08125 281.08655 67.62813 281.5553Q67.175 282.00842 67.175 282.83655L66.09688 282.83655Q66.09688 281.64905 66.84688 280.9303Q67.6125 280.19592 68.87813 280.19592Q70.08125 280.19592 70.76875 280.82092Q71.45625 281.44592 71.45625 282.4928Q71.45625 283.7428 69.84688 285.4928L67.56563 287.96155L71.84688 287.96155L71.84688 288.85217ZM77.83125 285.9928L79.01875 285.9928L79.01875 286.8678L77.83125 286.8678L77.83125 288.85217L76.75313 288.85217L76.75313 286.8678L72.8625 286.8678L72.8625 286.22717L76.675 280.32092L77.83125 280.32092L77.83125 285.9928ZM74.09688 285.9928L76.75313 285.9928L76.75313 281.8053L76.6125 282.03967L74.09688 285.9928Z" fill-rule="nonzero"/><path fill="#757575" d="M196.82187 316.45L191.22812 316.45L191.22812 315.66876L194.18124 312.3875Q194.8375 311.6375 195.0875 311.1844Q195.3375 310.71564 195.3375 310.21564Q195.3375 309.54376 194.93124 309.1219Q194.54062 308.6844 193.85312 308.6844Q193.05624 308.6844 192.60312 309.15314Q192.15 309.60626 192.15 310.4344L191.07187 310.4344Q191.07187 309.2469 191.82187 308.52814Q192.5875 307.79376 193.85312 307.79376Q195.05624 307.79376 195.74374 308.41876Q196.43124 309.04376 196.43124 310.09064Q196.43124 311.34064 194.82187 313.09064L192.54062 315.5594L196.82187 315.5594L196.82187 316.45ZM203.5875 312.8094Q203.5875 314.71564 202.93124 315.65314Q202.29062 316.575 200.9 316.575Q199.54062 316.575 198.88437 315.66876Q198.22812 314.7625 198.19687 312.95L198.19687 311.5125Q198.19687 309.6219 198.8375 308.71564Q199.49374 307.79376 200.88437 307.79376Q202.25937 307.79376 202.91562 308.6844Q203.57187 309.5594 203.5875 311.40314L203.5875 312.8094ZM202.49374 311.325Q202.49374 309.95 202.10312 309.325Q201.72812 308.6844 200.88437 308.6844Q200.05624 308.6844 199.66562 309.325Q199.29062 309.95 199.29062 311.2469L199.29062 312.98126Q199.29062 314.35626 199.68124 315.02814Q200.0875 315.6844 200.9 315.6844Q201.69687 315.6844 202.0875 315.0594Q202.47812 314.4344 202.49374 313.10626L202.49374 311.325ZM205.36874 315.8875Q205.36874 315.60626 205.525 315.41876Q205.69687 315.23126 206.025 315.23126Q206.36874 315.23126 206.54062 315.41876Q206.7125 315.60626 206.7125 315.8875Q206.7125 316.15314 206.54062 316.34064Q206.36874 316.5125 206.025 316.5125Q205.69687 316.5125 205.525 316.34064Q205.36874 316.15314 205.36874 315.8875ZM213.5875 312.8094Q213.5875 314.71564 212.93124 315.65314Q212.29062 316.575 210.9 316.575Q209.54062 316.575 208.88437 315.66876Q208.22812 314.7625 208.19687 312.95L208.19687 311.5125Q208.19687 309.6219 208.8375 308.71564Q209.49374 307.79376 210.88437 307.79376Q212.25937 307.79376 212.91562 308.6844Q213.57187 309.5594 213.5875 311.40314L213.5875 312.8094ZM212.49374 311.325Q212.49374 309.95 212.10312 309.325Q211.72812 308.6844 210.88437 308.6844Q210.05624 308.6844 209.66562 309.325Q209.29062 309.95 209.29062 311.2469L209.29062 312.98126Q209.29062 314.35626 209.68124 315.02814Q210.0875 315.6844 210.9 315.6844Q211.69687 315.6844 212.0875 315.0594Q212.47812 314.4344 212.49374 313.10626L212.49374 311.325ZM220.5875 312.8094Q220.5875 314.71564 219.93124 315.65314Q219.29062 316.575 217.9 316.575Q216.54062 316.575 215.88437 315.66876Q215.22812 314.7625 215.19687 312.95L215.19687 311.5125Q215.19687 309.6219 215.8375 308.71564Q216.49374 307.79376 217.88437 307.79376Q219.25937 307.79376 219.91562 308.6844Q220.57187 309.5594 220.5875 311.40314L220.5875 312.8094ZM219.49374 311.325Q219.49374 309.95 219.10312 309.325Q218.72812 308.6844 217.88437 308.6844Q217.05624 308.6844 216.66562 309.325Q216.29062 309.95 216.29062 311.2469L216.29062 312.98126Q216.29062 314.35626 216.68124 315.02814Q217.0875 315.6844 217.9 315.6844Q218.69687 315.6844 219.0875 315.0594Q219.47812 314.4344 219.49374 313.10626L219.49374 311.325ZM227.5875 312.8094Q227.5875 314.71564 226.93124 315.65314Q226.29062 316.575 224.9 316.575Q223.54062 316.575 222.88437 315.66876Q222.22812 314.7625 222.19687 312.95L222.19687 311.5125Q222.19687 309.6219 222.8375 308.71564Q223.49374 307.79376 224.88437 307.79376Q226.25937 307.79376 226.91562 308.6844Q227.57187 309.5594 227.5875 311.40314L227.5875 312.8094ZM226.49374 311.325Q226.49374 309.95 226.10312 309.325Q225.72812 308.6844 224.88437 308.6844Q224.05624 308.6844 223.66562 309.325Q223.29062 309.95 223.29062 311.2469L223.29062 312.98126Q223.29062 314.35626 223.68124 315.02814Q224.0875 315.6844 224.9 315.6844Q225.69687 315.6844 226.0875 315.0594Q226.47812 314.4344 226.49374 313.10626L226.49374 311.325Z" fill-rule="nonzero"/><path fill="#757575" d="M319.78125 313.59064L320.96875 313.59064L320.96875 314.46564L319.78125 314.46564L319.78125 316.45L318.70312 316.45L318.70312 314.46564L314.8125 314.46564L314.8125 313.825L318.625 307.91876L319.78125 307.91876L319.78125 313.59064ZM316.04688 313.59064L318.70312 313.59064L318.70312 309.40314L318.5625 309.6375L316.04688 313.59064ZM327.5625 312.8094Q327.5625 314.71564 326.90625 315.65314Q326.26562 316.575 324.875 316.575Q323.51562 316.575 322.85938 315.66876Q322.20312 314.7625 322.17188 312.95L322.17188 311.5125Q322.17188 309.6219 322.8125 308.71564Q323.46875 307.79376 324.85938 307.79376Q326.23438 307.79376 326.89062 308.6844Q327.54688 309.5594 327.5625 311.40314L327.5625 312.8094ZM326.46875 311.325Q326.46875 309.95 326.07812 309.325Q325.70312 308.6844 324.85938 308.6844Q324.03125 308.6844 323.64062 309.325Q323.26562 309.95 323.26562 311.2469L323.26562 312.98126Q323.26562 314.35626 323.65625 315.02814Q324.0625 315.6844 324.875 315.6844Q325.67188 315.6844 326.0625 315.0594Q326.45312 314.4344 326.46875 313.10626L326.46875 311.325ZM329.34375 315.8875Q329.34375 315.60626 329.5 315.41876Q329.67188 315.23126 330.0 315.23126Q330.34375 315.23126 330.51562 315.41876Q330.6875 315.60626 330.6875 315.8875Q330.6875 316.15314 330.51562 316.34064Q330.34375 316.5125 330.0 316.5125Q329.67188 316.5125 329.5 316.34064Q329.34375 316.15314 329.34375 315.8875ZM337.5625 312.8094Q337.5625 314.71564 336.90625 315.65314Q336.26562 316.575 334.875 316.575Q333.51562 316.575 332.85938 315.66876Q332.20312 314.7625 332.17188 312.95L332.17188 311.5125Q332.17188 309.6219 332.8125 308.71564Q333.46875 307.79376 334.85938 307.79376Q336.23438 307.79376 336.89062 308.6844Q337.54688 309.5594 337.5625 311.40314L337.5625 312.8094ZM336.46875 311.325Q336.46875 309.95 336.07812 309.325Q335.70312 308.6844 334.85938 308.6844Q334.03125 308.6844 333.64062 309.325Q333.26562 309.95 333.26562 311.2469L333.26562 312.98126Q333.26562 314.35626 333.65625 315.02814Q334.0625 315.6844 334.875 315.6844Q335.67188 315.6844 336.0625 315.0594Q336.45312 314.4344 336.46875 313.10626L336.46875 311.325ZM344.5625 312.8094Q344.5625 314.71564 343.90625 315.65314Q343.26562 316.575 341.875 316.575Q340.51562 316.575 339.85938 315.66876Q339.20312 314.7625 339.17188 312.95L339.17188 311.5125Q339.17188 309.6219 339.8125 308.71564Q340.46875 307.79376 341.85938 307.79376Q343.23438 307.79376 343.89062 308.6844Q344.54688 309.5594 344.5625 311.40314L344.5625 312.8094ZM343.46875 311.325Q343.46875 309.95 343.07812 309.325Q342.70312 308.6844 341.85938 308.6844Q341.03125 308.6844 340.64062 309.325Q340.26562 309.95 340.26562 311.2469L340.26562 312.98126Q340.26562 314.35626 340.65625 315.02814Q341.0625 315.6844 341.875 315.6844Q342.67188 315.6844 343.0625 315.0594Q343.45312 314.4344 343.46875 313.10626L343.46875 311.325ZM351.5625 312.8094Q351.5625 314.71564 350.90625 315.65314Q350.26562 316.575 348.875 316.575Q347.51562 316.575 346.85938 315.66876Q346.20312 314.7625 346.17188 312.95L346.17188 311.5125Q346.17188 309.6219 346.8125 308.71564Q347.46875 307.79376 348.85938 307.79376Q350.23438 307.79376 350.89062 308.6844Q351.54688 309.5594 351.5625 311.40314L351.5625 312.8094ZM350.46875 311.325Q350.46875 309.95 350.07812 309.325Q349.70312 308.6844 348.85938 308.6844Q348.03125 308.6844 347.64062 309.325Q347.26562 309.95 347.26562 311.2469L347.26562 312.98126Q347.26562 314.35626 347.65625 315.02814Q348.0625 315.6844 348.875 315.6844Q349.67188 315.6844 350.0625 315.0594Q350.45312 314.4344 350.46875 313.10626L350.46875 311.325Z" fill-rule="nonzero"/><path fill="#757575" d="M443.44376 307.91876L443.44376 308.825L443.24063 308.825Q441.975 308.85626 441.225 309.59064Q440.475 310.3094 440.35 311.6219Q441.0375 310.85626 442.19376 310.85626Q443.30313 310.85626 443.975 311.6375Q444.64688 312.41876 444.64688 313.66876Q444.64688 314.98126 443.92813 315.77814Q443.20938 316.575 441.99063 316.575Q440.77188 316.575 440.00626 315.6375Q439.25626 314.6844 439.25626 313.2L439.25626 312.79376Q439.25626 310.4344 440.25626 309.1844Q441.25626 307.9344 443.24063 307.91876L443.44376 307.91876ZM442.02188 311.7625Q441.45938 311.7625 440.99063 312.09064Q440.52188 312.41876 440.33438 312.9344L440.33438 313.325Q440.33438 314.3875 440.80313 315.02814Q441.2875 315.66876 441.99063 315.66876Q442.725 315.66876 443.14688 315.1375Q443.56876 314.59064 443.56876 313.71564Q443.56876 312.84064 443.14688 312.3094Q442.725 311.7625 442.02188 311.7625ZM451.5375 312.8094Q451.5375 314.71564 450.88126 315.65314Q450.24063 316.575 448.85 316.575Q447.49063 316.575 446.83438 315.66876Q446.17813 314.7625 446.14688 312.95L446.14688 311.5125Q446.14688 309.6219 446.7875 308.71564Q447.44376 307.79376 448.83438 307.79376Q450.20938 307.79376 450.86563 308.6844Q451.52188 309.5594 451.5375 311.40314L451.5375 312.8094ZM450.44376 311.325Q450.44376 309.95 450.05313 309.325Q449.67813 308.6844 448.83438 308.6844Q448.00626 308.6844 447.61563 309.325Q447.24063 309.95 447.24063 311.2469L447.24063 312.98126Q447.24063 314.35626 447.63126 315.02814Q448.0375 315.6844 448.85 315.6844Q449.64688 315.6844 450.0375 315.0594Q450.42813 314.4344 450.44376 313.10626L450.44376 311.325ZM453.31876 315.8875Q453.31876 315.60626 453.475 315.41876Q453.64688 315.23126 453.975 315.23126Q454.31876 315.23126 454.49063 315.41876Q454.6625 315.60626 454.6625 315.8875Q454.6625 316.15314 454.49063 316.34064Q454.31876 316.5125 453.975 316.5125Q453.64688 316.5125 453.475 316.34064Q453.31876 316.15314 453.31876 315.8875ZM461.5375 312.8094Q461.5375 314.71564 460.88126 315.65314Q460.24063 316.575 458.85 316.575Q457.49063 316.575 456.83438 315.66876Q456.17813 314.7625 456.14688 312.95L456.14688 311.5125Q456.14688 309.6219 456.7875 308.71564Q457.44376 307.79376 458.83438 307.79376Q460.20938 307.79376 460.86563 308.6844Q461.52188 309.5594 461.5375 311.40314L461.5375 312.8094ZM460.44376 311.325Q460.44376 309.95 460.05313 309.325Q459.67813 308.6844 458.83438 308.6844Q458.00626 308.6844 457.61563 309.325Q457.24063 309.95 457.24063 311.2469L457.24063 312.98126Q457.24063 314.35626 457.63126 315.02814Q458.0375 315.6844 458.85 315.6844Q459.64688 315.6844 460.0375 315.0594Q460.42813 314.4344 460.44376 313.10626L460.44376 311.325ZM468.5375 312.8094Q468.5375 314.71564 467.88126 315.65314Q467.24063 316.575 465.85 316.575Q464.49063 316.575 463.83438 315.66876Q463.17813 314.7625 463.14688 312.95L463.14688 311.5125Q463.14688 309.6219 463.7875 308.71564Q464.44376 307.79376 465.83438 307.79376Q467.20938 307.79376 467.86563 308.6844Q468.52188 309.5594 468.5375 311.40314L468.5375 312.8094ZM467.44376 311.325Q467.44376 309.95 467.05313 309.325Q466.67813 308.6844 465.83438 308.6844Q465.00626 308.6844 464.61563 309.325Q464.24063 309.95 464.24063 311.2469L464.24063 312.98126Q464.24063 314.35626 464.63126 315.02814Q465.0375 315.6844 465.85 315.6844Q466.64688 315.6844 467.0375 315.0594Q467.42813 314.4344 467.44376 313.10626L467.44376 311.325ZM475.5375 312.8094Q475.5375 314.71564 474.88126 315.65314Q474.24063 316.575 472.85 316.575Q471.49063 316.575 470.83438 315.66876Q470.17813 314.7625 470.14688 312.95L470.14688 311.5125Q470.14688 309.6219 470.7875 308.71564Q471.44376 307.79376 472.83438 307.79376Q474.20938 307.79376 474.86563 308.6844Q475.52188 309.5594 475.5375 311.40314L475.5375 312.8094ZM474.44376 311.325Q474.44376 309.95 474.05313 309.325Q473.67813 308.6844 472.83438 308.6844Q472.00626 308.6844 471.61563 309.325Q471.24063 309.95 471.24063 311.2469L471.24063 312.98126Q471.24063 314.35626 471.63126 315.02814Q472.0375 315.6844 472.85 315.6844Q473.64688 315.6844 474.0375 315.0594Q474.42813 314.4344 474.44376 313.10626L474.44376 311.325Z" fill-rule="nonzero"/><path fill="#4285f4" d="M175.0 57.416668C175.0 56.864384 175.44771 56.416668 176.0 56.416668L186.0 56.416668C186.55229 56.416668 187.0 56.864384 187.0 57.416668L187.0 67.416664C187.0 67.96895 186.55229 68.416664 186.0 68.416664L176.0 68.416664C175.44771 68.416664 175.0 67.96895 175.0 67.416664Z" fill-rule="nonzero"/><path fill="#757575" d="M198.5 63.11979Q197.0625 62.697914 196.39062 62.08854Q195.73438 61.479164 195.73438 60.58854Q195.73438 59.58854 196.53125 58.93229Q197.34375 58.260414 198.64062 58.260414Q199.51562 58.260414 200.20312 58.604164Q200.89062 58.947914 201.26562 59.541664Q201.65625 60.135414 201.65625 60.854164L200.51562 60.854164Q200.51562 60.072914 200.01562 59.635414Q199.53125 59.197914 198.64062 59.197914Q197.8125 59.197914 197.34375 59.572914Q196.875 59.93229 196.875 60.572914Q196.875 61.104164 197.3125 61.46354Q197.76562 61.822914 198.82812 62.11979Q199.89062 62.416664 200.48438 62.77604Q201.09375 63.135414 201.375 63.61979Q201.67188 64.104164 201.67188 64.74479Q201.67188 65.791664 200.85938 66.416664Q200.04688 67.041664 198.70312 67.041664Q197.8125 67.041664 197.04688 66.697914Q196.29688 66.354164 195.875 65.77604Q195.46875 65.18229 195.46875 64.447914L196.59375 64.447914Q196.59375 65.21354 197.17188 65.666664Q197.75 66.11979 198.70312 66.11979Q199.59375 66.11979 200.0625 65.760414Q200.53125 65.385414 200.53125 64.760414Q200.53125 64.135414 200.09375 63.791664Q199.65625 63.447914 198.5 63.11979ZM204.125 65.99479L208.17188 65.99479L208.17188 66.916664L202.98438 66.916664L202.98438 58.385414L204.125 58.385414L204.125 65.99479ZM215.54688 62.93229Q215.54688 64.18229 215.125 65.11979Q214.70312 66.041664 213.92188 66.541664Q213.15625 67.041664 212.125 67.041664Q211.125 67.041664 210.34375 66.541664Q209.5625 66.041664 209.125 65.135414Q208.70312 64.21354 208.6875 62.99479L208.6875 62.385414Q208.6875 61.15104 209.10938 60.21354Q209.54688 59.27604 210.32812 58.77604Q211.10938 58.260414 212.125 58.260414Q213.14062 58.260414 213.92188 58.760414Q214.70312 59.260414 215.125 60.197914Q215.54688 61.135414 215.54688 62.385414L215.54688 62.93229ZM214.4375 62.36979Q214.4375 60.854164 213.82812 60.041664Q213.21875 59.229164 212.125 59.229164Q211.04688 59.229164 210.4375 60.041664Q209.82812 60.854164 209.8125 62.291664L209.8125 62.93229Q209.8125 64.40104 210.42188 65.24479Q211.04688 66.072914 212.125 66.072914Q213.21875 66.072914 213.8125 65.291664Q214.42188 64.49479 214.4375 63.010414L214.4375 62.36979ZM221.70312 64.68229L218.125 64.68229L217.32812 66.916664L216.17188 66.916664L219.42188 58.385414L220.40625 58.385414L223.67188 66.916664L222.51562 66.916664L221.70312 64.68229ZM218.46875 63.760414L221.375 63.760414L219.92188 59.77604L218.46875 63.760414ZM224.98438 66.916664L224.98438 58.385414L227.40625 58.385414Q228.51562 58.385414 229.35938 58.885414Q230.21875 59.36979 230.6875 60.27604Q231.15625 61.18229 231.15625 62.36979L231.15625 62.90104Q231.15625 64.11979 230.6875 65.02604Q230.23438 65.93229 229.35938 66.416664Q228.5 66.90104 227.35938 66.916664L224.98438 66.916664ZM226.10938 59.30729L226.10938 65.99479L227.29688 65.99479Q228.59375 65.99479 229.3125 65.197914Q230.04688 64.385414 230.04688 62.885414L230.04688 62.385414Q230.04688 60.93229 229.35938 60.135414Q228.6875 59.322914 227.42188 59.30729L226.10938 59.30729Z" fill-rule="nonzero"/><path fill="#db4437" d="M248.0 57.416668C248.0 56.864384 248.44771 56.416668 249.0 56.416668L259.0 56.416668C259.55228 56.416668 260.0 56.864384 260.0 57.416668L260.0 67.416664C260.0 67.96895 259.55228 68.416664 259.0 68.416664L249.0 68.416664C248.44771 68.416664 248.0 67.96895 248.0 67.416664Z" fill-rule="nonzero"/><path fill="#757575" d="M271.5 63.11979Q270.0625 62.697914 269.39062 62.08854Q268.73438 61.479164 268.73438 60.58854Q268.73438 59.58854 269.53125 58.93229Q270.34375 58.260414 271.64062 58.260414Q272.51562 58.260414 273.20312 58.604164Q273.89062 58.947914 274.26562 59.541664Q274.65625 60.135414 274.65625 60.854164L273.51562 60.854164Q273.51562 60.072914 273.01562 59.635414Q272.53125 59.197914 271.64062 59.197914Q270.8125 59.197914 270.34375 59.572914Q269.875 59.93229 269.875 60.572914Q269.875 61.104164 270.3125 61.46354Q270.76562 61.822914 271.82812 62.11979Q272.89062 62.416664 273.48438 62.77604Q274.09375 63.135414 274.375 63.61979Q274.67188 64.104164 274.67188 64.74479Q274.67188 65.791664 273.85938 66.416664Q273.04688 67.041664 271.70312 67.041664Q270.8125 67.041664 270.04688 66.697914Q269.29688 66.354164 268.875 65.77604Q268.46875 65.18229 268.46875 64.447914L269.59375 64.447914Q269.59375 65.21354 270.17188 65.666664Q270.75 66.11979 271.70312 66.11979Q272.59375 66.11979 273.0625 65.760414Q273.53125 65.385414 273.53125 64.760414Q273.53125 64.135414 273.09375 63.791664Q272.65625 63.447914 271.5 63.11979ZM277.125 65.99479L281.17188 65.99479L281.17188 66.916664L275.98438 66.916664L275.98438 58.385414L277.125 58.385414L277.125 65.99479ZM288.54688 62.93229Q288.54688 64.18229 288.125 65.11979Q287.70312 66.041664 286.92188 66.541664Q286.15625 67.041664 285.125 67.041664Q284.125 67.041664 283.34375 66.541664Q282.5625 66.041664 282.125 65.135414Q281.70312 64.21354 281.6875 62.99479L281.6875 62.385414Q281.6875 61.15104 282.10938 60.21354Q282.54688 59.27604 283.32812 58.77604Q284.10938 58.260414 285.125 58.260414Q286.14062 58.260414 286.92188 58.760414Q287.70312 59.260414 288.125 60.197914Q288.54688 61.135414 288.54688 62.385414L288.54688 62.93229ZM287.4375 62.36979Q287.4375 60.854164 286.82812 60.041664Q286.21875 59.229164 285.125 59.229164Q284.04688 59.229164 283.4375 60.041664Q282.82812 60.854164 282.8125 62.291664L282.8125 62.93229Q282.8125 64.40104 283.42188 65.24479Q284.04688 66.072914 285.125 66.072914Q286.21875 66.072914 286.8125 65.291664Q287.42188 64.49479 287.4375 63.010414L287.4375 62.36979ZM294.70312 64.68229L291.125 64.68229L290.32812 66.916664L289.17188 66.916664L292.42188 58.385414L293.40625 58.385414L296.67188 66.916664L295.51562 66.916664L294.70312 64.68229ZM291.46875 63.760414L294.375 63.760414L292.92188 59.77604L291.46875 63.760414ZM297.98438 66.916664L297.98438 58.385414L300.40625 58.385414Q301.51562 58.385414 302.35938 58.885414Q303.21875 59.36979 303.6875 60.27604Q304.15625 61.18229 304.15625 62.36979L304.15625 62.90104Q304.15625 64.11979 303.6875 65.02604Q303.23438 65.93229 302.35938 66.416664Q301.5 66.90104 300.35938 66.916664L297.98438 66.916664ZM299.10938 59.30729L299.10938 65.99479L300.29688 65.99479Q301.59375 65.99479 302.3125 65.197914Q303.04688 64.385414 303.04688 62.885414L303.04688 62.385414Q303.04688 60.93229 302.35938 60.135414Q301.6875 59.322914 300.42188 59.30729L299.10938 59.30729ZM311.29688 66.916664L305.70312 66.916664L305.70312 66.135414L308.65625 62.854164Q309.3125 62.104164 309.5625 61.65104Q309.8125 61.18229 309.8125 60.68229Q309.8125 60.010414 309.40625 59.58854Q309.01562 59.15104 308.32812 59.15104Q307.53125 59.15104 307.07812 59.61979Q306.625 60.072914 306.625 60.90104L305.54688 60.90104Q305.54688 59.71354 306.29688 58.99479Q307.0625 58.260414 308.32812 58.260414Q309.53125 58.260414 310.21875 58.885414Q310.90625 59.510414 310.90625 60.55729Q310.90625 61.80729 309.29688 63.55729L307.01562 66.02604L311.29688 66.02604L311.29688 66.916664Z" fill-rule="nonzero"/><path fill="#f4b400" d="M328.0 57.416668C328.0 56.864384 328.44772 56.416668 329.0 56.416668L339.0 56.416668C339.55228 56.416668 340.0 56.864384 340.0 57.416668L340.0 67.416664C340.0 67.96895 339.55228 68.416664 339.0 68.416664L329.0 68.416664C328.44772 68.416664 328.0 67.96895 328.0 67.416664Z" fill-rule="nonzero"/><path fill="#757575" d="M351.5 63.11979Q350.0625 62.697914 349.39062 62.08854Q348.73438 61.479164 348.73438 60.58854Q348.73438 59.58854 349.53125 58.93229Q350.34375 58.260414 351.64062 58.260414Q352.51562 58.260414 353.20312 58.604164Q353.89062 58.947914 354.26562 59.541664Q354.65625 60.135414 354.65625 60.854164L353.51562 60.854164Q353.51562 60.072914 353.01562 59.635414Q352.53125 59.197914 351.64062 59.197914Q350.8125 59.197914 350.34375 59.572914Q349.875 59.93229 349.875 60.572914Q349.875 61.104164 350.3125 61.46354Q350.76562 61.822914 351.82812 62.11979Q352.89062 62.416664 353.48438 62.77604Q354.09375 63.135414 354.375 63.61979Q354.67188 64.104164 354.67188 64.74479Q354.67188 65.791664 353.85938 66.416664Q353.04688 67.041664 351.70312 67.041664Q350.8125 67.041664 350.04688 66.697914Q349.29688 66.354164 348.875 65.77604Q348.46875 65.18229 348.46875 64.447914L349.59375 64.447914Q349.59375 65.21354 350.17188 65.666664Q350.75 66.11979 351.70312 66.11979Q352.59375 66.11979 353.0625 65.760414Q353.53125 65.385414 353.53125 64.760414Q353.53125 64.135414 353.09375 63.791664Q352.65625 63.447914 351.5 63.11979ZM357.125 65.99479L361.17188 65.99479L361.17188 66.916664L355.98438 66.916664L355.98438 58.385414L357.125 58.385414L357.125 65.99479ZM368.54688 62.93229Q368.54688 64.18229 368.125 65.11979Q367.70312 66.041664 366.92188 66.541664Q366.15625 67.041664 365.125 67.041664Q364.125 67.041664 363.34375 66.541664Q362.5625 66.041664 362.125 65.135414Q361.70312 64.21354 361.6875 62.99479L361.6875 62.385414Q361.6875 61.15104 362.10938 60.21354Q362.54688 59.27604 363.32812 58.77604Q364.10938 58.260414 365.125 58.260414Q366.14062 58.260414 366.92188 58.760414Q367.70312 59.260414 368.125 60.197914Q368.54688 61.135414 368.54688 62.385414L368.54688 62.93229ZM367.4375 62.36979Q367.4375 60.854164 366.82812 60.041664Q366.21875 59.229164 365.125 59.229164Q364.04688 59.229164 363.4375 60.041664Q362.82812 60.854164 362.8125 62.291664L362.8125 62.93229Q362.8125 64.40104 363.42188 65.24479Q364.04688 66.072914 365.125 66.072914Q366.21875 66.072914 366.8125 65.291664Q367.42188 64.49479 367.4375 63.010414L367.4375 62.36979ZM374.70312 64.68229L371.125 64.68229L370.32812 66.916664L369.17188 66.916664L372.42188 58.385414L373.40625 58.385414L376.67188 66.916664L375.51562 66.916664L374.70312 64.68229ZM371.46875 63.760414L374.375 63.760414L372.92188 59.77604L371.46875 63.760414ZM377.98438 66.916664L377.98438 58.385414L380.40625 58.385414Q381.51562 58.385414 382.35938 58.885414Q383.21875 59.36979 383.6875 60.27604Q384.15625 61.18229 384.15625 62.36979L384.15625 62.90104Q384.15625 64.11979 383.6875 65.02604Q383.23438 65.93229 382.35938 66.416664Q381.5 66.90104 380.35938 66.916664L377.98438 66.916664ZM379.10938 59.30729L379.10938 65.99479L380.29688 65.99479Q381.59375 65.99479 382.3125 65.197914Q383.04688 64.385414 383.04688 62.885414L383.04688 62.385414Q383.04688 60.93229 382.35938 60.135414Q381.6875 59.322914 380.42188 59.30729L379.10938 59.30729ZM391.29688 66.916664L385.70312 66.916664L385.70312 66.135414L388.65625 62.854164Q389.3125 62.104164 389.5625 61.65104Q389.8125 61.18229 389.8125 60.68229Q389.8125 60.010414 389.40625 59.58854Q389.01562 59.15104 388.32812 59.15104Q387.53125 59.15104 387.07812 59.61979Q386.625 60.072914 386.625 60.90104L385.54688 60.90104Q385.54688 59.71354 386.29688 58.99479Q387.0625 58.260414 388.32812 58.260414Q389.53125 58.260414 390.21875 58.885414Q390.90625 59.510414 390.90625 60.55729Q390.90625 61.80729 389.29688 63.55729L387.01562 66.02604L391.29688 66.02604L391.29688 66.916664ZM398.07812 63.729164L395.21875 63.729164L395.21875 62.854164L398.07812 62.854164L398.07812 63.729164ZM403.4375 58.385414L406.23438 65.33854L409.01562 58.385414L410.48438 58.385414L410.48438 66.916664L409.35938 66.916664L409.35938 63.58854L409.46875 60.010414L406.65625 66.916664L405.79688 66.916664L403.0 60.02604L403.10938 63.58854L403.10938 66.916664L401.98438 66.916664L401.98438 58.385414L403.4375 58.385414ZM415.73438 66.916664Q415.64062 66.729164 415.57812 66.24479Q414.82812 67.041664 413.78125 67.041664Q412.84375 67.041664 412.23438 66.510414Q411.64062 65.979164 411.64062 65.15104Q411.64062 64.166664 412.39062 63.61979Q413.14062 63.072914 414.51562 63.072914L415.5625 63.072914L415.5625 62.572914Q415.5625 62.010414 415.21875 61.68229Q414.89062 61.33854 414.21875 61.33854Q413.64062 61.33854 413.25 61.635414Q412.85938 61.916664 412.85938 62.33854L411.76562 62.33854Q411.76562 61.854164 412.09375 61.416664Q412.4375 60.979164 413.01562 60.729164Q413.59375 60.46354 414.28125 60.46354Q415.39062 60.46354 416.0 61.010414Q416.625 61.55729 416.65625 62.510414L416.65625 65.43229Q416.65625 66.30729 416.875 66.822914L416.875 66.916664L415.73438 66.916664ZM413.9375 66.08854Q414.45312 66.08854 414.90625 65.822914Q415.35938 65.55729 415.5625 65.135414L415.5625 63.83854L414.71875 63.83854Q412.71875 63.83854 412.71875 65.010414Q412.71875 65.510414 413.0625 65.80729Q413.40625 66.08854 413.9375 66.08854ZM424.17188 63.822914Q424.17188 65.260414 423.51562 66.15104Q422.85938 67.041664 421.71875 67.041664Q420.5625 67.041664 419.90625 66.30729L419.90625 69.354164L418.82812 69.354164L418.82812 60.572914L419.8125 60.572914L419.85938 61.27604Q420.53125 60.46354 421.70312 60.46354Q422.84375 60.46354 423.5 61.322914Q424.17188 62.18229 424.17188 63.71354L424.17188 63.822914ZM423.09375 63.697914Q423.09375 62.61979 422.625 62.010414Q422.17188 61.385414 421.375 61.385414Q420.39062 61.385414 419.90625 62.24479L419.90625 65.27604Q420.39062 66.15104 421.39062 66.15104Q422.17188 66.15104 422.625 65.541664Q423.09375 64.916664 423.09375 63.697914Z" fill-rule="nonzero"/><path fill="#757575" d="M24.39375 31.20625Q21.971874 30.51875 20.878124 29.51875Q19.784374 28.503124 19.784374 27.01875Q19.784374 25.33125 21.128124 24.2375Q22.471874 23.128124 24.6125 23.128124Q26.08125 23.128124 27.221874 23.70625Q28.378124 24.26875 29.003124 25.26875Q29.628124 26.253124 29.628124 27.440624L27.753124 27.440624Q27.753124 26.159374 26.925 25.425Q26.1125 24.675 24.6125 24.675Q23.221874 24.675 22.440624 25.284374Q21.675 25.89375 21.675 26.9875Q21.675 27.846874 22.409374 28.45625Q23.14375 29.05 24.909374 29.55Q26.690624 30.05 27.690624 30.659374Q28.690624 31.253124 29.175 32.05Q29.659374 32.846874 29.659374 33.940624Q29.659374 35.659374 28.315624 36.70625Q26.971874 37.753124 24.70625 37.753124Q23.253124 37.753124 21.971874 37.190624Q20.70625 36.628124 20.01875 35.659374Q19.33125 34.675 19.33125 33.425L21.221874 33.425Q21.221874 34.721874 22.175 35.471874Q23.128124 36.20625 24.70625 36.20625Q26.190624 36.20625 26.9875 35.6125Q27.784374 35.003124 27.784374 33.95625Q27.784374 32.909374 27.05 32.346874Q26.315624 31.76875 24.39375 31.20625ZM34.3625 24.425L34.3625 26.9875L36.346874 26.9875L36.346874 28.378124L34.3625 28.378124L34.3625 34.925Q34.3625 35.565624 34.628124 35.89375Q34.89375 36.20625 35.534374 36.20625Q35.846874 36.20625 36.39375 36.08125L36.39375 37.55Q35.675 37.753124 35.003124 37.753124Q33.8 37.753124 33.175 37.01875Q32.565624 36.284374 32.565624 34.925L32.565624 28.378124L30.64375 28.378124L30.64375 26.9875L32.565624 26.9875L32.565624 24.425L34.3625 24.425ZM38.440624 32.175Q38.440624 30.6125 39.05 29.378124Q39.659374 28.128124 40.7375 27.45625Q41.83125 26.784374 43.2375 26.784374Q45.39375 26.784374 46.721874 28.284374Q48.065624 29.76875 48.065624 32.253124L48.065624 32.378124Q48.065624 33.925 47.471874 35.159374Q46.878124 36.378124 45.76875 37.065624Q44.675 37.753124 43.253124 37.753124Q41.1125 37.753124 39.76875 36.253124Q38.440624 34.753124 38.440624 32.3L38.440624 32.175ZM40.253124 32.378124Q40.253124 34.14375 41.065624 35.20625Q41.89375 36.26875 43.253124 36.26875Q44.628124 36.26875 45.440624 35.190624Q46.253124 34.1125 46.253124 32.175Q46.253124 30.425 45.425 29.346874Q44.596874 28.26875 43.2375 28.26875Q41.89375 28.26875 41.065624 29.33125Q40.253124 30.39375 40.253124 32.378124ZM55.01875 28.596874Q54.6125 28.534374 54.14375 28.534374Q52.3625 28.534374 51.721874 30.05L51.721874 37.55L49.925 37.55L49.925 26.9875L51.675 26.9875L51.70625 28.20625Q52.596874 26.784374 54.221874 26.784374Q54.753124 26.784374 55.01875 26.925L55.01875 28.596874ZM63.440624 37.55Q63.284374 37.2375 63.190624 36.440624Q61.925 37.753124 60.175 37.753124Q58.6125 37.753124 57.6125 36.8625Q56.6125 35.971874 56.6125 34.6125Q56.6125 32.971874 57.8625 32.065624Q59.128124 31.14375 61.39375 31.14375L63.159374 31.14375L63.159374 30.315624Q63.159374 29.3625 62.58125 28.8Q62.01875 28.2375 60.925 28.2375Q59.95625 28.2375 59.3 28.7375Q58.64375 29.221874 58.64375 29.909374L56.83125 29.909374Q56.83125 29.128124 57.39375 28.39375Q57.95625 27.64375 58.909374 27.221874Q59.878124 26.784374 61.034374 26.784374Q62.8625 26.784374 63.89375 27.70625Q64.925 28.6125 64.97188 30.221874L64.97188 35.08125Q64.97188 36.534374 65.33125 37.39375L65.33125 37.55L63.440624 37.55ZM60.440624 36.175Q61.3 36.175 62.05 35.7375Q62.815624 35.3 63.159374 34.596874L63.159374 32.425L61.7375 32.425Q58.425 32.425 58.425 34.3625Q58.425 35.221874 58.9875 35.70625Q59.55 36.175 60.440624 36.175ZM67.4875 32.175Q67.4875 29.70625 68.62813 28.253124Q69.76875 26.784374 71.65938 26.784374Q73.59688 26.784374 74.675 28.159374L74.76875 26.9875L76.40938 26.9875L76.40938 37.3Q76.40938 39.346874 75.19063 40.51875Q73.9875 41.70625 71.925 41.70625Q70.78438 41.70625 69.69063 41.221874Q68.59688 40.7375 68.01875 39.878124L68.95625 38.8Q70.12813 40.2375 71.8 40.2375Q73.12813 40.2375 73.8625 39.4875Q74.59688 38.753124 74.59688 37.409374L74.59688 36.4875Q73.51875 37.753124 71.64375 37.753124Q69.78438 37.753124 68.62813 36.253124Q67.4875 34.753124 67.4875 32.175ZM69.3 32.378124Q69.3 34.175 70.03438 35.190624Q70.76875 36.20625 72.08125 36.20625Q73.8 36.20625 74.59688 34.659374L74.59688 29.83125Q73.76875 28.315624 72.1125 28.315624Q70.78438 28.315624 70.03438 29.346874Q69.3 30.378124 69.3 32.378124ZM83.3 37.753124Q81.15938 37.753124 79.8 36.346874Q78.45625 34.925 78.45625 32.565624L78.45625 32.221874Q78.45625 30.659374 79.05 29.425Q79.65938 28.190624 80.7375 27.4875Q81.81563 26.784374 83.08125 26.784374Q85.14375 26.784374 86.28438 28.14375Q87.425 29.503124 87.425 32.034374L87.425 32.784374L80.26875 32.784374Q80.3 34.346874 81.175 35.315624Q82.05 36.26875 83.39375 36.26875Q84.3625 36.26875 85.01875 35.878124Q85.69063 35.4875 86.19063 34.846874L87.28438 35.70625Q85.95625 37.753124 83.3 37.753124ZM83.08125 28.26875Q81.9875 28.26875 81.2375 29.065624Q80.50313 29.8625 80.33125 31.3L85.6125 31.3L85.6125 31.159374Q85.53438 29.784374 84.8625 29.034374Q84.20625 28.26875 83.08125 28.26875ZM100.40938 31.8L97.08125 31.8L97.08125 37.55L95.19063 37.55L95.19063 23.33125L99.89375 23.33125Q102.3 23.33125 103.59688 24.425Q104.89375 25.51875 104.89375 27.6125Q104.89375 28.940624 104.175 29.925Q103.45625 30.909374 102.175 31.39375L105.51875 37.425L105.51875 37.55L103.50313 37.55L100.40938 31.8ZM97.08125 30.26875L99.95625 30.26875Q101.34688 30.26875 102.175 29.55Q103.00313 28.815624 103.00313 27.6125Q103.00313 26.284374 102.20625 25.58125Q101.425 24.878124 99.94063 24.878124L97.08125 24.878124L97.08125 30.26875ZM115.2375 30.971874L109.08125 30.971874L109.08125 36.01875L116.2375 36.01875L116.2375 37.55L107.20625 37.55L107.20625 23.33125L116.14375 23.33125L116.14375 24.878124L109.08125 24.878124L109.08125 29.440624L115.2375 29.440624L115.2375 30.971874ZM126.05 33.83125L120.09688 33.83125L118.75313 37.55L116.83125 37.55L122.25313 23.33125L123.89375 23.33125L129.33125 37.55L127.40938 37.55L126.05 33.83125ZM120.65938 32.3L125.50313 32.3L123.08125 25.64375L120.65938 32.3ZM131.20625 37.55L131.20625 23.33125L135.22188 23.33125Q137.06563 23.33125 138.4875 24.159374Q139.925 24.971874 140.69063 26.4875Q141.47188 28.003124 141.4875 29.95625L141.4875 30.8625Q141.4875 32.878124 140.70625 34.39375Q139.925 35.909374 138.4875 36.721874Q137.05 37.534374 135.14375 37.55L131.20625 37.55ZM133.08125 24.878124L133.08125 36.01875L135.05 36.01875Q137.22188 36.01875 138.425 34.675Q139.62813 33.315624 139.62813 30.83125L139.62813 30.003124Q139.62813 27.58125 138.4875 26.2375Q137.34688 24.89375 135.26875 24.878124L133.08125 24.878124ZM153.15938 36.26875Q154.12813 36.26875 154.84688 35.690624Q155.56563 35.096874 155.64375 34.221874L157.3625 34.221874Q157.3 35.128124 156.72188 35.95625Q156.15938 36.76875 155.19063 37.26875Q154.2375 37.753124 153.15938 37.753124Q151.00313 37.753124 149.72188 36.315624Q148.45625 34.8625 148.45625 32.3625L148.45625 32.065624Q148.45625 30.51875 149.01875 29.315624Q149.58125 28.1125 150.64375 27.45625Q151.70625 26.784374 153.14375 26.784374Q154.925 26.784374 156.09688 27.846874Q157.28438 28.909374 157.3625 30.6125L155.64375 30.6125Q155.56563 29.596874 154.8625 28.940624Q154.175 28.26875 153.14375 28.26875Q151.76875 28.26875 151.00313 29.26875Q150.25313 30.253124 150.25313 32.128124L150.25313 32.471874Q150.25313 34.3 151.00313 35.284374Q151.75313 36.26875 153.15938 36.26875ZM158.44063 32.175Q158.44063 30.6125 159.05 29.378124Q159.65938 28.128124 160.7375 27.45625Q161.83125 26.784374 163.2375 26.784374Q165.39375 26.784374 166.72188 28.284374Q168.06563 29.76875 168.06563 32.253124L168.06563 32.378124Q168.06563 33.925 167.47188 35.159374Q166.87813 36.378124 165.76875 37.065624Q164.675 37.753124 163.25313 37.753124Q161.1125 37.753124 159.76875 36.253124Q158.44063 34.753124 158.44063 32.3L158.44063 32.175ZM160.25313 32.378124Q160.25313 34.14375 161.06563 35.20625Q161.89375 36.26875 163.25313 36.26875Q164.62813 36.26875 165.44063 35.190624Q166.25313 34.1125 166.25313 32.175Q166.25313 30.425 165.425 29.346874Q164.59688 28.26875 163.2375 28.26875Q161.89375 28.26875 161.06563 29.33125Q160.25313 30.39375 160.25313 32.378124ZM176.06563 34.753124Q176.06563 34.01875 175.51875 33.6125Q174.97188 33.20625 173.59688 32.909374Q172.22188 32.6125 171.40938 32.20625Q170.6125 31.8 170.22188 31.2375Q169.84688 30.659374 169.84688 29.878124Q169.84688 28.58125 170.94063 27.690624Q172.03438 26.784374 173.75313 26.784374Q175.55 26.784374 176.65938 27.721874Q177.78438 28.64375 177.78438 30.08125L175.95625 30.08125Q175.95625 29.346874 175.33125 28.815624Q174.70625 28.26875 173.75313 28.26875Q172.75313 28.26875 172.19063 28.70625Q171.64375 29.128124 171.64375 29.83125Q171.64375 30.471874 172.15938 30.815624Q172.675 31.14375 174.03438 31.45625Q175.39375 31.753124 176.22188 32.175Q177.06563 32.58125 177.47188 33.175Q177.87813 33.76875 177.87813 34.6125Q177.87813 36.034374 176.7375 36.89375Q175.6125 37.753124 173.8 37.753124Q172.53438 37.753124 171.55 37.3Q170.58125 36.846874 170.01875 36.05Q169.47188 35.2375 169.47188 34.3L171.28438 34.3Q171.33125 35.20625 172.00313 35.7375Q172.69063 36.26875 173.8 36.26875Q174.83125 36.26875 175.44063 35.8625Q176.06563 35.440624 176.06563 34.753124ZM182.3625 24.425L182.3625 26.9875L184.34688 26.9875L184.34688 28.378124L182.3625 28.378124L182.3625 34.925Q182.3625 35.565624 182.62813 35.89375Q182.89375 36.20625 183.53438 36.20625Q183.84688 36.20625 184.39375 36.08125L184.39375 37.55Q183.675 37.753124 183.00313 37.753124Q181.8 37.753124 181.175 37.01875Q180.56563 36.284374 180.56563 34.925L180.56563 28.378124L178.64375 28.378124L178.64375 26.9875L180.56563 26.9875L180.56563 24.425L182.3625 24.425Z" fill-rule="nonzero"/></svg>