<svg version="1.1" viewBox="0.0 0.0 600.0 371.0" fill="none" stroke="none" stroke-linecap="square" stroke-miterlimit="10" xmlns:xlink="http://www.w3.org/1999/xlink" xmlns="http://www.w3.org/2000/svg"><path fill="#ffffff" d="M0 0L600.0 0L600.0 371.0L0 371.0L0 0Z" fill-rule="nonzero"/><path stroke="#333333" stroke-width="1.0" stroke-linecap="butt" d="M85.5 82.5L85.5 298.5" fill-rule="nonzero"/><path stroke="#cccccc" stroke-width="1.0" stroke-linecap="butt" d="M209.5 82.5L209.5 298.5" fill-rule="nonzero"/><path stroke="#cccccc" stroke-width="1.0" stroke-linecap="butt" d="M333.5 82.5L333.5 298.5" fill-rule="nonzero"/><path stroke="#cccccc" stroke-width="1.0" stroke-linecap="butt" d="M457.5 82.5L457.5 298.5" fill-rule="nonzero"/><path stroke="#cccccc" stroke-width="1.0" stroke-linecap="butt" d="M581.5 82.5L581.5 298.5" fill-rule="nonzero"/><clipPath id="id_0"><path d="M85.55 82.28333L581.45 82.28333L581.45 298.45L85.55 298.45L85.55 82.28333Z" clip-rule="nonzero"/></clipPath><path stroke="#000000" stroke-width="2.0" stroke-linecap="butt" stroke-opacity="0.0" clip-path="url(#id_0)" d="M86.0 96.0L86.0 92.0L208.0 92.0C209.10457 92.0 210.0 92.89543 210.0 94.0L210.0 94.0C210.0 95.10457 209.10457 96.0 208.0 96.0Z" fill-rule="nonzero"/><path fill="#4285f4" clip-path="url(#id_0)" d="M86.0 96.0L86.0 92.0L208.0 92.0C209.10457 92.0 210.0 92.89543 210.0 94.0L210.0 94.0C210.0 95.10457 209.10457 96.0 208.0 96.0Z" fill-rule="nonzero"/><path stroke="#000000" stroke-width="2.0" stroke-linecap="butt" stroke-opacity="0.0" clip-path="url(#id_0)" d="M86.0 122.0L86.0 118.0L220.0 118.0C221.10457 118.0 222.0 118.89543 222.0 120.0L222.0 120.0C222.0 121.10457 221.10457 122.0 220.0 122.0Z" fill-rule="nonzero"/><path fill="#4285f4" clip-path="url(#id_0)" d="M86.0 122.0L86.0 118.0L220.0 118.0C221.10457 118.0 222.0 118.89543 222.0 120.0L222.0 120.0C222.0 121.10457 221.10457 122.0 220.0 122.0Z" fill-rule="nonzero"/><path stroke="#000000" stroke-width="2.0" stroke-linecap="butt" stroke-opacity="0.0" clip-path="url(#id_0)" d="M86.0 148.0L86.0 144.0L231.0 144.0C232.10457 144.0 233.0 144.89543 233.0 146.0L233.0 146.0C233.0 147.10457 232.10457 148.0 231.0 148.0Z" fill-rule="nonzero"/><path fill="#4285f4" clip-path="url(#id_0)" d="M86.0 148.0L86.0 144.0L231.0 144.0C232.10457 144.0 233.0 144.89543 233.0 146.0L233.0 146.0C233.0 147.10457 232.10457 148.0 231.0 148.0Z" fill-rule="nonzero"/><path stroke="#000000" stroke-width="2.0" stroke-linecap="butt" stroke-opacity="0.0" clip-path="url(#id_0)" d="M86.0 173.0L86.0 169.0L242.0 169.0C243.10457 169.0 244.0 169.89543 244.0 171.0L244.0 171.0C244.0 172.10457 243.10457 173.0 242.0 173.0Z" fill-rule="nonzero"/><path fill="#4285f4" clip-path="url(#id_0)" d="M86.0 173.0L86.0 169.0L242.0 169.0C243.10457 169.0 244.0 169.89543 244.0 171.0L244.0 171.0C244.0 172.10457 243.10457 173.0 242.0 173.0Z" fill-rule="nonzero"/><path stroke="#000000" stroke-width="2.0" stroke-linecap="butt" stroke-opacity="0.0" clip-path="url(#id_0)" d="M86.0 199.0L86.0 195.0L253.0 195.0C254.10457 195.0 255.0 195.89543 255.0 197.0L255.0 197.0C255.0 198.10457 254.10457 199.0 253.0 199.0Z" fill-rule="nonzero"/><path fill="#4285f4" clip-path="url(#id_0)" d="M86.0 199.0L86.0 195.0L253.0 195.0C254.10457 195.0 255.0 195.89543 255.0 197.0L255.0 197.0C255.0 198.10457 254.10457 199.0 253.0 199.0Z" fill-rule="nonzero"/><path stroke="#000000" stroke-width="2.0" stroke-linecap="butt" stroke-opacity="0.0" clip-path="url(#id_0)" d="M86.0 225.0L86.0 221.0L297.0 221.0C298.10458 221.0 299.0 221.89543 299.0 223.0L299.0 223.0C299.0 224.10457 298.10458 225.0 297.0 225.0Z" fill-rule="nonzero"/><path fill="#4285f4" clip-path="url(#id_0)" d="M86.0 225.0L86.0 221.0L297.0 221.0C298.10458 221.0 299.0 221.89543 299.0 223.0L299.0 223.0C299.0 224.10457 298.10458 225.0 297.0 225.0Z" fill-rule="nonzero"/><path stroke="#000000" stroke-width="2.0" stroke-linecap="butt" stroke-opacity="0.0" clip-path="url(#id_0)" d="M86.0 251.0L86.0 247.0L386.0 247.0C387.10458 247.0 388.0 247.89543 388.0 249.0L388.0 249.0C388.0 250.10457 387.10458 251.0 386.0 251.0Z" fill-rule="nonzero"/><path fill="#4285f4" clip-path="url(#id_0)" d="M86.0 251.0L86.0 247.0L386.0 247.0C387.10458 247.0 388.0 247.89543 388.0 249.0L388.0 249.0C388.0 250.10457 387.10458 251.0 386.0 251.0Z" fill-rule="nonzero"/><path stroke="#000000" stroke-width="2.0" stroke-linecap="butt" stroke-opacity="0.0" clip-path="url(#id_0)" d="M86.0 277.0L86.0 273.0L563.0 273.0C564.10455 273.0 565.0 273.89542 565.0 275.0L565.0 275.0C565.0 276.10458 564.10455 277.0 563.0 277.0Z" fill-rule="nonzero"/><path fill="#4285f4" clip-path="url(#id_0)" d="M86.0 277.0L86.0 273.0L563.0 273.0C564.10455 273.0 565.0 273.89542 565.0 275.0L565.0 275.0C565.0 276.10458 564.10455 277.0 563.0 277.0Z" fill-rule="nonzero"/><path stroke="#000000" stroke-width="2.0" stroke-linecap="butt" stroke-opacity="0.0" clip-path="url(#id_0)" d="M86.0 102.0L86.0 98.0L210.0 98.0C211.10457 98.0 212.0 98.89543 212.0 100.0L212.0 100.0C212.0 101.10457 211.10457 102.0 210.0 102.0Z" fill-rule="nonzero"/><path fill="#db4437" clip-path="url(#id_0)" d="M86.0 102.0L86.0 98.0L210.0 98.0C211.10457 98.0 212.0 98.89543 212.0 100.0L212.0 100.0C212.0 101.10457 211.10457 102.0 210.0 102.0Z" fill-rule="nonzero"/><path stroke="#000000" stroke-width="2.0" stroke-linecap="butt" stroke-opacity="0.0" clip-path="url(#id_0)" d="M86.0 128.0L86.0 124.0L211.0 124.0C212.10457 124.0 213.0 124.89543 213.0 126.0L213.0 126.0C213.0 127.10457 212.10457 128.0 211.0 128.0Z" fill-rule="nonzero"/><path fill="#db4437" clip-path="url(#id_0)" d="M86.0 128.0L86.0 124.0L211.0 124.0C212.10457 124.0 213.0 124.89543 213.0 126.0L213.0 126.0C213.0 127.10457 212.10457 128.0 211.0 128.0Z" fill-rule="nonzero"/><path stroke="#000000" stroke-width="2.0" stroke-linecap="butt" stroke-opacity="0.0" clip-path="url(#id_0)" d="M86.0 154.0L86.0 150.0L211.0 150.0C212.10457 150.0 213.0 150.89543 213.0 152.0L213.0 152.0C213.0 153.10457 212.10457 154.0 211.0 154.0Z" fill-rule="nonzero"/><path fill="#db4437" clip-path="url(#id_0)" d="M86.0 154.0L86.0 150.0L211.0 150.0C212.10457 150.0 213.0 150.89543 213.0 152.0L213.0 152.0C213.0 153.10457 212.10457 154.0 211.0 154.0Z" fill-rule="nonzero"/><path stroke="#000000" stroke-width="2.0" stroke-linecap="butt" stroke-opacity="0.0" clip-path="url(#id_0)" d="M86.0 179.0L86.0 175.0L211.0 175.0C212.10457 175.0 213.0 175.89543 213.0 177.0L213.0 177.0C213.0 178.10457 212.10457 179.0 211.0 179.0Z" fill-rule="nonzero"/><path fill="#db4437" clip-path="url(#id_0)" d="M86.0 179.0L86.0 175.0L211.0 175.0C212.10457 175.0 213.0 175.89543 213.0 177.0L213.0 177.0C213.0 178.10457 212.10457 179.0 211.0 179.0Z" fill-rule="nonzero"/><path stroke="#000000" stroke-width="2.0" stroke-linecap="butt" stroke-opacity="0.0" clip-path="url(#id_0)" d="M86.0 205.0L86.0 201.0L212.0 201.0C213.10457 201.0 214.0 201.89543 214.0 203.0L214.0 203.0C214.0 204.10457 213.10457 205.0 212.0 205.0Z" fill-rule="nonzero"/><path fill="#db4437" clip-path="url(#id_0)" d="M86.0 205.0L86.0 201.0L212.0 201.0C213.10457 201.0 214.0 201.89543 214.0 203.0L214.0 203.0C214.0 204.10457 213.10457 205.0 212.0 205.0Z" fill-rule="nonzero"/><path stroke="#000000" stroke-width="2.0" stroke-linecap="butt" stroke-opacity="0.0" clip-path="url(#id_0)" d="M86.0 231.0L86.0 227.0L214.0 227.0C215.10457 227.0 216.0 227.89543 216.0 229.0L216.0 229.0C216.0 230.10457 215.10457 231.0 214.0 231.0Z" fill-rule="nonzero"/><path fill="#db4437" clip-path="url(#id_0)" d="M86.0 231.0L86.0 227.0L214.0 227.0C215.10457 227.0 216.0 227.89543 216.0 229.0L216.0 229.0C216.0 230.10457 215.10457 231.0 214.0 231.0Z" fill-rule="nonzero"/><path stroke="#000000" stroke-width="2.0" stroke-linecap="butt" stroke-opacity="0.0" clip-path="url(#id_0)" d="M86.0 257.0L86.0 253.0L217.0 253.0C218.10457 253.0 219.0 253.89543 219.0 255.0L219.0 255.0C219.0 256.10458 218.10457 257.0 217.0 257.0Z" fill-rule="nonzero"/><path fill="#db4437" clip-path="url(#id_0)" d="M86.0 257.0L86.0 253.0L217.0 253.0C218.10457 253.0 219.0 253.89543 219.0 255.0L219.0 255.0C219.0 256.10458 218.10457 257.0 217.0 257.0Z" fill-rule="nonzero"/><path stroke="#000000" stroke-width="2.0" stroke-linecap="butt" stroke-opacity="0.0" clip-path="url(#id_0)" d="M86.0 283.0L86.0 279.0L224.0 279.0C225.10457 279.0 226.0 279.89542 226.0 281.0L226.0 281.0C226.0 282.10458 225.10457 283.0 224.0 283.0Z" fill-rule="nonzero"/><path fill="#db4437" clip-path="url(#id_0)" d="M86.0 283.0L86.0 279.0L224.0 279.0C225.10457 279.0 226.0 279.89542 226.0 281.0L226.0 281.0C226.0 282.10458 225.10457 283.0 224.0 283.0Z" fill-rule="nonzero"/><path stroke="#000000" stroke-width="2.0" stroke-linecap="butt" stroke-opacity="0.0" clip-path="url(#id_0)" d="M86.0 108.0L86.0 104.0L221.0 104.0C222.10457 104.0 223.0 104.89543 223.0 106.0L223.0 106.0C223.0 107.10457 222.10457 108.0 221.0 108.0Z" fill-rule="nonzero"/><path fill="#f4b400" clip-path="url(#id_0)" d="M86.0 108.0L86.0 104.0L221.0 104.0C222.10457 104.0 223.0 104.89543 223.0 106.0L223.0 106.0C223.0 107.10457 222.10457 108.0 221.0 108.0Z" fill-rule="nonzero"/><path stroke="#000000" stroke-width="2.0" stroke-linecap="butt" stroke-opacity="0.0" clip-path="url(#id_0)" d="M86.0 134.0L86.0 130.0L222.0 130.0C223.10457 130.0 224.0 130.89543 224.0 132.0L224.0 132.0C224.0 133.10457 223.10457 134.0 222.0 134.0Z" fill-rule="nonzero"/><path fill="#f4b400" clip-path="url(#id_0)" d="M86.0 134.0L86.0 130.0L222.0 130.0C223.10457 130.0 224.0 130.89543 224.0 132.0L224.0 132.0C224.0 133.10457 223.10457 134.0 222.0 134.0Z" fill-rule="nonzero"/><path stroke="#000000" stroke-width="2.0" stroke-linecap="butt" stroke-opacity="0.0" clip-path="url(#id_0)" d="M86.0 160.0L86.0 156.0L222.0 156.0C223.10457 156.0 224.0 156.89543 224.0 158.0L224.0 158.0C224.0 159.10457 223.10457 160.0 222.0 160.0Z" fill-rule="nonzero"/><path fill="#f4b400" clip-path="url(#id_0)" d="M86.0 160.0L86.0 156.0L222.0 156.0C223.10457 156.0 224.0 156.89543 224.0 158.0L224.0 158.0C224.0 159.10457 223.10457 160.0 222.0 160.0Z" fill-rule="nonzero"/><path stroke="#000000" stroke-width="2.0" stroke-linecap="butt" stroke-opacity="0.0" clip-path="url(#id_0)" d="M86.0 185.0L86.0 181.0L222.0 181.0C223.10457 181.0 224.0 181.89543 224.0 183.0L224.0 183.0C224.0 184.10457 223.10457 185.0 222.0 185.0Z" fill-rule="nonzero"/><path fill="#f4b400" clip-path="url(#id_0)" d="M86.0 185.0L86.0 181.0L222.0 181.0C223.10457 181.0 224.0 181.89543 224.0 183.0L224.0 183.0C224.0 184.10457 223.10457 185.0 222.0 185.0Z" fill-rule="nonzero"/><path stroke="#000000" stroke-width="2.0" stroke-linecap="butt" stroke-opacity="0.0" clip-path="url(#id_0)" d="M86.0 211.0L86.0 207.0L223.0 207.0C224.10457 207.0 225.0 207.89543 225.0 209.0L225.0 209.0C225.0 210.10457 224.10457 211.0 223.0 211.0Z" fill-rule="nonzero"/><path fill="#f4b400" clip-path="url(#id_0)" d="M86.0 211.0L86.0 207.0L223.0 207.0C224.10457 207.0 225.0 207.89543 225.0 209.0L225.0 209.0C225.0 210.10457 224.10457 211.0 223.0 211.0Z" fill-rule="nonzero"/><path stroke="#000000" stroke-width="2.0" stroke-linecap="butt" stroke-opacity="0.0" clip-path="url(#id_0)" d="M86.0 237.0L86.0 233.0L224.0 233.0C225.10457 233.0 226.0 233.89543 226.0 235.0L226.0 235.0C226.0 236.10457 225.10457 237.0 224.0 237.0Z" fill-rule="nonzero"/><path fill="#f4b400" clip-path="url(#id_0)" d="M86.0 237.0L86.0 233.0L224.0 233.0C225.10457 233.0 226.0 233.89543 226.0 235.0L226.0 235.0C226.0 236.10457 225.10457 237.0 224.0 237.0Z" fill-rule="nonzero"/><path stroke="#000000" stroke-width="2.0" stroke-linecap="butt" stroke-opacity="0.0" clip-path="url(#id_0)" d="M86.0 263.0L86.0 259.0L228.0 259.0C229.10457 259.0 230.0 259.89542 230.0 261.0L230.0 261.0C230.0 262.10458 229.10457 263.0 228.0 263.0Z" fill-rule="nonzero"/><path fill="#f4b400" clip-path="url(#id_0)" d="M86.0 263.0L86.0 259.0L228.0 259.0C229.10457 259.0 230.0 259.89542 230.0 261.0L230.0 261.0C230.0 262.10458 229.10457 263.0 228.0 263.0Z" fill-rule="nonzero"/><path stroke="#000000" stroke-width="2.0" stroke-linecap="butt" stroke-opacity="0.0" clip-path="url(#id_0)" d="M86.0 289.0L86.0 285.0L235.0 285.0C236.10457 285.0 237.0 285.89542 237.0 287.0L237.0 287.0C237.0 288.10458 236.10457 289.0 235.0 289.0Z" fill-rule="nonzero"/><path fill="#f4b400" clip-path="url(#id_0)" d="M86.0 289.0L86.0 285.0L235.0 285.0C236.10457 285.0 237.0 285.89542 237.0 287.0L237.0 287.0C237.0 288.10458 236.10457 289.0 235.0 289.0Z" fill-rule="nonzero"/><path fill="#424242" d="M317.29688 348.325Q316.85938 348.95 316.07812 349.2625Q315.29688 349.575 314.26562 349.575Q313.23438 349.575 312.42188 349.09064Q311.60938 348.59064 311.17188 347.6844Q310.73438 346.77814 310.71875 345.59064L310.71875 344.85626Q310.71875 342.91876 311.60938 341.85626Q312.51562 340.79376 314.14062 340.79376Q315.48438 340.79376 316.29688 341.48126Q317.10938 342.16876 317.29688 343.41876L316.17188 343.41876Q315.84375 341.73126 314.15625 341.73126Q313.01562 341.73126 312.4375 342.52814Q311.85938 343.3094 311.84375 344.825L311.84375 345.5125Q311.84375 346.95 312.5 347.8094Q313.15625 348.65314 314.28125 348.65314Q314.90625 348.65314 315.375 348.5125Q315.85938 348.3719 316.17188 348.02814L316.17188 346.1219L314.20312 346.1219L314.20312 345.2L317.29688 345.2L317.29688 348.325ZM322.73438 349.45Q322.64062 349.2625 322.57812 348.77814Q321.82812 349.575 320.78125 349.575Q319.84375 349.575 319.23438 349.04376Q318.64062 348.5125 318.64062 347.6844Q318.64062 346.7 319.39062 346.15314Q320.14062 345.60626 321.51562 345.60626L322.5625 345.60626L322.5625 345.10626Q322.5625 344.54376 322.21875 344.21564Q321.89062 343.8719 321.21875 343.8719Q320.64062 343.8719 320.25 344.16876Q319.85938 344.45 319.85938 344.8719L318.76562 344.8719Q318.76562 344.3875 319.09375 343.95Q319.4375 343.5125 320.01562 343.2625Q320.59375 342.9969 321.28125 342.9969Q322.39062 342.9969 323.0 343.54376Q323.625 344.09064 323.65625 345.04376L323.65625 347.96564Q323.65625 348.84064 323.875 349.35626L323.875 349.45L322.73438 349.45ZM320.9375 348.6219Q321.45312 348.6219 321.90625 348.35626Q322.35938 348.09064 322.5625 347.66876L322.5625 346.3719L321.71875 346.3719Q319.71875 346.3719 319.71875 347.54376Q319.71875 348.04376 320.0625 348.34064Q320.40625 348.6219 320.9375 348.6219ZM329.51562 347.7625Q329.51562 347.325 329.17188 347.09064Q328.84375 346.84064 328.01562 346.66876Q327.20312 346.4969 326.71875 346.2469Q326.23438 345.9969 326.0 345.66876Q325.78125 345.325 325.78125 344.85626Q325.78125 344.075 326.4375 343.54376Q327.09375 342.9969 328.125 342.9969Q329.20312 342.9969 329.85938 343.5594Q330.53125 344.10626 330.53125 344.96564L329.45312 344.96564Q329.45312 344.52814 329.0625 344.21564Q328.6875 343.8875 328.125 343.8875Q327.53125 343.8875 327.1875 344.15314Q326.85938 344.40314 326.85938 344.8094Q326.85938 345.2 327.17188 345.40314Q327.48438 345.60626 328.29688 345.79376Q329.10938 345.96564 329.60938 346.21564Q330.10938 346.46564 330.34375 346.825Q330.59375 347.1844 330.59375 347.6844Q330.59375 348.54376 329.90625 349.0594Q329.23438 349.575 328.15625 349.575Q327.39062 349.575 326.79688 349.3094Q326.21875 349.02814 325.89062 348.54376Q325.5625 348.0594 325.5625 347.4969L326.64062 347.4969Q326.67188 348.04376 327.07812 348.3719Q327.48438 348.6844 328.15625 348.6844Q328.76562 348.6844 329.14062 348.4344Q329.51562 348.1844 329.51562 347.7625ZM337.35938 348.6844Q337.9375 348.6844 338.375 348.34064Q338.8125 347.98126 338.85938 347.45L339.89062 347.45Q339.85938 347.9969 339.5 348.4969Q339.15625 348.98126 338.57812 349.27814Q338.01562 349.575 337.35938 349.575Q336.0625 349.575 335.29688 348.71564Q334.54688 347.84064 334.54688 346.34064L334.54688 346.15314Q334.54688 345.23126 334.875 344.5125Q335.21875 343.79376 335.84375 343.40314Q336.48438 342.9969 337.35938 342.9969Q338.42188 342.9969 339.125 343.6375Q339.84375 344.2625 339.89062 345.29376L338.85938 345.29376Q338.8125 344.66876 338.39062 344.27814Q337.96875 343.8875 337.35938 343.8875Q336.53125 343.8875 336.07812 344.48126Q335.625 345.075 335.625 346.2L335.625 346.40314Q335.625 347.4969 336.07812 348.09064Q336.53125 348.6844 337.35938 348.6844ZM340.53125 346.21564Q340.53125 345.29376 340.89062 344.54376Q341.26562 343.79376 341.92188 343.40314Q342.57812 342.9969 343.40625 342.9969Q344.70312 342.9969 345.5 343.8875Q346.3125 344.77814 346.3125 346.27814L346.3125 346.35626Q346.3125 347.27814 345.95312 348.0125Q345.59375 348.7469 344.9375 349.16876Q344.28125 349.575 343.42188 349.575Q342.14062 349.575 341.32812 348.6844Q340.53125 347.77814 340.53125 346.29376L340.53125 346.21564ZM341.625 346.35626Q341.625 347.40314 342.10938 348.04376Q342.60938 348.6844 343.42188 348.6844Q344.25 348.6844 344.73438 348.04376Q345.21875 347.3875 345.21875 346.21564Q345.21875 345.1844 344.71875 344.54376Q344.23438 343.8875 343.40625 343.8875Q342.60938 343.8875 342.10938 344.52814Q341.625 345.15314 341.625 346.35626ZM351.51562 347.7625Q351.51562 347.325 351.17188 347.09064Q350.84375 346.84064 350.01562 346.66876Q349.20312 346.4969 348.71875 346.2469Q348.23438 345.9969 348.0 345.66876Q347.78125 345.325 347.78125 344.85626Q347.78125 344.075 348.4375 343.54376Q349.09375 342.9969 350.125 342.9969Q351.20312 342.9969 351.85938 343.5594Q352.53125 344.10626 352.53125 344.96564L351.45312 344.96564Q351.45312 344.52814 351.0625 344.21564Q350.6875 343.8875 350.125 343.8875Q349.53125 343.8875 349.1875 344.15314Q348.85938 344.40314 348.85938 344.8094Q348.85938 345.2 349.17188 345.40314Q349.48438 345.60626 350.29688 345.79376Q351.10938 345.96564 351.60938 346.21564Q352.10938 346.46564 352.34375 346.825Q352.59375 347.1844 352.59375 347.6844Q352.59375 348.54376 351.90625 349.0594Q351.23438 349.575 350.15625 349.575Q349.39062 349.575 348.79688 349.3094Q348.21875 349.02814 347.89062 348.54376Q347.5625 348.0594 347.5625 347.4969L348.64062 347.4969Q348.67188 348.04376 349.07812 348.3719Q349.48438 348.6844 350.15625 348.6844Q350.76562 348.6844 351.14062 348.4344Q351.51562 348.1844 351.51562 347.7625ZM355.29688 341.575L355.29688 343.10626L356.46875 343.10626L356.46875 343.95L355.29688 343.95L355.29688 347.8719Q355.29688 348.2625 355.45312 348.45Q355.60938 348.6375 355.98438 348.6375Q356.17188 348.6375 356.5 348.575L356.5 349.45Q356.07812 349.575 355.67188 349.575Q354.95312 349.575 354.57812 349.1375Q354.20312 348.6844 354.20312 347.8719L354.20312 343.95L353.04688 343.95L353.04688 343.10626L354.20312 343.10626L354.20312 341.575L355.29688 341.575Z" fill-rule="nonzero"/><path fill="#424242" d="M26.753138 228.36667Q26.331263 229.80417 25.721888 230.47604Q25.112513 231.1323 24.221888 231.1323Q23.221888 231.1323 22.565638 230.33542Q21.893763 229.52292 21.893763 228.22604Q21.893763 227.35104 22.237513 226.66354Q22.581263 225.97604 23.175013 225.60104Q23.768763 225.21042 24.487513 225.21042L24.487513 226.35104Q23.706263 226.35104 23.268763 226.85104Q22.831263 227.33542 22.831263 228.22604Q22.831263 229.05417 23.206263 229.52292Q23.565638 229.99167 24.206263 229.99167Q24.737513 229.99167 25.096888 229.55417Q25.456263 229.10104 25.753138 228.03854Q26.050013 226.97604 26.409388 226.3823Q26.768763 225.77292 27.253138 225.49167Q27.737513 225.1948 28.378138 225.1948Q29.425013 225.1948 30.050013 226.0073Q30.675013 226.8198 30.675013 228.16354Q30.675013 229.05417 30.331263 229.8198Q29.987513 230.5698 29.409388 230.99167Q28.815638 231.39792 28.081263 231.39792L28.081263 230.27292Q28.846888 230.27292 29.300013 229.6948Q29.753138 229.11667 29.753138 228.16354Q29.753138 227.27292 29.393763 226.80417Q29.018763 226.33542 28.393763 226.33542Q27.768763 226.33542 27.425013 226.77292Q27.081263 227.21042 26.753138 228.36667ZM30.550013 222.86667L30.550013 223.9448L24.206263 223.9448L24.206263 222.86667L30.550013 222.86667ZM22.534388 224.03854Q22.268763 224.03854 22.081263 223.8823Q21.893763 223.71042 21.893763 223.39792Q21.893763 223.08542 22.081263 222.92917Q22.268763 222.7573 22.534388 222.7573Q22.784388 222.7573 22.971888 222.92917Q23.143763 223.08542 23.143763 223.39792Q23.143763 223.71042 22.971888 223.8823Q22.784388 224.03854 22.534388 224.03854ZM29.659388 220.02292L29.659388 216.3198L30.550013 216.3198L30.550013 221.35104L29.753138 221.35104L25.112513 217.85104L25.112513 221.30417L24.206263 221.30417L24.206263 216.49167L24.971888 216.49167L29.659388 220.02292ZM30.675013 212.41354Q30.675013 213.71042 29.831263 214.52292Q28.971888 215.3198 27.550013 215.3198L27.362513 215.3198Q26.409388 215.3198 25.675013 214.96042Q24.925013 214.60104 24.518763 213.96042Q24.096888 213.30417 24.096888 212.55417Q24.096888 211.3198 24.909388 210.6323Q25.721888 209.9448 27.237513 209.9448L27.690638 209.9448L27.690638 214.24167Q28.628138 214.21042 29.206263 213.6948Q29.784388 213.16354 29.784388 212.35104Q29.784388 211.78854 29.550013 211.39792Q29.315638 210.99167 28.925013 210.67917L29.440638 210.02292Q30.675013 210.8198 30.675013 212.41354ZM24.987513 212.55417Q24.987513 213.21042 25.471888 213.66354Q25.940638 214.10104 26.800013 214.1948L26.800013 211.02292L26.721888 211.02292Q25.893763 211.0698 25.440638 211.47604Q24.987513 211.86667 24.987513 212.55417ZM27.081263 206.08542Q25.768763 206.08542 24.550013 205.74167Q23.331263 205.3823 22.331263 204.67917Q21.331263 203.97604 20.925013 203.21042L21.643763 202.99167Q22.300013 203.85104 23.643763 204.39792Q24.987513 204.9448 26.659388 204.99167L27.159388 205.0073Q29.425013 205.0073 31.081263 204.17917Q32.08126 203.67917 32.64376 202.99167L33.30001 203.21042Q32.878136 203.99167 31.846888 204.71042Q29.862513 206.08542 27.081263 206.08542ZM27.456263 196.67917Q28.909388 196.67917 29.800013 197.35104Q30.675013 198.0073 30.675013 199.1323Q30.675013 200.33542 29.815638 200.99167L30.550013 201.05417L30.550013 202.03854L21.550013 202.03854L21.550013 200.96042L24.909388 200.96042Q24.096888 200.30417 24.096888 199.14792Q24.096888 197.99167 24.971888 197.33542Q25.831263 196.67917 27.362513 196.67917L27.456263 196.67917ZM27.331263 197.7573Q26.221888 197.7573 25.628138 198.1948Q25.018763 198.61667 25.018763 199.41354Q25.018763 200.49167 26.003138 200.96042L28.753138 200.96042Q29.753138 200.46042 29.753138 199.41354Q29.753138 198.6323 29.143763 198.1948Q28.534388 197.7573 27.331263 197.7573ZM28.956263 192.97604L24.206263 191.49167L24.206263 190.33542L31.534388 192.8823Q33.11251 193.47604 33.11251 194.7573L33.096886 194.97604L33.01876 195.36667L32.14376 195.36667L32.159386 195.08542Q32.159386 194.52292 31.940638 194.22604Q31.721888 193.91354 31.128138 193.71042L30.471888 193.47604L24.206263 195.74167L24.206263 194.55417L28.956263 192.97604ZM22.675013 187.5698L24.206263 187.5698L24.206263 186.39792L25.050013 186.39792L25.050013 187.5698L28.971888 187.5698Q29.362513 187.5698 29.550013 187.41354Q29.737513 187.2573 29.737513 186.8823Q29.737513 186.6948 29.675013 186.36667L30.550013 186.36667Q30.675013 186.78854 30.675013 187.1948Q30.675013 187.91354 30.237513 188.28854Q29.784388 188.66354 28.971888 188.66354L25.050013 188.66354L25.050013 189.8198L24.206263 189.8198L24.206263 188.66354L22.675013 188.66354L22.675013 187.5698ZM30.675013 182.41354Q30.675013 183.71042 29.831263 184.52292Q28.971888 185.3198 27.550013 185.3198L27.362513 185.3198Q26.409388 185.3198 25.675013 184.96042Q24.925013 184.60104 24.518763 183.96042Q24.096888 183.30417 24.096888 182.55417Q24.096888 181.3198 24.909388 180.6323Q25.721888 179.9448 27.237513 179.9448L27.690638 179.9448L27.690638 184.24167Q28.628138 184.21042 29.206263 183.6948Q29.784388 183.16354 29.784388 182.35104Q29.784388 181.78854 29.550013 181.39792Q29.315638 180.99167 28.925013 180.67917L29.440638 180.02292Q30.675013 180.8198 30.675013 182.41354ZM24.987513 182.55417Q24.987513 183.21042 25.471888 183.66354Q25.940638 184.10104 26.800013 184.1948L26.800013 181.02292L26.721888 181.02292Q25.893763 181.0698 25.440638 181.47604Q24.987513 181.86667 24.987513 182.55417ZM28.862513 175.35104Q28.425013 175.35104 28.190638 175.6948Q27.940638 176.02292 27.768763 176.85104Q27.596888 177.66354 27.346888 178.14792Q27.096888 178.6323 26.768763 178.86667Q26.425013 179.08542 25.956263 179.08542Q25.175013 179.08542 24.643763 178.42917Q24.096888 177.77292 24.096888 176.74167Q24.096888 175.66354 24.659388 175.0073Q25.206263 174.33542 26.065638 174.33542L26.065638 175.41354Q25.628138 175.41354 25.315638 175.80417Q24.987513 176.17917 24.987513 176.74167Q24.987513 177.33542 25.253138 177.67917Q25.503138 178.0073 25.909388 178.0073Q26.300013 178.0073 26.503138 177.6948Q26.706263 177.3823 26.893763 176.5698Q27.065638 175.7573 27.315638 175.2573Q27.565638 174.7573 27.925013 174.52292Q28.284388 174.27292 28.784388 174.27292Q29.643763 174.27292 30.159388 174.96042Q30.675013 175.6323 30.675013 176.71042Q30.675013 177.47604 30.409388 178.0698Q30.128138 178.64792 29.643763 178.97604Q29.159388 179.30417 28.596888 179.30417L28.596888 178.22604Q29.143763 178.1948 29.471888 177.78854Q29.784388 177.3823 29.784388 176.71042Q29.784388 176.10104 29.534388 175.72604Q29.284388 175.35104 28.862513 175.35104ZM27.143763 170.53854Q28.456263 170.53854 29.659388 170.8823Q30.846888 171.22604 31.862513 171.9448Q32.878136 172.64792 33.30001 173.41354L32.64376 173.64792Q31.956263 172.74167 30.503138 172.1948Q29.034388 171.64792 27.268763 171.6323L27.081263 171.6323Q25.846888 171.6323 24.784388 171.89792Q23.721888 172.14792 22.893763 172.61667Q22.050013 173.0698 21.581263 173.64792L20.925013 173.41354Q21.346888 172.64792 22.346888 171.9448Q23.346888 171.24167 24.565638 170.89792Q25.768763 170.53854 27.143763 170.53854Z" fill-rule="nonzero"/><path fill="#757575" d="M78.6125 100.617256Q78.6125 102.523506 77.95625 103.461006Q77.31563 104.38288 75.925 104.38288Q74.56563 104.38288 73.90938 103.47663Q73.25313 102.57038 73.22188 100.75788L73.22188 99.32038Q73.22188 97.429756 73.8625 96.523506Q74.51875 95.60163 75.90938 95.60163Q77.28438 95.60163 77.94063 96.492256Q78.59688 97.367256 78.6125 99.211006L78.6125 100.617256ZM77.51875 99.13288Q77.51875 97.75788 77.12813 97.13288Q76.75313 96.492256 75.90938 96.492256Q75.08125 96.492256 74.69063 97.13288Q74.31563 97.75788 74.31563 99.054756L74.31563 100.78913Q74.31563 102.16413 74.70625 102.836006Q75.1125 103.492256 75.925 103.492256Q76.72188 103.492256 77.1125 102.867256Q77.50313 102.242256 77.51875 100.91413L77.51875 99.13288Z" fill-rule="nonzero"/><path fill="#757575" d="M67.83125 125.34923L68.64375 125.34923Q69.425 125.3336 69.8625 124.94298Q70.3 124.55235 70.3 123.88048Q70.3 122.38048 68.8 122.38048Q68.09688 122.38048 67.675 122.78673Q67.26875 123.19298 67.26875 123.84923L66.175 123.84923Q66.175 122.8336 66.90938 122.16173Q67.65938 121.48985 68.8 121.48985Q70.00313 121.48985 70.69063 122.13048Q71.37813 122.7711 71.37813 123.91173Q71.37813 124.47423 71.01875 124.98985Q70.65938 125.50548 70.03438 125.7711Q70.7375 125.98985 71.1125 126.50548Q71.50313 127.0211 71.50313 127.7711Q71.50313 128.91173 70.75313 129.59923Q70.00313 130.2711 68.8 130.2711Q67.6125 130.2711 66.84688 129.61485Q66.09688 128.9586 66.09688 127.8961L67.19063 127.8961Q67.19063 128.56798 67.62813 128.97423Q68.06563 129.38048 68.81563 129.38048Q69.59688 129.38048 70.00313 128.97423Q70.425 128.55235 70.425 127.78673Q70.425 127.05235 69.97188 126.66173Q69.51875 126.25548 68.64375 126.23985L67.83125 126.23985L67.83125 125.34923ZM78.84688 130.1461L73.25313 130.1461L73.25313 129.36485L76.20625 126.0836Q76.8625 125.3336 77.1125 124.88048Q77.3625 124.41173 77.3625 123.91173Q77.3625 123.23985 76.95625 122.81798Q76.56563 122.38048 75.87813 122.38048Q75.08125 122.38048 74.62813 122.84923Q74.175 123.30235 74.175 124.13048L73.09688 124.13048Q73.09688 122.94298 73.84688 122.22423Q74.6125 121.48985 75.87813 121.48985Q77.08125 121.48985 77.76875 122.11485Q78.45625 122.73985 78.45625 123.78673Q78.45625 125.03673 76.84688 126.78673L74.56563 129.25548L78.84688 129.25548L78.84688 130.1461Z" fill-rule="nonzero"/><path fill="#757575" d="M70.51875 147.50308L70.51875 148.40933L70.31563 148.40933Q69.05 148.44058 68.3 149.17496Q67.55 149.8937 67.425 151.2062Q68.1125 150.44058 69.26875 150.44058Q70.37813 150.44058 71.05 151.22183Q71.72188 152.00308 71.72188 153.25308Q71.72188 154.56558 71.00313 155.36246Q70.28438 156.15933 69.06563 156.15933Q67.84688 156.15933 67.08125 155.22183Q66.33125 154.2687 66.33125 152.78433L66.33125 152.37808Q66.33125 150.0187 67.33125 148.7687Q68.33125 147.5187 70.31563 147.50308L70.51875 147.50308ZM69.09688 151.34683Q68.53438 151.34683 68.06563 151.67496Q67.59688 152.00308 67.40938 152.5187L67.40938 152.90933Q67.40938 153.97183 67.87813 154.61246Q68.3625 155.25308 69.06563 155.25308Q69.8 155.25308 70.22188 154.72183Q70.64375 154.17496 70.64375 153.29996Q70.64375 152.42496 70.22188 151.8937Q69.8 151.34683 69.09688 151.34683ZM77.83125 153.17496L79.01875 153.17496L79.01875 154.04996L77.83125 154.04996L77.83125 156.03433L76.75313 156.03433L76.75313 154.04996L72.8625 154.04996L72.8625 153.40933L76.675 147.50308L77.83125 147.50308L77.83125 153.17496ZM74.09688 153.17496L76.75313 153.17496L76.75313 148.98746L76.6125 149.22183L74.09688 153.17496Z" fill-rule="nonzero"/><path fill="#757575" d="M70.40938 178.17256Q70.08125 178.57881 69.59688 178.82881Q69.12813 179.06319 68.56563 179.06319Q67.83125 179.06319 67.28438 178.70381Q66.7375 178.34444 66.44063 177.68819Q66.14375 177.01631 66.14375 176.21944Q66.14375 175.37569 66.45625 174.68819Q66.78438 174.00069 67.37813 173.64131Q67.9875 173.26631 68.78438 173.26631Q70.05 173.26631 70.76875 174.21944Q71.50313 175.17256 71.50313 176.79756L71.50313 177.11006Q71.50313 179.61006 70.51875 180.75069Q69.53438 181.89131 67.55 181.92256L67.33125 181.92256L67.33125 181.01631L67.56563 181.01631Q68.90938 180.98506 69.62813 180.31319Q70.34688 179.64131 70.40938 178.17256ZM68.7375 178.17256Q69.28438 178.17256 69.7375 177.84444Q70.20625 177.50069 70.425 177.01631L70.425 176.57881Q70.425 175.51631 69.95625 174.84444Q69.4875 174.17256 68.78438 174.17256Q68.06563 174.17256 67.62813 174.71944Q67.20625 175.26631 67.20625 176.17256Q67.20625 177.04756 67.6125 177.61006Q68.03438 178.17256 68.7375 178.17256ZM77.51875 173.39131L77.51875 174.29756L77.31563 174.29756Q76.05 174.32881 75.3 175.06319Q74.55 175.78194 74.425 177.09444Q75.1125 176.32881 76.26875 176.32881Q77.37813 176.32881 78.05 177.11006Q78.72188 177.89131 78.72188 179.14131Q78.72188 180.45381 78.00313 181.25069Q77.28438 182.04756 76.06563 182.04756Q74.84688 182.04756 74.08125 181.11006Q73.33125 180.15694 73.33125 178.67256L73.33125 178.26631Q73.33125 175.90694 74.33125 174.65694Q75.33125 173.40694 77.31563 173.39131L77.51875 173.39131ZM76.09688 177.23506Q75.53438 177.23506 75.06563 177.56319Q74.59688 177.89131 74.40938 178.40694L74.40938 178.79756Q74.40938 179.86006 74.87813 180.50069Q75.3625 181.14131 76.06563 181.14131Q76.8 181.14131 77.22188 180.61006Q77.64375 180.06319 77.64375 179.18819Q77.64375 178.31319 77.22188 177.78194Q76.8 177.23506 76.09688 177.23506Z" fill-rule="nonzero"/><path fill="#757575" d="M62.815624 207.81078L61.7375 207.81078L61.7375 200.59203L59.55 201.3889L59.55 200.40453L62.659374 199.23265L62.815624 199.23265L62.815624 207.81078ZM71.84688 207.81078L66.25313 207.81078L66.25313 207.02953L69.20625 203.74828Q69.8625 202.99828 70.1125 202.54515Q70.3625 202.0764 70.3625 201.5764Q70.3625 200.90453 69.95625 200.48265Q69.56563 200.04515 68.87813 200.04515Q68.08125 200.04515 67.62813 200.5139Q67.175 200.96703 67.175 201.79515L66.09688 201.79515Q66.09688 200.60765 66.84688 199.8889Q67.6125 199.15453 68.87813 199.15453Q70.08125 199.15453 70.76875 199.77953Q71.45625 200.40453 71.45625 201.4514Q71.45625 202.7014 69.84688 204.4514L67.56563 206.92015L71.84688 206.92015L71.84688 207.81078ZM78.44063 201.49828Q78.44063 202.1389 78.09688 202.6389Q77.75313 203.1389 77.19063 203.42015Q77.84688 203.7014 78.2375 204.2639Q78.62813 204.81078 78.62813 205.5139Q78.62813 206.60765 77.87813 207.27953Q77.14375 207.93578 75.925 207.93578Q74.69063 207.93578 73.94063 207.27953Q73.20625 206.60765 73.20625 205.5139Q73.20625 204.81078 73.58125 204.2639Q73.95625 203.7014 74.62813 203.42015Q74.06563 203.1389 73.7375 202.6389Q73.40938 202.1389 73.40938 201.49828Q73.40938 200.42015 74.09688 199.79515Q74.78438 199.15453 75.925 199.15453Q77.05 199.15453 77.7375 199.79515Q78.44063 200.42015 78.44063 201.49828ZM77.55 205.48265Q77.55 204.7639 77.09688 204.3264Q76.64375 203.87328 75.90938 203.87328Q75.175 203.87328 74.72188 204.3264Q74.28438 204.7639 74.28438 205.49828Q74.28438 206.21703 74.72188 206.6389Q75.15938 207.04515 75.925 207.04515Q76.675 207.04515 77.1125 206.62328Q77.55 206.2014 77.55 205.48265ZM75.925 200.04515Q75.28438 200.04515 74.87813 200.4514Q74.4875 200.84203 74.4875 201.52953Q74.4875 202.17015 74.87813 202.5764Q75.26875 202.98265 75.90938 202.98265Q76.56563 202.98265 76.95625 202.5764Q77.34688 202.17015 77.34688 201.52953Q77.34688 200.87328 76.94063 200.46703Q76.53438 200.04515 75.925 200.04515Z" fill-rule="nonzero"/><path fill="#757575" d="M64.84688 233.699L59.253124 233.699L59.253124 232.91776L62.20625 229.6365Q62.8625 228.8865 63.1125 228.43338Q63.3625 227.96463 63.3625 227.46463Q63.3625 226.79276 62.95625 226.37088Q62.565624 225.93338 61.878124 225.93338Q61.08125 225.93338 60.628124 226.40213Q60.175 226.85526 60.175 227.68338L59.096874 227.68338Q59.096874 226.49588 59.846874 225.77713Q60.6125 225.04276 61.878124 225.04276Q63.08125 225.04276 63.76875 225.66776Q64.45625 226.29276 64.45625 227.33963Q64.45625 228.58963 62.846874 230.33963L60.565624 232.80838L64.84688 232.80838L64.84688 233.699ZM66.75313 229.41776L67.19063 225.16776L71.56563 225.16776L71.56563 226.16776L68.1125 226.16776L67.84688 228.49588Q68.4875 228.12088 69.28438 228.12088Q70.44063 228.12088 71.12813 228.90213Q71.81563 229.66776 71.81563 230.98026Q71.81563 232.29276 71.09688 233.05838Q70.39375 233.824 69.1125 233.824Q67.9875 233.824 67.26875 233.199Q66.55 232.55838 66.45625 231.449L67.47188 231.449Q67.58125 232.18338 68.00313 232.55838Q68.425 232.93338 69.1125 232.93338Q69.8625 232.93338 70.3 232.41776Q70.7375 231.90213 70.7375 230.99588Q70.7375 230.1365 70.26875 229.62088Q69.8 229.10526 69.01875 229.10526Q68.31563 229.10526 67.90938 229.40213L67.62813 229.6365L66.75313 229.41776ZM77.51875 225.16776L77.51875 226.074L77.31563 226.074Q76.05 226.10526 75.3 226.83963Q74.55 227.55838 74.425 228.87088Q75.1125 228.10526 76.26875 228.10526Q77.37813 228.10526 78.05 228.8865Q78.72188 229.66776 78.72188 230.91776Q78.72188 232.23026 78.00313 233.02713Q77.28438 233.824 76.06563 233.824Q74.84688 233.824 74.08125 232.8865Q73.33125 231.93338 73.33125 230.449L73.33125 230.04276Q73.33125 227.68338 74.33125 226.43338Q75.33125 225.18338 77.31563 225.16776L77.51875 225.16776ZM76.09688 229.0115Q75.53438 229.0115 75.06563 229.33963Q74.59688 229.66776 74.40938 230.18338L74.40938 230.574Q74.40938 231.6365 74.87813 232.27713Q75.3625 232.91776 76.06563 232.91776Q76.8 232.91776 77.22188 232.3865Q77.64375 231.83963 77.64375 230.96463Q77.64375 230.08963 77.22188 229.55838Q76.8 229.0115 76.09688 229.0115Z" fill-rule="nonzero"/><path fill="#757575" d="M59.753124 255.30597L60.190624 251.05597L64.56563 251.05597L64.56563 252.05597L61.1125 252.05597L60.846874 254.3841Q61.4875 254.0091 62.284374 254.0091Q63.440624 254.0091 64.12813 254.79034Q64.81563 255.55597 64.81563 256.86847Q64.81563 258.18097 64.09688 258.9466Q63.39375 259.71222 62.1125 259.71222Q60.9875 259.71222 60.26875 259.08722Q59.55 258.4466 59.45625 257.33722L60.471874 257.33722Q60.58125 258.0716 61.003124 258.4466Q61.425 258.8216 62.1125 258.8216Q62.8625 258.8216 63.3 258.30597Q63.7375 257.79034 63.7375 256.8841Q63.7375 256.02472 63.26875 255.5091Q62.8 254.99347 62.01875 254.99347Q61.315624 254.99347 60.909374 255.29034L60.628124 255.52472L59.753124 255.30597ZM69.81563 259.58722L68.7375 259.58722L68.7375 252.36847L66.55 253.16534L66.55 252.18097L69.65938 251.0091L69.81563 251.0091L69.81563 259.58722ZM78.84688 259.58722L73.25313 259.58722L73.25313 258.80597L76.20625 255.52472Q76.8625 254.77472 77.1125 254.3216Q77.3625 253.85284 77.3625 253.35284Q77.3625 252.68097 76.95625 252.2591Q76.56563 251.8216 75.87813 251.8216Q75.08125 251.8216 74.62813 252.29034Q74.175 252.74347 74.175 253.5716L73.09688 253.5716Q73.09688 252.3841 73.84688 251.66534Q74.6125 250.93097 75.87813 250.93097Q77.08125 250.93097 77.76875 251.55597Q78.45625 252.18097 78.45625 253.22784Q78.45625 254.47784 76.84688 256.22784L74.56563 258.6966L78.84688 258.6966L78.84688 259.58722Z" fill-rule="nonzero"/><path fill="#757575" d="M55.815624 285.47546L54.7375 285.47546L54.7375 278.2567L52.55 279.0536L52.55 278.0692L55.659374 276.89734L55.815624 276.89734L55.815624 285.47546ZM64.6125 281.83484Q64.6125 283.7411 63.95625 284.6786Q63.315624 285.60046 61.925 285.60046Q60.565624 285.60046 59.909374 284.6942Q59.253124 283.78796 59.221874 281.97546L59.221874 280.53796Q59.221874 278.64734 59.8625 277.7411Q60.51875 276.8192 61.909374 276.8192Q63.284374 276.8192 63.940624 277.70984Q64.59688 278.58484 64.6125 280.4286L64.6125 281.83484ZM63.51875 280.35046Q63.51875 278.97546 63.128124 278.35046Q62.753124 277.70984 61.909374 277.70984Q61.08125 277.70984 60.690624 278.35046Q60.315624 278.97546 60.315624 280.27234L60.315624 282.0067Q60.315624 283.3817 60.70625 284.0536Q61.1125 284.70984 61.925 284.70984Q62.721874 284.70984 63.1125 284.08484Q63.503124 283.45984 63.51875 282.1317L63.51875 280.35046ZM71.84688 285.47546L66.25313 285.47546L66.25313 284.6942L69.20625 281.41296Q69.8625 280.66296 70.1125 280.20984Q70.3625 279.7411 70.3625 279.2411Q70.3625 278.5692 69.95625 278.14734Q69.56563 277.70984 68.87813 277.70984Q68.08125 277.70984 67.62813 278.1786Q67.175 278.6317 67.175 279.45984L66.09688 279.45984Q66.09688 278.27234 66.84688 277.5536Q67.6125 276.8192 68.87813 276.8192Q70.08125 276.8192 70.76875 277.4442Q71.45625 278.0692 71.45625 279.1161Q71.45625 280.3661 69.84688 282.1161L67.56563 284.58484L71.84688 284.58484L71.84688 285.47546ZM77.83125 282.6161L79.01875 282.6161L79.01875 283.4911L77.83125 283.4911L77.83125 285.47546L76.75313 285.47546L76.75313 283.4911L72.8625 283.4911L72.8625 282.85046L76.675 276.9442L77.83125 276.9442L77.83125 282.6161ZM74.09688 282.6161L76.75313 282.6161L76.75313 278.4286L76.6125 278.66296L74.09688 282.6161Z" fill-rule="nonzero"/><path fill="#757575" d="M196.82187 316.45L191.22812 316.45L191.22812 315.66876L194.18124 312.3875Q194.8375 311.6375 195.0875 311.1844Q195.3375 310.71564 195.3375 310.21564Q195.3375 309.54376 194.93124 309.1219Q194.54062 308.6844 193.85312 308.6844Q193.05624 308.6844 192.60312 309.15314Q192.15 309.60626 192.15 310.4344L191.07187 310.4344Q191.07187 309.2469 191.82187 308.52814Q192.5875 307.79376 193.85312 307.79376Q195.05624 307.79376 195.74374 308.41876Q196.43124 309.04376 196.43124 310.09064Q196.43124 311.34064 194.82187 313.09064L192.54062 315.5594L196.82187 315.5594L196.82187 316.45ZM198.72812 312.16876L199.16562 307.91876L203.54062 307.91876L203.54062 308.91876L200.0875 308.91876L199.82187 311.2469Q200.4625 310.8719 201.25937 310.8719Q202.41562 310.8719 203.10312 311.65314Q203.79062 312.41876 203.79062 313.73126Q203.79062 315.04376 203.07187 315.8094Q202.36874 316.575 201.0875 316.575Q199.9625 316.575 199.24374 315.95Q198.525 315.3094 198.43124 314.2L199.44687 314.2Q199.55624 314.9344 199.97812 315.3094Q200.4 315.6844 201.0875 315.6844Q201.8375 315.6844 202.275 315.16876Q202.7125 314.65314 202.7125 313.7469Q202.7125 312.8875 202.24374 312.3719Q201.775 311.85626 200.99374 311.85626Q200.29062 311.85626 199.88437 312.15314L199.60312 312.3875L198.72812 312.16876ZM205.36874 315.8875Q205.36874 315.60626 205.525 315.41876Q205.69687 315.23126 206.025 315.23126Q206.36874 315.23126 206.54062 315.41876Q206.7125 315.60626 206.7125 315.8875Q206.7125 316.15314 206.54062 316.34064Q206.36874 316.5125 206.025 316.5125Q205.69687 316.5125 205.525 316.34064Q205.36874 316.15314 205.36874 315.8875ZM213.5875 312.8094Q213.5875 314.71564 212.93124 315.65314Q212.29062 316.575 210.9 316.575Q209.54062 316.575 208.88437 315.66876Q208.22812 314.7625 208.19687 312.95L208.19687 311.5125Q208.19687 309.6219 208.8375 308.71564Q209.49374 307.79376 210.88437 307.79376Q212.25937 307.79376 212.91562 308.6844Q213.57187 309.5594 213.5875 311.40314L213.5875 312.8094ZM212.49374 311.325Q212.49374 309.95 212.10312 309.325Q211.72812 308.6844 210.88437 308.6844Q210.05624 308.6844 209.66562 309.325Q209.29062 309.95 209.29062 311.2469L209.29062 312.98126Q209.29062 314.35626 209.68124 315.02814Q210.0875 315.6844 210.9 315.6844Q211.69687 315.6844 212.0875 315.0594Q212.47812 314.4344 212.49374 313.10626L212.49374 311.325ZM220.5875 312.8094Q220.5875 314.71564 219.93124 315.65314Q219.29062 316.575 217.9 316.575Q216.54062 316.575 215.88437 315.66876Q215.22812 314.7625 215.19687 312.95L215.19687 311.5125Q215.19687 309.6219 215.8375 308.71564Q216.49374 307.79376 217.88437 307.79376Q219.25937 307.79376 219.91562 308.6844Q220.57187 309.5594 220.5875 311.40314L220.5875 312.8094ZM219.49374 311.325Q219.49374 309.95 219.10312 309.325Q218.72812 308.6844 217.88437 308.6844Q217.05624 308.6844 216.66562 309.325Q216.29062 309.95 216.29062 311.2469L216.29062 312.98126Q216.29062 314.35626 216.68124 315.02814Q217.0875 315.6844 217.9 315.6844Q218.69687 315.6844 219.0875 315.0594Q219.47812 314.4344 219.49374 313.10626L219.49374 311.325ZM227.5875 312.8094Q227.5875 314.71564 226.93124 315.65314Q226.29062 316.575 224.9 316.575Q223.54062 316.575 222.88437 315.66876Q222.22812 314.7625 222.19687 312.95L222.19687 311.5125Q222.19687 309.6219 222.8375 308.71564Q223.49374 307.79376 224.88437 307.79376Q226.25937 307.79376 226.91562 308.6844Q227.57187 309.5594 227.5875 311.40314L227.5875 312.8094ZM226.49374 311.325Q226.49374 309.95 226.10312 309.325Q225.72812 308.6844 224.88437 308.6844Q224.05624 308.6844 223.66562 309.325Q223.29062 309.95 223.29062 311.2469L223.29062 312.98126Q223.29062 314.35626 223.68124 315.02814Q224.0875 315.6844 224.9 315.6844Q225.69687 315.6844 226.0875 315.0594Q226.47812 314.4344 226.49374 313.10626L226.49374 311.325Z" fill-rule="nonzero"/><path fill="#757575" d="M315.70312 312.16876L316.14062 307.91876L320.51562 307.91876L320.51562 308.91876L317.0625 308.91876L316.79688 311.2469Q317.4375 310.8719 318.23438 310.8719Q319.39062 310.8719 320.07812 311.65314Q320.76562 312.41876 320.76562 313.73126Q320.76562 315.04376 320.04688 315.8094Q319.34375 316.575 318.0625 316.575Q316.9375 316.575 316.21875 315.95Q315.5 315.3094 315.40625 314.2L316.42188 314.2Q316.53125 314.9344 316.95312 315.3094Q317.375 315.6844 318.0625 315.6844Q318.8125 315.6844 319.25 315.16876Q319.6875 314.65314 319.6875 313.7469Q319.6875 312.8875 319.21875 312.3719Q318.75 311.85626 317.96875 311.85626Q317.26562 311.85626 316.85938 312.15314L316.57812 312.3875L315.70312 312.16876ZM327.5625 312.8094Q327.5625 314.71564 326.90625 315.65314Q326.26562 316.575 324.875 316.575Q323.51562 316.575 322.85938 315.66876Q322.20312 314.7625 322.17188 312.95L322.17188 311.5125Q322.17188 309.6219 322.8125 308.71564Q323.46875 307.79376 324.85938 307.79376Q326.23438 307.79376 326.89062 308.6844Q327.54688 309.5594 327.5625 311.40314L327.5625 312.8094ZM326.46875 311.325Q326.46875 309.95 326.07812 309.325Q325.70312 308.6844 324.85938 308.6844Q324.03125 308.6844 323.64062 309.325Q323.26562 309.95 323.26562 311.2469L323.26562 312.98126Q323.26562 314.35626 323.65625 315.02814Q324.0625 315.6844 324.875 315.6844Q325.67188 315.6844 326.0625 315.0594Q326.45312 314.4344 326.46875 313.10626L326.46875 311.325ZM329.34375 315.8875Q329.34375 315.60626 329.5 315.41876Q329.67188 315.23126 330.0 315.23126Q330.34375 315.23126 330.51562 315.41876Q330.6875 315.60626 330.6875 315.8875Q330.6875 316.15314 330.51562 316.34064Q330.34375 316.5125 330.0 316.5125Q329.67188 316.5125 329.5 316.34064Q329.34375 316.15314 329.34375 315.8875ZM337.5625 312.8094Q337.5625 314.71564 336.90625 315.65314Q336.26562 316.575 334.875 316.575Q333.51562 316.575 332.85938 315.66876Q332.20312 314.7625 332.17188 312.95L332.17188 311.5125Q332.17188 309.6219 332.8125 308.71564Q333.46875 307.79376 334.85938 307.79376Q336.23438 307.79376 336.89062 308.6844Q337.54688 309.5594 337.5625 311.40314L337.5625 312.8094ZM336.46875 311.325Q336.46875 309.95 336.07812 309.325Q335.70312 308.6844 334.85938 308.6844Q334.03125 308.6844 333.64062 309.325Q333.26562 309.95 333.26562 311.2469L333.26562 312.98126Q333.26562 314.35626 333.65625 315.02814Q334.0625 315.6844 334.875 315.6844Q335.67188 315.6844 336.0625 315.0594Q336.45312 314.4344 336.46875 313.10626L336.46875 311.325ZM344.5625 312.8094Q344.5625 314.71564 343.90625 315.65314Q343.26562 316.575 341.875 316.575Q340.51562 316.575 339.85938 315.66876Q339.20312 314.7625 339.17188 312.95L339.17188 311.5125Q339.17188 309.6219 339.8125 308.71564Q340.46875 307.79376 341.85938 307.79376Q343.23438 307.79376 343.89062 308.6844Q344.54688 309.5594 344.5625 311.40314L344.5625 312.8094ZM343.46875 311.325Q343.46875 309.95 343.07812 309.325Q342.70312 308.6844 341.85938 308.6844Q341.03125 308.6844 340.64062 309.325Q340.26562 309.95 340.26562 311.2469L340.26562 312.98126Q340.26562 314.35626 340.65625 315.02814Q341.0625 315.6844 341.875 315.6844Q342.67188 315.6844 343.0625 315.0594Q343.45312 314.4344 343.46875 313.10626L343.46875 311.325ZM351.5625 312.8094Q351.5625 314.71564 350.90625 315.65314Q350.26562 316.575 348.875 316.575Q347.51562 316.575 346.85938 315.66876Q346.20312 314.7625 346.17188 312.95L346.17188 311.5125Q346.17188 309.6219 346.8125 308.71564Q347.46875 307.79376 348.85938 307.79376Q350.23438 307.79376 350.89062 308.6844Q351.54688 309.5594 351.5625 311.40314L351.5625 312.8094ZM350.46875 311.325Q350.46875 309.95 350.07812 309.325Q349.70312 308.6844 348.85938 308.6844Q348.03125 308.6844 347.64062 309.325Q347.26562 309.95 347.26562 311.2469L347.26562 312.98126Q347.26562 314.35626 347.65625 315.02814Q348.0625 315.6844 348.875 315.6844Q349.67188 315.6844 350.0625 315.0594Q350.45312 314.4344 350.46875 313.10626L350.46875 311.325Z" fill-rule="nonzero"/><path fill="#757575" d="M444.69376 308.52814L441.1625 316.45L440.02188 316.45L443.5375 308.8094L438.92813 308.8094L438.92813 307.91876L444.69376 307.91876L444.69376 308.52814ZM446.67813 312.16876L447.11563 307.91876L451.49063 307.91876L451.49063 308.91876L448.0375 308.91876L447.77188 311.2469Q448.4125 310.8719 449.20938 310.8719Q450.36563 310.8719 451.05313 311.65314Q451.74063 312.41876 451.74063 313.73126Q451.74063 315.04376 451.02188 315.8094Q450.31876 316.575 449.0375 316.575Q447.9125 316.575 447.19376 315.95Q446.475 315.3094 446.38126 314.2L447.39688 314.2Q447.50626 314.9344 447.92813 315.3094Q448.35 315.6844 449.0375 315.6844Q449.7875 315.6844 450.225 315.16876Q450.6625 314.65314 450.6625 313.7469Q450.6625 312.8875 450.19376 312.3719Q449.725 311.85626 448.94376 311.85626Q448.24063 311.85626 447.83438 312.15314L447.55313 312.3875L446.67813 312.16876ZM453.31876 315.8875Q453.31876 315.60626 453.475 315.41876Q453.64688 315.23126 453.975 315.23126Q454.31876 315.23126 454.49063 315.41876Q454.6625 315.60626 454.6625 315.8875Q454.6625 316.15314 454.49063 316.34064Q454.31876 316.5125 453.975 316.5125Q453.64688 316.5125 453.475 316.34064Q453.31876 316.15314 453.31876 315.8875ZM461.5375 312.8094Q461.5375 314.71564 460.88126 315.65314Q460.24063 316.575 458.85 316.575Q457.49063 316.575 456.83438 315.66876Q456.17813 314.7625 456.14688 312.95L456.14688 311.5125Q456.14688 309.6219 456.7875 308.71564Q457.44376 307.79376 458.83438 307.79376Q460.20938 307.79376 460.86563 308.6844Q461.52188 309.5594 461.5375 311.40314L461.5375 312.8094ZM460.44376 311.325Q460.44376 309.95 460.05313 309.325Q459.67813 308.6844 458.83438 308.6844Q458.00626 308.6844 457.61563 309.325Q457.24063 309.95 457.24063 311.2469L457.24063 312.98126Q457.24063 314.35626 457.63126 315.02814Q458.0375 315.6844 458.85 315.6844Q459.64688 315.6844 460.0375 315.0594Q460.42813 314.4344 460.44376 313.10626L460.44376 311.325ZM468.5375 312.8094Q468.5375 314.71564 467.88126 315.65314Q467.24063 316.575 465.85 316.575Q464.49063 316.575 463.83438 315.66876Q463.17813 314.7625 463.14688 312.95L463.14688 311.5125Q463.14688 309.6219 463.7875 308.71564Q464.44376 307.79376 465.83438 307.79376Q467.20938 307.79376 467.86563 308.6844Q468.52188 309.5594 468.5375 311.40314L468.5375 312.8094ZM467.44376 311.325Q467.44376 309.95 467.05313 309.325Q466.67813 308.6844 465.83438 308.6844Q465.00626 308.6844 464.61563 309.325Q464.24063 309.95 464.24063 311.2469L464.24063 312.98126Q464.24063 314.35626 464.63126 315.02814Q465.0375 315.6844 465.85 315.6844Q466.64688 315.6844 467.0375 315.0594Q467.42813 314.4344 467.44376 313.10626L467.44376 311.325ZM475.5375 312.8094Q475.5375 314.71564 474.88126 315.65314Q474.24063 316.575 472.85 316.575Q471.49063 316.575 470.83438 315.66876Q470.17813 314.7625 470.14688 312.95L470.14688 311.5125Q470.14688 309.6219 470.7875 308.71564Q471.44376 307.79376 472.83438 307.79376Q474.20938 307.79376 474.86563 308.6844Q475.52188 309.5594 475.5375 311.40314L475.5375 312.8094ZM474.44376 311.325Q474.44376 309.95 474.05313 309.325Q473.67813 308.6844 472.83438 308.6844Q472.00626 308.6844 471.61563 309.325Q471.24063 309.95 471.24063 311.2469L471.24063 312.98126Q471.24063 314.35626 471.63126 315.02814Q472.0375 315.6844 472.85 315.6844Q473.64688 315.6844 474.0375 315.0594Q474.42813 314.4344 474.44376 313.10626L474.44376 311.325Z" fill-rule="nonzero"/><path fill="#4285f4" d="M175.0 57.416668C175.0 56.864384 175.44771 56.416668 176.0 56.416668L186.0 56.416668C186.55229 56.416668 187.0 56.864384 187.0 57.416668L187.0 67.416664C187.0 67.96895 186.55229 68.416664 186.0 68.416664L176.0 68.416664C175.44771 68.416664 175.0 67.96895 175.0 67.416664Z" fill-rule="nonzero"/><path fill="#757575" d="M198.5 63.11979Q197.0625 62.697914 196.39062 62.08854Q195.73438 61.479164 195.73438 60.58854Q195.73438 59.58854 196.53125 58.93229Q197.34375 58.260414 198.64062 58.260414Q199.51562 58.260414 200.20312 58.604164Q200.89062 58.947914 201.26562 59.541664Q201.65625 60.135414 201.65625 60.854164L200.51562 60.854164Q200.51562 60.072914 200.01562 59.635414Q199.53125 59.197914 198.64062 59.197914Q197.8125 59.197914 197.34375 59.572914Q196.875 59.93229 196.875 60.572914Q196.875 61.104164 197.3125 61.46354Q197.76562 61.822914 198.82812 62.11979Q199.89062 62.416664 200.48438 62.77604Q201.09375 63.135414 201.375 63.61979Q201.67188 64.104164 201.67188 64.74479Q201.67188 65.791664 200.85938 66.416664Q200.04688 67.041664 198.70312 67.041664Q197.8125 67.041664 197.04688 66.697914Q196.29688 66.354164 195.875 65.77604Q195.46875 65.18229 195.46875 64.447914L196.59375 64.447914Q196.59375 65.21354 197.17188 65.666664Q197.75 66.11979 198.70312 66.11979Q199.59375 66.11979 200.0625 65.760414Q200.53125 65.385414 200.53125 64.760414Q200.53125 64.135414 200.09375 63.791664Q199.65625 63.447914 198.5 63.11979ZM204.125 65.99479L208.17188 65.99479L208.17188 66.916664L202.98438 66.916664L202.98438 58.385414L204.125 58.385414L204.125 65.99479ZM215.54688 62.93229Q215.54688 64.18229 215.125 65.11979Q214.70312 66.041664 213.92188 66.541664Q213.15625 67.041664 212.125 67.041664Q211.125 67.041664 210.34375 66.541664Q209.5625 66.041664 209.125 65.135414Q208.70312 64.21354 208.6875 62.99479L208.6875 62.385414Q208.6875 61.15104 209.10938 60.21354Q209.54688 59.27604 210.32812 58.77604Q211.10938 58.260414 212.125 58.260414Q213.14062 58.260414 213.92188 58.760414Q214.70312 59.260414 215.125 60.197914Q215.54688 61.135414 215.54688 62.385414L215.54688 62.93229ZM214.4375 62.36979Q214.4375 60.854164 213.82812 60.041664Q213.21875 59.229164 212.125 59.229164Q211.04688 59.229164 210.4375 60.041664Q209.82812 60.854164 209.8125 62.291664L209.8125 62.93229Q209.8125 64.40104 210.42188 65.24479Q211.04688 66.072914 212.125 66.072914Q213.21875 66.072914 213.8125 65.291664Q214.42188 64.49479 214.4375 63.010414L214.4375 62.36979ZM221.70312 64.68229L218.125 64.68229L217.32812 66.916664L216.17188 66.916664L219.42188 58.385414L220.40625 58.385414L223.67188 66.916664L222.51562 66.916664L221.70312 64.68229ZM218.46875 63.760414L221.375 63.760414L219.92188 59.77604L218.46875 63.760414ZM224.98438 66.916664L224.98438 58.385414L227.40625 58.385414Q228.51562 58.385414 229.35938 58.885414Q230.21875 59.36979 230.6875 60.27604Q231.15625 61.18229 231.15625 62.36979L231.15625 62.90104Q231.15625 64.11979 230.6875 65.02604Q230.23438 65.93229 229.35938 66.416664Q228.5 66.90104 227.35938 66.916664L224.98438 66.916664ZM226.10938 59.30729L226.10938 65.99479L227.29688 65.99479Q228.59375 65.99479 229.3125 65.197914Q230.04688 64.385414 230.04688 62.885414L230.04688 62.385414Q230.04688 60.93229 229.35938 60.135414Q228.6875 59.322914 227.42188 59.30729L226.10938 59.30729Z" fill-rule="nonzero"/><path fill="#db4437" d="M248.0 57.416668C248.0 56.864384 248.44771 56.416668 249.0 56.416668L259.0 56.416668C259.55228 56.416668 260.0 56.864384 260.0 57.416668L260.0 67.416664C260.0 67.96895 259.55228 68.416664 259.0 68.416664L249.0 68.416664C248.44771 68.416664 248.0 67.96895 248.0 67.416664Z" fill-rule="nonzero"/><path fill="#757575" d="M271.5 63.11979Q270.0625 62.697914 269.39062 62.08854Q268.73438 61.479164 268.73438 60.58854Q268.73438 59.58854 269.53125 58.93229Q270.34375 58.260414 271.64062 58.260414Q272.51562 58.260414 273.20312 58.604164Q273.89062 58.947914 274.26562 59.541664Q274.65625 60.135414 274.65625 60.854164L273.51562 60.854164Q273.51562 60.072914 273.01562 59.635414Q272.53125 59.197914 271.64062 59.197914Q270.8125 59.197914 270.34375 59.572914Q269.875 59.93229 269.875 60.572914Q269.875 61.104164 270.3125 61.46354Q270.76562 61.822914 271.82812 62.11979Q272.89062 62.416664 273.48438 62.77604Q274.09375 63.135414 274.375 63.61979Q274.67188 64.104164 274.67188 64.74479Q274.67188 65.791664 273.85938 66.416664Q273.04688 67.041664 271.70312 67.041664Q270.8125 67.041664 270.04688 66.697914Q269.29688 66.354164 268.875 65.77604Q268.46875 65.18229 268.46875 64.447914L269.59375 64.447914Q269.59375 65.21354 270.17188 65.666664Q270.75 66.11979 271.70312 66.11979Q272.59375 66.11979 273.0625 65.760414Q273.53125 65.385414 273.53125 64.760414Q273.53125 64.135414 273.09375 63.791664Q272.65625 63.447914 271.5 63.11979ZM277.125 65.99479L281.17188 65.99479L281.17188 66.916664L275.98438 66.916664L275.98438 58.385414L277.125 58.385414L277.125 65.99479ZM288.54688 62.93229Q288.54688 64.18229 288.125 65.11979Q287.70312 66.041664 286.92188 66.541664Q286.15625 67.041664 285.125 67.041664Q284.125 67.041664 283.34375 66.541664Q282.5625 66.041664 282.125 65.135414Q281.70312 64.21354 281.6875 62.99479L281.6875 62.385414Q281.6875 61.15104 282.10938 60.21354Q282.54688 59.27604 283.32812 58.77604Q284.10938 58.260414 285.125 58.260414Q286.14062 58.260414 286.92188 58.760414Q287.70312 59.260414 288.125 60.197914Q288.54688 61.135414 288.54688 62.385414L288.54688 62.93229ZM287.4375 62.36979Q287.4375 60.854164 286.82812 60.041664Q286.21875 59.229164 285.125 59.229164Q284.04688 59.229164 283.4375 60.041664Q282.82812 60.854164 282.8125 62.291664L282.8125 62.93229Q282.8125 64.40104 283.42188 65.24479Q284.04688 66.072914 285.125 66.072914Q286.21875 66.072914 286.8125 65.291664Q287.42188 64.49479 287.4375 63.010414L287.4375 62.36979ZM294.70312 64.68229L291.125 64.68229L290.32812 66.916664L289.17188 66.916664L292.42188 58.385414L293.40625 58.385414L296.67188 66.916664L295.51562 66.916664L294.70312 64.68229ZM291.46875 63.760414L294.375 63.760414L292.92188 59.77604L291.46875 63.760414ZM297.98438 66.916664L297.98438 58.385414L300.40625 58.385414Q301.51562 58.385414 302.35938 58.885414Q303.21875 59.36979 303.6875 60.27604Q304.15625 61.18229 304.15625 62.36979L304.15625 62.90104Q304.15625 64.11979 303.6875 65.02604Q303.23438 65.93229 302.35938 66.416664Q301.5 66.90104 300.35938 66.916664L297.98438 66.916664ZM299.10938 59.30729L299.10938 65.99479L300.29688 65.99479Q301.59375 65.99479 302.3125 65.197914Q303.04688 64.385414 303.04688 62.885414L303.04688 62.385414Q303.04688 60.93229 302.35938 60.135414Q301.6875 59.322914 300.42188 59.30729L299.10938 59.30729ZM311.29688 66.916664L305.70312 66.916664L305.70312 66.135414L308.65625 62.854164Q309.3125 62.104164 309.5625 61.65104Q309.8125 61.18229 309.8125 60.68229Q309.8125 60.010414 309.40625 59.58854Q309.01562 59.15104 308.32812 59.15104Q307.53125 59.15104 307.07812 59.61979Q306.625 60.072914 306.625 60.90104L305.54688 60.90104Q305.54688 59.71354 306.29688 58.99479Q307.0625 58.260414 308.32812 58.260414Q309.53125 58.260414 310.21875 58.885414Q310.90625 59.510414 310.90625 60.55729Q310.90625 61.80729 309.29688 63.55729L307.01562 66.02604L311.29688 66.02604L311.29688 66.916664Z" fill-rule="nonzero"/><path fill="#f4b400" d="M328.0 57.416668C328.0 56.864384 328.44772 56.416668 329.0 56.416668L339.0 56.416668C339.55228 56.416668 340.0 56.864384 340.0 57.416668L340.0 67.416664C340.0 67.96895 339.55228 68.416664 339.0 68.416664L329.0 68.416664C328.44772 68.416664 328.0 67.96895 328.0 67.416664Z" fill-rule="nonzero"/><path fill="#757575" d="M351.5 63.11979Q350.0625 62.697914 349.39062 62.08854Q348.73438 61.479164 348.73438 60.58854Q348.73438 59.58854 349.53125 58.93229Q350.34375 58.260414 351.64062 58.260414Q352.51562 58.260414 353.20312 58.604164Q353.89062 58.947914 354.26562 59.541664Q354.65625 60.135414 354.65625 60.854164L353.51562 60.854164Q353.51562 60.072914 353.01562 59.635414Q352.53125 59.197914 351.64062 59.197914Q350.8125 59.197914 350.34375 59.572914Q349.875 59.93229 349.875 60.572914Q349.875 61.104164 350.3125 61.46354Q350.76562 61.822914 351.82812 62.11979Q352.89062 62.416664 353.48438 62.77604Q354.09375 63.135414 354.375 63.61979Q354.67188 64.104164 354.67188 64.74479Q354.67188 65.791664 353.85938 66.416664Q353.04688 67.041664 351.70312 67.041664Q350.8125 67.041664 350.04688 66.697914Q349.29688 66.354164 348.875 65.77604Q348.46875 65.18229 348.46875 64.447914L349.59375 64.447914Q349.59375 65.21354 350.17188 65.666664Q350.75 66.11979 351.70312 66.11979Q352.59375 66.11979 353.0625 65.760414Q353.53125 65.385414 353.53125 64.760414Q353.53125 64.135414 353.09375 63.791664Q352.65625 63.447914 351.5 63.11979ZM357.125 65.99479L361.17188 65.99479L361.17188 66.916664L355.98438 66.916664L355.98438 58.385414L357.125 58.385414L357.125 65.99479ZM368.54688 62.93229Q368.54688 64.18229 368.125 65.11979Q367.70312 66.041664 366.92188 66.541664Q366.15625 67.041664 365.125 67.041664Q364.125 67.041664 363.34375 66.541664Q362.5625 66.041664 362.125 65.135414Q361.70312 64.21354 361.6875 62.99479L361.6875 62.385414Q361.6875 61.15104 362.10938 60.21354Q362.54688 59.27604 363.32812 58.77604Q364.10938 58.260414 365.125 58.260414Q366.14062 58.260414 366.92188 58.760414Q367.70312 59.260414 368.125 60.197914Q368.54688 61.135414 368.54688 62.385414L368.54688 62.93229ZM367.4375 62.36979Q367.4375 60.854164 366.82812 60.041664Q366.21875 59.229164 365.125 59.229164Q364.04688 59.229164 363.4375 60.041664Q362.82812 60.854164 362.8125 62.291664L362.8125 62.93229Q362.8125 64.40104 363.42188 65.24479Q364.04688 66.072914 365.125 66.072914Q366.21875 66.072914 366.8125 65.291664Q367.42188 64.49479 367.4375 63.010414L367.4375 62.36979ZM374.70312 64.68229L371.125 64.68229L370.32812 66.916664L369.17188 66.916664L372.42188 58.385414L373.40625 58.385414L376.67188 66.916664L375.51562 66.916664L374.70312 64.68229ZM371.46875 63.760414L374.375 63.760414L372.92188 59.77604L371.46875 63.760414ZM377.98438 66.916664L377.98438 58.385414L380.40625 58.385414Q381.51562 58.385414 382.35938 58.885414Q383.21875 59.36979 383.6875 60.27604Q384.15625 61.18229 384.15625 62.36979L384.15625 62.90104Q384.15625 64.11979 383.6875 65.02604Q383.23438 65.93229 382.35938 66.416664Q381.5 66.90104 380.35938 66.916664L377.98438 66.916664ZM379.10938 59.30729L379.10938 65.99479L380.29688 65.99479Q381.59375 65.99479 382.3125 65.197914Q383.04688 64.385414 383.04688 62.885414L383.04688 62.385414Q383.04688 60.93229 382.35938 60.135414Q381.6875 59.322914 380.42188 59.30729L379.10938 59.30729ZM391.29688 66.916664L385.70312 66.916664L385.70312 66.135414L388.65625 62.854164Q389.3125 62.104164 389.5625 61.65104Q389.8125 61.18229 389.8125 60.68229Q389.8125 60.010414 389.40625 59.58854Q389.01562 59.15104 388.32812 59.15104Q387.53125 59.15104 387.07812 59.61979Q386.625 60.072914 386.625 60.90104L385.54688 60.90104Q385.54688 59.71354 386.29688 58.99479Q387.0625 58.260414 388.32812 58.260414Q389.53125 58.260414 390.21875 58.885414Q390.90625 59.510414 390.90625 60.55729Q390.90625 61.80729 389.29688 63.55729L387.01562 66.02604L391.29688 66.02604L391.29688 66.916664ZM398.07812 63.729164L395.21875 63.729164L395.21875 62.854164L398.07812 62.854164L398.07812 63.729164ZM403.4375 58.385414L406.23438 65.33854L409.01562 58.385414L410.48438 58.385414L410.48438 66.916664L409.35938 66.916664L409.35938 63.58854L409.46875 60.010414L406.65625 66.916664L405.79688 66.916664L403.0 60.02604L403.10938 63.58854L403.10938 66.916664L401.98438 66.916664L401.98438 58.385414L403.4375 58.385414ZM415.73438 66.916664Q415.64062 66.729164 415.57812 66.24479Q414.82812 67.041664 413.78125 67.041664Q412.84375 67.041664 412.23438 66.510414Q411.64062 65.979164 411.64062 65.15104Q411.64062 64.166664 412.39062 63.61979Q413.14062 63.072914 414.51562 63.072914L415.5625 63.072914L415.5625 62.572914Q415.5625 62.010414 415.21875 61.68229Q414.89062 61.33854 414.21875 61.33854Q413.64062 61.33854 413.25 61.635414Q412.85938 61.916664 412.85938 62.33854L411.76562 62.33854Q411.76562 61.854164 412.09375 61.416664Q412.4375 60.979164 413.01562 60.729164Q413.59375 60.46354 414.28125 60.46354Q415.39062 60.46354 416.0 61.010414Q416.625 61.55729 416.65625 62.510414L416.65625 65.43229Q416.65625 66.30729 416.875 66.822914L416.875 66.916664L415.73438 66.916664ZM413.9375 66.08854Q414.45312 66.08854 414.90625 65.822914Q415.35938 65.55729 415.5625 65.135414L415.5625 63.83854L414.71875 63.83854Q412.71875 63.83854 412.71875 65.010414Q412.71875 65.510414 413.0625 65.80729Q413.40625 66.08854 413.9375 66.08854ZM424.17188 63.822914Q424.17188 65.260414 423.51562 66.15104Q422.85938 67.041664 421.71875 67.041664Q420.5625 67.041664 419.90625 66.30729L419.90625 69.354164L418.82812 69.354164L418.82812 60.572914L419.8125 60.572914L419.85938 61.27604Q420.53125 60.46354 421.70312 60.46354Q422.84375 60.46354 423.5 61.322914Q424.17188 62.18229 424.17188 63.71354L424.17188 63.822914ZM423.09375 63.697914Q423.09375 62.61979 422.625 62.010414Q422.17188 61.385414 421.375 61.385414Q420.39062 61.385414 419.90625 62.24479L419.90625 65.27604Q420.39062 66.15104 421.39062 66.15104Q422.17188 66.15104 422.625 65.541664Q423.09375 64.916664 423.09375 63.697914Z" fill-rule="nonzero"/><path fill="#757575" d="M24.39375 31.20625Q21.971874 30.51875 20.878124 29.51875Q19.784374 28.503124 19.784374 27.01875Q19.784374 25.33125 21.128124 24.2375Q22.471874 23.128124 24.6125 23.128124Q26.08125 23.128124 27.221874 23.70625Q28.378124 24.26875 29.003124 25.26875Q29.628124 26.253124 29.628124 27.440624L27.753124 27.440624Q27.753124 26.159374 26.925 25.425Q26.1125 24.675 24.6125 24.675Q23.221874 24.675 22.440624 25.284374Q21.675 25.89375 21.675 26.9875Q21.675 27.846874 22.409374 28.45625Q23.14375 29.05 24.909374 29.55Q26.690624 30.05 27.690624 30.659374Q28.690624 31.253124 29.175 32.05Q29.659374 32.846874 29.659374 33.940624Q29.659374 35.659374 28.315624 36.70625Q26.971874 37.753124 24.70625 37.753124Q23.253124 37.753124 21.971874 37.190624Q20.70625 36.628124 20.01875 35.659374Q19.33125 34.675 19.33125 33.425L21.221874 33.425Q21.221874 34.721874 22.175 35.471874Q23.128124 36.20625 24.70625 36.20625Q26.190624 36.20625 26.9875 35.6125Q27.784374 35.003124 27.784374 33.95625Q27.784374 32.909374 27.05 32.346874Q26.315624 31.76875 24.39375 31.20625ZM34.3625 24.425L34.3625 26.9875L36.346874 26.9875L36.346874 28.378124L34.3625 28.378124L34.3625 34.925Q34.3625 35.565624 34.628124 35.89375Q34.89375 36.20625 35.534374 36.20625Q35.846874 36.20625 36.39375 36.08125L36.39375 37.55Q35.675 37.753124 35.003124 37.753124Q33.8 37.753124 33.175 37.01875Q32.565624 36.284374 32.565624 34.925L32.565624 28.378124L30.64375 28.378124L30.64375 26.9875L32.565624 26.9875L32.565624 24.425L34.3625 24.425ZM38.440624 32.175Q38.440624 30.6125 39.05 29.378124Q39.659374 28.128124 40.7375 27.45625Q41.83125 26.784374 43.2375 26.784374Q45.39375 26.784374 46.721874 28.284374Q48.065624 29.76875 48.065624 32.253124L48.065624 32.378124Q48.065624 33.925 47.471874 35.159374Q46.878124 36.378124 45.76875 37.065624Q44.675 37.753124 43.253124 37.753124Q41.1125 37.753124 39.76875 36.253124Q38.440624 34.753124 38.440624 32.3L38.440624 32.175ZM40.253124 32.378124Q40.253124 34.14375 41.065624 35.20625Q41.89375 36.26875 43.253124 36.26875Q44.628124 36.26875 45.440624 35.190624Q46.253124 34.1125 46.253124 32.175Q46.253124 30.425 45.425 29.346874Q44.596874 28.26875 43.2375 28.26875Q41.89375 28.26875 41.065624 29.33125Q40.253124 30.39375 40.253124 32.378124ZM55.01875 28.596874Q54.6125 28.534374 54.14375 28.534374Q52.3625 28.534374 51.721874 30.05L51.721874 37.55L49.925 37.55L49.925 26.9875L51.675 26.9875L51.70625 28.20625Q52.596874 26.784374 54.221874 26.784374Q54.753124 26.784374 55.01875 26.925L55.01875 28.596874ZM63.440624 37.55Q63.284374 37.2375 63.190624 36.440624Q61.925 37.753124 60.175 37.753124Q58.6125 37.753124 57.6125 36.8625Q56.6125 35.971874 56.6125 34.6125Q56.6125 32.971874 57.8625 32.065624Q59.128124 31.14375 61.39375 31.14375L63.159374 31.14375L63.159374 30.315624Q63.159374 29.3625 62.58125 28.8Q62.01875 28.2375 60.925 28.2375Q59.95625 28.2375 59.3 28.7375Q58.64375 29.221874 58.64375 29.909374L56.83125 29.909374Q56.83125 29.128124 57.39375 28.39375Q57.95625 27.64375 58.909374 27.221874Q59.878124 26.784374 61.034374 26.784374Q62.8625 26.784374 63.89375 27.70625Q64.925 28.6125 64.97188 30.221874L64.97188 35.08125Q64.97188 36.534374 65.33125 37.39375L65.33125 37.55L63.440624 37.55ZM60.440624 36.175Q61.3 36.175 62.05 35.7375Q62.815624 35.3 63.159374 34.596874L63.159374 32.425L61.7375 32.425Q58.425 32.425 58.425 34.3625Q58.425 35.221874 58.9875 35.70625Q59.55 36.175 60.440624 36.175ZM67.4875 32.175Q67.4875 29.70625 68.62813 28.253124Q69.76875 26.784374 71.65938 26.784374Q73.59688 26.784374 74.675 28.159374L74.76875 26.9875L76.40938 26.9875L76.40938 37.3Q76.40938 39.346874 75.19063 40.51875Q73.9875 41.70625 71.925 41.70625Q70.78438 41.70625 69.69063 41.221874Q68.59688 40.7375 68.01875 39.878124L68.95625 38.8Q70.12813 40.2375 71.8 40.2375Q73.12813 40.2375 73.8625 39.4875Q74.59688 38.753124 74.59688 37.409374L74.59688 36.4875Q73.51875 37.753124 71.64375 37.753124Q69.78438 37.753124 68.62813 36.253124Q67.4875 34.753124 67.4875 32.175ZM69.3 32.378124Q69.3 34.175 70.03438 35.190624Q70.76875 36.20625 72.08125 36.20625Q73.8 36.20625 74.59688 34.659374L74.59688 29.83125Q73.76875 28.315624 72.1125 28.315624Q70.78438 28.315624 70.03438 29.346874Q69.3 30.378124 69.3 32.378124ZM83.3 37.753124Q81.15938 37.753124 79.8 36.346874Q78.45625 34.925 78.45625 32.565624L78.45625 32.221874Q78.45625 30.659374 79.05 29.425Q79.65938 28.190624 80.7375 27.4875Q81.81563 26.784374 83.08125 26.784374Q85.14375 26.784374 86.28438 28.14375Q87.425 29.503124 87.425 32.034374L87.425 32.784374L80.26875 32.784374Q80.3 34.346874 81.175 35.315624Q82.05 36.26875 83.39375 36.26875Q84.3625 36.26875 85.01875 35.878124Q85.69063 35.4875 86.19063 34.846874L87.28438 35.70625Q85.95625 37.753124 83.3 37.753124ZM83.08125 28.26875Q81.9875 28.26875 81.2375 29.065624Q80.50313 29.8625 80.33125 31.3L85.6125 31.3L85.6125 31.159374Q85.53438 29.784374 84.8625 29.034374Q84.20625 28.26875 83.08125 28.26875ZM100.40938 31.8L97.08125 31.8L97.08125 37.55L95.19063 37.55L95.19063 23.33125L99.89375 23.33125Q102.3 23.33125 103.59688 24.425Q104.89375 25.51875 104.89375 27.6125Q104.89375 28.940624 104.175 29.925Q103.45625 30.909374 102.175 31.39375L105.51875 37.425L105.51875 37.55L103.50313 37.55L100.40938 31.8ZM97.08125 30.26875L99.95625 30.26875Q101.34688 30.26875 102.175 29.55Q103.00313 28.815624 103.00313 27.6125Q103.00313 26.284374 102.20625 25.58125Q101.425 24.878124 99.94063 24.878124L97.08125 24.878124L97.08125 30.26875ZM115.2375 30.971874L109.08125 30.971874L109.08125 36.01875L116.2375 36.01875L116.2375 37.55L107.20625 37.55L107.20625 23.33125L116.14375 23.33125L116.14375 24.878124L109.08125 24.878124L109.08125 29.440624L115.2375 29.440624L115.2375 30.971874ZM126.05 33.83125L120.09688 33.83125L118.75313 37.55L116.83125 37.55L122.25313 23.33125L123.89375 23.33125L129.33125 37.55L127.40938 37.55L126.05 33.83125ZM120.65938 32.3L125.50313 32.3L123.08125 25.64375L120.65938 32.3ZM131.20625 37.55L131.20625 23.33125L135.22188 23.33125Q137.06563 23.33125 138.4875 24.159374Q139.925 24.971874 140.69063 26.4875Q141.47188 28.003124 141.4875 29.95625L141.4875 30.8625Q141.4875 32.878124 140.70625 34.39375Q139.925 35.909374 138.4875 36.721874Q137.05 37.534374 135.14375 37.55L131.20625 37.55ZM133.08125 24.878124L133.08125 36.01875L135.05 36.01875Q137.22188 36.01875 138.425 34.675Q139.62813 33.315624 139.62813 30.83125L139.62813 30.003124Q139.62813 27.58125 138.4875 26.2375Q137.34688 24.89375 135.26875 24.878124L133.08125 24.878124ZM153.15938 36.26875Q154.12813 36.26875 154.84688 35.690624Q155.56563 35.096874 155.64375 34.221874L157.3625 34.221874Q157.3 35.128124 156.72188 35.95625Q156.15938 36.76875 155.19063 37.26875Q154.2375 37.753124 153.15938 37.753124Q151.00313 37.753124 149.72188 36.315624Q148.45625 34.8625 148.45625 32.3625L148.45625 32.065624Q148.45625 30.51875 149.01875 29.315624Q149.58125 28.1125 150.64375 27.45625Q151.70625 26.784374 153.14375 26.784374Q154.925 26.784374 156.09688 27.846874Q157.28438 28.909374 157.3625 30.6125L155.64375 30.6125Q155.56563 29.596874 154.8625 28.940624Q154.175 28.26875 153.14375 28.26875Q151.76875 28.26875 151.00313 29.26875Q150.25313 30.253124 150.25313 32.128124L150.25313 32.471874Q150.25313 34.3 151.00313 35.284374Q151.75313 36.26875 153.15938 36.26875ZM158.44063 32.175Q158.44063 30.6125 159.05 29.378124Q159.65938 28.128124 160.7375 27.45625Q161.83125 26.784374 163.2375 26.784374Q165.39375 26.784374 166.72188 28.284374Q168.06563 29.76875 168.06563 32.253124L168.06563 32.378124Q168.06563 33.925 167.47188 35.159374Q166.87813 36.378124 165.76875 37.065624Q164.675 37.753124 163.25313 37.753124Q161.1125 37.753124 159.76875 36.253124Q158.44063 34.753124 158.44063 32.3L158.44063 32.175ZM160.25313 32.378124Q160.25313 34.14375 161.06563 35.20625Q161.89375 36.26875 163.25313 36.26875Q164.62813 36.26875 165.44063 35.190624Q166.25313 34.1125 166.25313 32.175Q166.25313 30.425 165.425 29.346874Q164.59688 28.26875 163.2375 28.26875Q161.89375 28.26875 161.06563 29.33125Q160.25313 30.39375 160.25313 32.378124ZM176.06563 34.753124Q176.06563 34.01875 175.51875 33.6125Q174.97188 33.20625 173.59688 32.909374Q172.22188 32.6125 171.40938 32.20625Q170.6125 31.8 170.22188 31.2375Q169.84688 30.659374 169.84688 29.878124Q169.84688 28.58125 170.94063 27.690624Q172.03438 26.784374 173.75313 26.784374Q175.55 26.784374 176.65938 27.721874Q177.78438 28.64375 177.78438 30.08125L175.95625 30.08125Q175.95625 29.346874 175.33125 28.815624Q174.70625 28.26875 173.75313 28.26875Q172.75313 28.26875 172.19063 28.70625Q171.64375 29.128124 171.64375 29.83125Q171.64375 30.471874 172.15938 30.815624Q172.675 31.14375 174.03438 31.45625Q175.39375 31.753124 176.22188 32.175Q177.06563 32.58125 177.47188 33.175Q177.87813 33.76875 177.87813 34.6125Q177.87813 36.034374 176.7375 36.89375Q175.6125 37.753124 173.8 37.753124Q172.53438 37.753124 171.55 37.3Q170.58125 36.846874 170.01875 36.05Q169.47188 35.2375 169.47188 34.3L171.28438 34.3Q171.33125 35.20625 172.00313 35.7375Q172.69063 36.26875 173.8 36.26875Q174.83125 36.26875 175.44063 35.8625Q176.06563 35.440624 176.06563 34.753124ZM182.3625 24.425L182.3625 26.9875L184.34688 26.9875L184.34688 28.378124L182.3625 28.378124L182.3625 34.925Q182.3625 35.565624 182.62813 35.89375Q182.89375 36.20625 183.53438 36.20625Q183.84688 36.20625 184.39375 36.08125L184.39375 37.55Q183.675 37.753124 183.00313 37.753124Q181.8 37.753124 181.175 37.01875Q180.56563 36.284374 180.56563 34.925L180.56563 28.378124L178.64375 28.378124L178.64375 26.9875L180.56563 26.9875L180.56563 24.425L182.3625 24.425Z" fill-rule="nonzero"/></svg>
