
<svg version="1.1" viewBox="0.0 0.0 600.0 371.0" fill="none" stroke="none" stroke-linecap="square" stroke-miterlimit="10" xmlns:xlink="http://www.w3.org/1999/xlink" xmlns="http://www.w3.org/2000/svg"><path fill="#ffffff" d="M0 0L600.0 0L600.0 371.0L0 371.0L0 0Z" fill-rule="nonzero"/><path stroke="#333333" stroke-width="1.0" stroke-linecap="butt" d="M85.5 82.5L85.5 298.5" fill-rule="nonzero"/><path stroke="#cccccc" stroke-width="1.0" stroke-linecap="butt" d="M209.5 82.5L209.5 298.5" fill-rule="nonzero"/><path stroke="#cccccc" stroke-width="1.0" stroke-linecap="butt" d="M333.5 82.5L333.5 298.5" fill-rule="nonzero"/><path stroke="#cccccc" stroke-width="1.0" stroke-linecap="butt" d="M457.5 82.5L457.5 298.5" fill-rule="nonzero"/><path stroke="#cccccc" stroke-width="1.0" stroke-linecap="butt" d="M581.5 82.5L581.5 298.5" fill-rule="nonzero"/><clipPath id="id_0"><path d="M85.55 82.28333L581.45 82.28333L581.45 298.45L85.55 298.45L85.55 82.28333Z" clip-rule="nonzero"/></clipPath><path stroke="#000000" stroke-width="2.0" stroke-linecap="butt" stroke-opacity="0.0" clip-path="url(#id_0)" d="M86.0 93.0L86.0 90.0L86.5 90.0C86.776146 90.0 87.0 90.223854 87.0 90.5L87.0 92.5C87.0 92.776146 86.776146 93.0 86.5 93.0Z" fill-rule="nonzero"/><path fill="#4285f4" clip-path="url(#id_0)" d="M86.0 93.0L86.0 90.0L86.5 90.0C86.776146 90.0 87.0 90.223854 87.0 90.5L87.0 92.5C87.0 92.776146 86.776146 93.0 86.5 93.0Z" fill-rule="nonzero"/><path stroke="#000000" stroke-width="2.0" stroke-linecap="butt" stroke-opacity="0.0" clip-path="url(#id_0)" d="M86.0 114.0L86.0 111.0L98.5 111.0C99.32843 111.0 100.0 111.67157 100.0 112.5L100.0 112.5C100.0 113.32843 99.32843 114.0 98.5 114.0Z" fill-rule="nonzero"/><path fill="#4285f4" clip-path="url(#id_0)" d="M86.0 114.0L86.0 111.0L98.5 111.0C99.32843 111.0 100.0 111.67157 100.0 112.5L100.0 112.5C100.0 113.32843 99.32843 114.0 98.5 114.0Z" fill-rule="nonzero"/><path stroke="#000000" stroke-width="2.0" stroke-linecap="butt" stroke-opacity="0.0" clip-path="url(#id_0)" d="M86.0 135.0L86.0 132.0L111.5 132.0C112.32843 132.0 113.0 132.67157 113.0 133.5L113.0 133.5C113.0 134.32843 112.32843 135.0 111.5 135.0Z" fill-rule="nonzero"/><path fill="#4285f4" clip-path="url(#id_0)" d="M86.0 135.0L86.0 132.0L111.5 132.0C112.32843 132.0 113.0 132.67157 113.0 133.5L113.0 133.5C113.0 134.32843 112.32843 135.0 111.5 135.0Z" fill-rule="nonzero"/><path stroke="#000000" stroke-width="2.0" stroke-linecap="butt" stroke-opacity="0.0" clip-path="url(#id_0)" d="M86.0 156.0L86.0 153.0L125.5 153.0C126.32843 153.0 127.0 153.67157 127.0 154.5L127.0 154.5C127.0 155.32843 126.32843 156.0 125.5 156.0Z" fill-rule="nonzero"/><path fill="#4285f4" clip-path="url(#id_0)" d="M86.0 156.0L86.0 153.0L125.5 153.0C126.32843 153.0 127.0 153.67157 127.0 154.5L127.0 154.5C127.0 155.32843 126.32843 156.0 125.5 156.0Z" fill-rule="nonzero"/><path stroke="#000000" stroke-width="2.0" stroke-linecap="butt" stroke-opacity="0.0" clip-path="url(#id_0)" d="M86.0 177.0L86.0 174.0L125.5 174.0C126.32843 174.0 127.0 174.67157 127.0 175.5L127.0 175.5C127.0 176.32843 126.32843 177.0 125.5 177.0Z" fill-rule="nonzero"/><path fill="#4285f4" clip-path="url(#id_0)" d="M86.0 177.0L86.0 174.0L125.5 174.0C126.32843 174.0 127.0 174.67157 127.0 175.5L127.0 175.5C127.0 176.32843 126.32843 177.0 125.5 177.0Z" fill-rule="nonzero"/><path stroke="#000000" stroke-width="2.0" stroke-linecap="butt" stroke-opacity="0.0" clip-path="url(#id_0)" d="M86.0 198.0L86.0 195.0L139.5 195.0C140.32843 195.0 141.0 195.67157 141.0 196.5L141.0 196.5C141.0 197.32843 140.32843 198.0 139.5 198.0Z" fill-rule="nonzero"/><path fill="#4285f4" clip-path="url(#id_0)" d="M86.0 198.0L86.0 195.0L139.5 195.0C140.32843 195.0 141.0 195.67157 141.0 196.5L141.0 196.5C141.0 197.32843 140.32843 198.0 139.5 198.0Z" fill-rule="nonzero"/><path stroke="#000000" stroke-width="2.0" stroke-linecap="butt" stroke-opacity="0.0" clip-path="url(#id_0)" d="M86.0 219.0L86.0 216.0L153.5 216.0C154.32843 216.0 155.0 216.67157 155.0 217.5L155.0 217.5C155.0 218.32843 154.32843 219.0 153.5 219.0Z" fill-rule="nonzero"/><path fill="#4285f4" clip-path="url(#id_0)" d="M86.0 219.0L86.0 216.0L153.5 216.0C154.32843 216.0 155.0 216.67157 155.0 217.5L155.0 217.5C155.0 218.32843 154.32843 219.0 153.5 219.0Z" fill-rule="nonzero"/><path stroke="#000000" stroke-width="2.0" stroke-linecap="butt" stroke-opacity="0.0" clip-path="url(#id_0)" d="M86.0 240.0L86.0 237.0L208.5 237.0C209.32843 237.0 210.0 237.67157 210.0 238.5L210.0 238.5C210.0 239.32843 209.32843 240.0 208.5 240.0Z" fill-rule="nonzero"/><path fill="#4285f4" clip-path="url(#id_0)" d="M86.0 240.0L86.0 237.0L208.5 237.0C209.32843 237.0 210.0 237.67157 210.0 238.5L210.0 238.5C210.0 239.32843 209.32843 240.0 208.5 240.0Z" fill-rule="nonzero"/><path stroke="#000000" stroke-width="2.0" stroke-linecap="butt" stroke-opacity="0.0" clip-path="url(#id_0)" d="M86.0 260.0L86.0 257.0L317.5 257.0C318.32843 257.0 319.0 257.67157 319.0 258.5L319.0 258.5C319.0 259.32843 318.32843 260.0 317.5 260.0Z" fill-rule="nonzero"/><path fill="#4285f4" clip-path="url(#id_0)" d="M86.0 260.0L86.0 257.0L317.5 257.0C318.32843 257.0 319.0 257.67157 319.0 258.5L319.0 258.5C319.0 259.32843 318.32843 260.0 317.5 260.0Z" fill-rule="nonzero"/><path stroke="#000000" stroke-width="2.0" stroke-linecap="butt" stroke-opacity="0.0" clip-path="url(#id_0)" d="M86.0 281.0L86.0 278.0L537.5 278.0C538.3284 278.0 539.0 278.67157 539.0 279.5L539.0 279.5C539.0 280.32843 538.3284 281.0 537.5 281.0Z" fill-rule="nonzero"/><path fill="#4285f4" clip-path="url(#id_0)" d="M86.0 281.0L86.0 278.0L537.5 278.0C538.3284 278.0 539.0 278.67157 539.0 279.5L539.0 279.5C539.0 280.32843 538.3284 281.0 537.5 281.0Z" fill-rule="nonzero"/><path stroke="#000000" stroke-width="2.0" stroke-linecap="butt" stroke-opacity="0.0" clip-path="url(#id_0)" d="M86.0 98.0L86.0 95.0L105.5 95.0C106.32843 95.0 107.0 95.67157 107.0 96.5L107.0 96.5C107.0 97.32843 106.32843 98.0 105.5 98.0Z" fill-rule="nonzero"/><path fill="#db4437" clip-path="url(#id_0)" d="M86.0 98.0L86.0 95.0L105.5 95.0C106.32843 95.0 107.0 95.67157 107.0 96.5L107.0 96.5C107.0 97.32843 106.32843 98.0 105.5 98.0Z" fill-rule="nonzero"/><path stroke="#000000" stroke-width="2.0" stroke-linecap="butt" stroke-opacity="0.0" clip-path="url(#id_0)" d="M86.0 119.0L86.0 116.0L106.5 116.0C107.32843 116.0 108.0 116.67157 108.0 117.5L108.0 117.5C108.0 118.32843 107.32843 119.0 106.5 119.0Z" fill-rule="nonzero"/><path fill="#db4437" clip-path="url(#id_0)" d="M86.0 119.0L86.0 116.0L106.5 116.0C107.32843 116.0 108.0 116.67157 108.0 117.5L108.0 117.5C108.0 118.32843 107.32843 119.0 106.5 119.0Z" fill-rule="nonzero"/><path stroke="#000000" stroke-width="2.0" stroke-linecap="butt" stroke-opacity="0.0" clip-path="url(#id_0)" d="M86.0 140.0L86.0 137.0L110.5 137.0C111.32843 137.0 112.0 137.67157 112.0 138.5L112.0 138.5C112.0 139.32843 111.32843 140.0 110.5 140.0Z" fill-rule="nonzero"/><path fill="#db4437" clip-path="url(#id_0)" d="M86.0 140.0L86.0 137.0L110.5 137.0C111.32843 137.0 112.0 137.67157 112.0 138.5L112.0 138.5C112.0 139.32843 111.32843 140.0 110.5 140.0Z" fill-rule="nonzero"/><path stroke="#000000" stroke-width="2.0" stroke-linecap="butt" stroke-opacity="0.0" clip-path="url(#id_0)" d="M86.0 161.0L86.0 158.0L110.5 158.0C111.32843 158.0 112.0 158.67157 112.0 159.5L112.0 159.5C112.0 160.32843 111.32843 161.0 110.5 161.0Z" fill-rule="nonzero"/><path fill="#db4437" clip-path="url(#id_0)" d="M86.0 161.0L86.0 158.0L110.5 158.0C111.32843 158.0 112.0 158.67157 112.0 159.5L112.0 159.5C112.0 160.32843 111.32843 161.0 110.5 161.0Z" fill-rule="nonzero"/><path stroke="#000000" stroke-width="2.0" stroke-linecap="butt" stroke-opacity="0.0" clip-path="url(#id_0)" d="M86.0 182.0L86.0 179.0L114.5 179.0C115.32843 179.0 116.0 179.67157 116.0 180.5L116.0 180.5C116.0 181.32843 115.32843 182.0 114.5 182.0Z" fill-rule="nonzero"/><path fill="#db4437" clip-path="url(#id_0)" d="M86.0 182.0L86.0 179.0L114.5 179.0C115.32843 179.0 116.0 179.67157 116.0 180.5L116.0 180.5C116.0 181.32843 115.32843 182.0 114.5 182.0Z" fill-rule="nonzero"/><path stroke="#000000" stroke-width="2.0" stroke-linecap="butt" stroke-opacity="0.0" clip-path="url(#id_0)" d="M86.0 203.0L86.0 200.0L118.5 200.0C119.32843 200.0 120.0 200.67157 120.0 201.5L120.0 201.5C120.0 202.32843 119.32843 203.0 118.5 203.0Z" fill-rule="nonzero"/><path fill="#db4437" clip-path="url(#id_0)" d="M86.0 203.0L86.0 200.0L118.5 200.0C119.32843 200.0 120.0 200.67157 120.0 201.5L120.0 201.5C120.0 202.32843 119.32843 203.0 118.5 203.0Z" fill-rule="nonzero"/><path stroke="#000000" stroke-width="2.0" stroke-linecap="butt" stroke-opacity="0.0" clip-path="url(#id_0)" d="M86.0 224.0L86.0 221.0L122.5 221.0C123.32843 221.0 124.0 221.67157 124.0 222.5L124.0 222.5C124.0 223.32843 123.32843 224.0 122.5 224.0Z" fill-rule="nonzero"/><path fill="#db4437" clip-path="url(#id_0)" d="M86.0 224.0L86.0 221.0L122.5 221.0C123.32843 221.0 124.0 221.67157 124.0 222.5L124.0 222.5C124.0 223.32843 123.32843 224.0 122.5 224.0Z" fill-rule="nonzero"/><path stroke="#000000" stroke-width="2.0" stroke-linecap="butt" stroke-opacity="0.0" clip-path="url(#id_0)" d="M86.0 245.0L86.0 242.0L138.5 242.0C139.32843 242.0 140.0 242.67157 140.0 243.5L140.0 243.5C140.0 244.32843 139.32843 245.0 138.5 245.0Z" fill-rule="nonzero"/><path fill="#db4437" clip-path="url(#id_0)" d="M86.0 245.0L86.0 242.0L138.5 242.0C139.32843 242.0 140.0 242.67157 140.0 243.5L140.0 243.5C140.0 244.32843 139.32843 245.0 138.5 245.0Z" fill-rule="nonzero"/><path stroke="#000000" stroke-width="2.0" stroke-linecap="butt" stroke-opacity="0.0" clip-path="url(#id_0)" d="M86.0 265.0L86.0 262.0L171.5 262.0C172.32843 262.0 173.0 262.67157 173.0 263.5L173.0 263.5C173.0 264.32843 172.32843 265.0 171.5 265.0Z" fill-rule="nonzero"/><path fill="#db4437" clip-path="url(#id_0)" d="M86.0 265.0L86.0 262.0L171.5 262.0C172.32843 262.0 173.0 262.67157 173.0 263.5L173.0 263.5C173.0 264.32843 172.32843 265.0 171.5 265.0Z" fill-rule="nonzero"/><path stroke="#000000" stroke-width="2.0" stroke-linecap="butt" stroke-opacity="0.0" clip-path="url(#id_0)" d="M86.0 286.0L86.0 283.0L236.5 283.0C237.32843 283.0 238.0 283.67157 238.0 284.5L238.0 284.5C238.0 285.32843 237.32843 286.0 236.5 286.0Z" fill-rule="nonzero"/><path fill="#db4437" clip-path="url(#id_0)" d="M86.0 286.0L86.0 283.0L236.5 283.0C237.32843 283.0 238.0 283.67157 238.0 284.5L238.0 284.5C238.0 285.32843 237.32843 286.0 236.5 286.0Z" fill-rule="nonzero"/><path stroke="#000000" stroke-width="2.0" stroke-linecap="butt" stroke-opacity="0.0" clip-path="url(#id_0)" d="M86.0 103.0L86.0 100.0L129.5 100.0C130.32843 100.0 131.0 100.67157 131.0 101.5L131.0 101.5C131.0 102.32843 130.32843 103.0 129.5 103.0Z" fill-rule="nonzero"/><path fill="#f4b400" clip-path="url(#id_0)" d="M86.0 103.0L86.0 100.0L129.5 100.0C130.32843 100.0 131.0 100.67157 131.0 101.5L131.0 101.5C131.0 102.32843 130.32843 103.0 129.5 103.0Z" fill-rule="nonzero"/><path stroke="#000000" stroke-width="2.0" stroke-linecap="butt" stroke-opacity="0.0" clip-path="url(#id_0)" d="M86.0 124.0L86.0 121.0L129.5 121.0C130.32843 121.0 131.0 121.67157 131.0 122.5L131.0 122.5C131.0 123.32843 130.32843 124.0 129.5 124.0Z" fill-rule="nonzero"/><path fill="#f4b400" clip-path="url(#id_0)" d="M86.0 124.0L86.0 121.0L129.5 121.0C130.32843 121.0 131.0 121.67157 131.0 122.5L131.0 122.5C131.0 123.32843 130.32843 124.0 129.5 124.0Z" fill-rule="nonzero"/><path stroke="#000000" stroke-width="2.0" stroke-linecap="butt" stroke-opacity="0.0" clip-path="url(#id_0)" d="M86.0 145.0L86.0 142.0L133.5 142.0C134.32843 142.0 135.0 142.67157 135.0 143.5L135.0 143.5C135.0 144.32843 134.32843 145.0 133.5 145.0Z" fill-rule="nonzero"/><path fill="#f4b400" clip-path="url(#id_0)" d="M86.0 145.0L86.0 142.0L133.5 142.0C134.32843 142.0 135.0 142.67157 135.0 143.5L135.0 143.5C135.0 144.32843 134.32843 145.0 133.5 145.0Z" fill-rule="nonzero"/><path stroke="#000000" stroke-width="2.0" stroke-linecap="butt" stroke-opacity="0.0" clip-path="url(#id_0)" d="M86.0 166.0L86.0 163.0L133.5 163.0C134.32843 163.0 135.0 163.67157 135.0 164.5L135.0 164.5C135.0 165.32843 134.32843 166.0 133.5 166.0Z" fill-rule="nonzero"/><path fill="#f4b400" clip-path="url(#id_0)" d="M86.0 166.0L86.0 163.0L133.5 163.0C134.32843 163.0 135.0 163.67157 135.0 164.5L135.0 164.5C135.0 165.32843 134.32843 166.0 133.5 166.0Z" fill-rule="nonzero"/><path stroke="#000000" stroke-width="2.0" stroke-linecap="butt" stroke-opacity="0.0" clip-path="url(#id_0)" d="M86.0 187.0L86.0 184.0L137.5 184.0C138.32843 184.0 139.0 184.67157 139.0 185.5L139.0 185.5C139.0 186.32843 138.32843 187.0 137.5 187.0Z" fill-rule="nonzero"/><path fill="#f4b400" clip-path="url(#id_0)" d="M86.0 187.0L86.0 184.0L137.5 184.0C138.32843 184.0 139.0 184.67157 139.0 185.5L139.0 185.5C139.0 186.32843 138.32843 187.0 137.5 187.0Z" fill-rule="nonzero"/><path stroke="#000000" stroke-width="2.0" stroke-linecap="butt" stroke-opacity="0.0" clip-path="url(#id_0)" d="M86.0 208.0L86.0 205.0L142.5 205.0C143.32843 205.0 144.0 205.67157 144.0 206.5L144.0 206.5C144.0 207.32843 143.32843 208.0 142.5 208.0Z" fill-rule="nonzero"/><path fill="#f4b400" clip-path="url(#id_0)" d="M86.0 208.0L86.0 205.0L142.5 205.0C143.32843 205.0 144.0 205.67157 144.0 206.5L144.0 206.5C144.0 207.32843 143.32843 208.0 142.5 208.0Z" fill-rule="nonzero"/><path stroke="#000000" stroke-width="2.0" stroke-linecap="butt" stroke-opacity="0.0" clip-path="url(#id_0)" d="M86.0 229.0L86.0 226.0L146.5 226.0C147.32843 226.0 148.0 226.67157 148.0 227.5L148.0 227.5C148.0 228.32843 147.32843 229.0 146.5 229.0Z" fill-rule="nonzero"/><path fill="#f4b400" clip-path="url(#id_0)" d="M86.0 229.0L86.0 226.0L146.5 226.0C147.32843 226.0 148.0 226.67157 148.0 227.5L148.0 227.5C148.0 228.32843 147.32843 229.0 146.5 229.0Z" fill-rule="nonzero"/><path stroke="#000000" stroke-width="2.0" stroke-linecap="butt" stroke-opacity="0.0" clip-path="url(#id_0)" d="M86.0 250.0L86.0 247.0L162.5 247.0C163.32843 247.0 164.0 247.67157 164.0 248.5L164.0 248.5C164.0 249.32843 163.32843 250.0 162.5 250.0Z" fill-rule="nonzero"/><path fill="#f4b400" clip-path="url(#id_0)" d="M86.0 250.0L86.0 247.0L162.5 247.0C163.32843 247.0 164.0 247.67157 164.0 248.5L164.0 248.5C164.0 249.32843 163.32843 250.0 162.5 250.0Z" fill-rule="nonzero"/><path stroke="#000000" stroke-width="2.0" stroke-linecap="butt" stroke-opacity="0.0" clip-path="url(#id_0)" d="M86.0 270.0L86.0 267.0L195.5 267.0C196.32843 267.0 197.0 267.67157 197.0 268.5L197.0 268.5C197.0 269.32843 196.32843 270.0 195.5 270.0Z" fill-rule="nonzero"/><path fill="#f4b400" clip-path="url(#id_0)" d="M86.0 270.0L86.0 267.0L195.5 267.0C196.32843 267.0 197.0 267.67157 197.0 268.5L197.0 268.5C197.0 269.32843 196.32843 270.0 195.5 270.0Z" fill-rule="nonzero"/><path stroke="#000000" stroke-width="2.0" stroke-linecap="butt" stroke-opacity="0.0" clip-path="url(#id_0)" d="M86.0 291.0L86.0 288.0L261.5 288.0C262.32843 288.0 263.0 288.67157 263.0 289.5L263.0 289.5C263.0 290.32843 262.32843 291.0 261.5 291.0Z" fill-rule="nonzero"/><path fill="#f4b400" clip-path="url(#id_0)" d="M86.0 291.0L86.0 288.0L261.5 288.0C262.32843 288.0 263.0 288.67157 263.0 289.5L263.0 289.5C263.0 290.32843 262.32843 291.0 261.5 291.0Z" fill-rule="nonzero"/><path fill="#424242" d="M317.29688 348.325Q316.85938 348.95 316.07812 349.2625Q315.29688 349.575 314.26562 349.575Q313.23438 349.575 312.42188 349.09064Q311.60938 348.59064 311.17188 347.6844Q310.73438 346.77814 310.71875 345.59064L310.71875 344.85626Q310.71875 342.91876 311.60938 341.85626Q312.51562 340.79376 314.14062 340.79376Q315.48438 340.79376 316.29688 341.48126Q317.10938 342.16876 317.29688 343.41876L316.17188 343.41876Q315.84375 341.73126 314.15625 341.73126Q313.01562 341.73126 312.4375 342.52814Q311.85938 343.3094 311.84375 344.825L311.84375 345.5125Q311.84375 346.95 312.5 347.8094Q313.15625 348.65314 314.28125 348.65314Q314.90625 348.65314 315.375 348.5125Q315.85938 348.3719 316.17188 348.02814L316.17188 346.1219L314.20312 346.1219L314.20312 345.2L317.29688 345.2L317.29688 348.325ZM322.73438 349.45Q322.64062 349.2625 322.57812 348.77814Q321.82812 349.575 320.78125 349.575Q319.84375 349.575 319.23438 349.04376Q318.64062 348.5125 318.64062 347.6844Q318.64062 346.7 319.39062 346.15314Q320.14062 345.60626 321.51562 345.60626L322.5625 345.60626L322.5625 345.10626Q322.5625 344.54376 322.21875 344.21564Q321.89062 343.8719 321.21875 343.8719Q320.64062 343.8719 320.25 344.16876Q319.85938 344.45 319.85938 344.8719L318.76562 344.8719Q318.76562 344.3875 319.09375 343.95Q319.4375 343.5125 320.01562 343.2625Q320.59375 342.9969 321.28125 342.9969Q322.39062 342.9969 323.0 343.54376Q323.625 344.09064 323.65625 345.04376L323.65625 347.96564Q323.65625 348.84064 323.875 349.35626L323.875 349.45L322.73438 349.45ZM320.9375 348.6219Q321.45312 348.6219 321.90625 348.35626Q322.35938 348.09064 322.5625 347.66876L322.5625 346.3719L321.71875 346.3719Q319.71875 346.3719 319.71875 347.54376Q319.71875 348.04376 320.0625 348.34064Q320.40625 348.6219 320.9375 348.6219ZM329.51562 347.7625Q329.51562 347.325 329.17188 347.09064Q328.84375 346.84064 328.01562 346.66876Q327.20312 346.4969 326.71875 346.2469Q326.23438 345.9969 326.0 345.66876Q325.78125 345.325 325.78125 344.85626Q325.78125 344.075 326.4375 343.54376Q327.09375 342.9969 328.125 342.9969Q329.20312 342.9969 329.85938 343.5594Q330.53125 344.10626 330.53125 344.96564L329.45312 344.96564Q329.45312 344.52814 329.0625 344.21564Q328.6875 343.8875 328.125 343.8875Q327.53125 343.8875 327.1875 344.15314Q326.85938 344.40314 326.85938 344.8094Q326.85938 345.2 327.17188 345.40314Q327.48438 345.60626 328.29688 345.79376Q329.10938 345.96564 329.60938 346.21564Q330.10938 346.46564 330.34375 346.825Q330.59375 347.1844 330.59375 347.6844Q330.59375 348.54376 329.90625 349.0594Q329.23438 349.575 328.15625 349.575Q327.39062 349.575 326.79688 349.3094Q326.21875 349.02814 325.89062 348.54376Q325.5625 348.0594 325.5625 347.4969L326.64062 347.4969Q326.67188 348.04376 327.07812 348.3719Q327.48438 348.6844 328.15625 348.6844Q328.76562 348.6844 329.14062 348.4344Q329.51562 348.1844 329.51562 347.7625ZM337.35938 348.6844Q337.9375 348.6844 338.375 348.34064Q338.8125 347.98126 338.85938 347.45L339.89062 347.45Q339.85938 347.9969 339.5 348.4969Q339.15625 348.98126 338.57812 349.27814Q338.01562 349.575 337.35938 349.575Q336.0625 349.575 335.29688 348.71564Q334.54688 347.84064 334.54688 346.34064L334.54688 346.15314Q334.54688 345.23126 334.875 344.5125Q335.21875 343.79376 335.84375 343.40314Q336.48438 342.9969 337.35938 342.9969Q338.42188 342.9969 339.125 343.6375Q339.84375 344.2625 339.89062 345.29376L338.85938 345.29376Q338.8125 344.66876 338.39062 344.27814Q337.96875 343.8875 337.35938 343.8875Q336.53125 343.8875 336.07812 344.48126Q335.625 345.075 335.625 346.2L335.625 346.40314Q335.625 347.4969 336.07812 348.09064Q336.53125 348.6844 337.35938 348.6844ZM340.53125 346.21564Q340.53125 345.29376 340.89062 344.54376Q341.26562 343.79376 341.92188 343.40314Q342.57812 342.9969 343.40625 342.9969Q344.70312 342.9969 345.5 343.8875Q346.3125 344.77814 346.3125 346.27814L346.3125 346.35626Q346.3125 347.27814 345.95312 348.0125Q345.59375 348.7469 344.9375 349.16876Q344.28125 349.575 343.42188 349.575Q342.14062 349.575 341.32812 348.6844Q340.53125 347.77814 340.53125 346.29376L340.53125 346.21564ZM341.625 346.35626Q341.625 347.40314 342.10938 348.04376Q342.60938 348.6844 343.42188 348.6844Q344.25 348.6844 344.73438 348.04376Q345.21875 347.3875 345.21875 346.21564Q345.21875 345.1844 344.71875 344.54376Q344.23438 343.8875 343.40625 343.8875Q342.60938 343.8875 342.10938 344.52814Q341.625 345.15314 341.625 346.35626ZM351.51562 347.7625Q351.51562 347.325 351.17188 347.09064Q350.84375 346.84064 350.01562 346.66876Q349.20312 346.4969 348.71875 346.2469Q348.23438 345.9969 348.0 345.66876Q347.78125 345.325 347.78125 344.85626Q347.78125 344.075 348.4375 343.54376Q349.09375 342.9969 350.125 342.9969Q351.20312 342.9969 351.85938 343.5594Q352.53125 344.10626 352.53125 344.96564L351.45312 344.96564Q351.45312 344.52814 351.0625 344.21564Q350.6875 343.8875 350.125 343.8875Q349.53125 343.8875 349.1875 344.15314Q348.85938 344.40314 348.85938 344.8094Q348.85938 345.2 349.17188 345.40314Q349.48438 345.60626 350.29688 345.79376Q351.10938 345.96564 351.60938 346.21564Q352.10938 346.46564 352.34375 346.825Q352.59375 347.1844 352.59375 347.6844Q352.59375 348.54376 351.90625 349.0594Q351.23438 349.575 350.15625 349.575Q349.39062 349.575 348.79688 349.3094Q348.21875 349.02814 347.89062 348.54376Q347.5625 348.0594 347.5625 347.4969L348.64062 347.4969Q348.67188 348.04376 349.07812 348.3719Q349.48438 348.6844 350.15625 348.6844Q350.76562 348.6844 351.14062 348.4344Q351.51562 348.1844 351.51562 347.7625ZM355.29688 341.575L355.29688 343.10626L356.46875 343.10626L356.46875 343.95L355.29688 343.95L355.29688 347.8719Q355.29688 348.2625 355.45312 348.45Q355.60938 348.6375 355.98438 348.6375Q356.17188 348.6375 356.5 348.575L356.5 349.45Q356.07812 349.575 355.67188 349.575Q354.95312 349.575 354.57812 349.1375Q354.20312 348.6844 354.20312 347.8719L354.20312 343.95L353.04688 343.95L353.04688 343.10626L354.20312 343.10626L354.20312 341.575L355.29688 341.575Z" fill-rule="nonzero"/><path fill="#424242" d="M26.753138 228.36667Q26.331263 229.80417 25.721888 230.47604Q25.112513 231.1323 24.221888 231.1323Q23.221888 231.1323 22.565638 230.33542Q21.893763 229.52292 21.893763 228.22604Q21.893763 227.35104 22.237513 226.66354Q22.581263 225.97604 23.175013 225.60104Q23.768763 225.21042 24.487513 225.21042L24.487513 226.35104Q23.706263 226.35104 23.268763 226.85104Q22.831263 227.33542 22.831263 228.22604Q22.831263 229.05417 23.206263 229.52292Q23.565638 229.99167 24.206263 229.99167Q24.737513 229.99167 25.096888 229.55417Q25.456263 229.10104 25.753138 228.03854Q26.050013 226.97604 26.409388 226.3823Q26.768763 225.77292 27.253138 225.49167Q27.737513 225.1948 28.378138 225.1948Q29.425013 225.1948 30.050013 226.0073Q30.675013 226.8198 30.675013 228.16354Q30.675013 229.05417 30.331263 229.8198Q29.987513 230.5698 29.409388 230.99167Q28.815638 231.39792 28.081263 231.39792L28.081263 230.27292Q28.846888 230.27292 29.300013 229.6948Q29.753138 229.11667 29.753138 228.16354Q29.753138 227.27292 29.393763 226.80417Q29.018763 226.33542 28.393763 226.33542Q27.768763 226.33542 27.425013 226.77292Q27.081263 227.21042 26.753138 228.36667ZM30.550013 222.86667L30.550013 223.9448L24.206263 223.9448L24.206263 222.86667L30.550013 222.86667ZM22.534388 224.03854Q22.268763 224.03854 22.081263 223.8823Q21.893763 223.71042 21.893763 223.39792Q21.893763 223.08542 22.081263 222.92917Q22.268763 222.7573 22.534388 222.7573Q22.784388 222.7573 22.971888 222.92917Q23.143763 223.08542 23.143763 223.39792Q23.143763 223.71042 22.971888 223.8823Q22.784388 224.03854 22.534388 224.03854ZM29.659388 220.02292L29.659388 216.3198L30.550013 216.3198L30.550013 221.35104L29.753138 221.35104L25.112513 217.85104L25.112513 221.30417L24.206263 221.30417L24.206263 216.49167L24.971888 216.49167L29.659388 220.02292ZM30.675013 212.41354Q30.675013 213.71042 29.831263 214.52292Q28.971888 215.3198 27.550013 215.3198L27.362513 215.3198Q26.409388 215.3198 25.675013 214.96042Q24.925013 214.60104 24.518763 213.96042Q24.096888 213.30417 24.096888 212.55417Q24.096888 211.3198 24.909388 210.6323Q25.721888 209.9448 27.237513 209.9448L27.690638 209.9448L27.690638 214.24167Q28.628138 214.21042 29.206263 213.6948Q29.784388 213.16354 29.784388 212.35104Q29.784388 211.78854 29.550013 211.39792Q29.315638 210.99167 28.925013 210.67917L29.440638 210.02292Q30.675013 210.8198 30.675013 212.41354ZM24.987513 212.55417Q24.987513 213.21042 25.471888 213.66354Q25.940638 214.10104 26.800013 214.1948L26.800013 211.02292L26.721888 211.02292Q25.893763 211.0698 25.440638 211.47604Q24.987513 211.86667 24.987513 212.55417ZM27.081263 206.08542Q25.768763 206.08542 24.550013 205.74167Q23.331263 205.3823 22.331263 204.67917Q21.331263 203.97604 20.925013 203.21042L21.643763 202.99167Q22.300013 203.85104 23.643763 204.39792Q24.987513 204.9448 26.659388 204.99167L27.159388 205.0073Q29.425013 205.0073 31.081263 204.17917Q32.08126 203.67917 32.64376 202.99167L33.30001 203.21042Q32.878136 203.99167 31.846888 204.71042Q29.862513 206.08542 27.081263 206.08542ZM27.456263 196.67917Q28.909388 196.67917 29.800013 197.35104Q30.675013 198.0073 30.675013 199.1323Q30.675013 200.33542 29.815638 200.99167L30.550013 201.05417L30.550013 202.03854L21.550013 202.03854L21.550013 200.96042L24.909388 200.96042Q24.096888 200.30417 24.096888 199.14792Q24.096888 197.99167 24.971888 197.33542Q25.831263 196.67917 27.362513 196.67917L27.456263 196.67917ZM27.331263 197.7573Q26.221888 197.7573 25.628138 198.1948Q25.018763 198.61667 25.018763 199.41354Q25.018763 200.49167 26.003138 200.96042L28.753138 200.96042Q29.753138 200.46042 29.753138 199.41354Q29.753138 198.6323 29.143763 198.1948Q28.534388 197.7573 27.331263 197.7573ZM28.956263 192.97604L24.206263 191.49167L24.206263 190.33542L31.534388 192.8823Q33.11251 193.47604 33.11251 194.7573L33.096886 194.97604L33.01876 195.36667L32.14376 195.36667L32.159386 195.08542Q32.159386 194.52292 31.940638 194.22604Q31.721888 193.91354 31.128138 193.71042L30.471888 193.47604L24.206263 195.74167L24.206263 194.55417L28.956263 192.97604ZM22.675013 187.5698L24.206263 187.5698L24.206263 186.39792L25.050013 186.39792L25.050013 187.5698L28.971888 187.5698Q29.362513 187.5698 29.550013 187.41354Q29.737513 187.2573 29.737513 186.8823Q29.737513 186.6948 29.675013 186.36667L30.550013 186.36667Q30.675013 186.78854 30.675013 187.1948Q30.675013 187.91354 30.237513 188.28854Q29.784388 188.66354 28.971888 188.66354L25.050013 188.66354L25.050013 189.8198L24.206263 189.8198L24.206263 188.66354L22.675013 188.66354L22.675013 187.5698ZM30.675013 182.41354Q30.675013 183.71042 29.831263 184.52292Q28.971888 185.3198 27.550013 185.3198L27.362513 185.3198Q26.409388 185.3198 25.675013 184.96042Q24.925013 184.60104 24.518763 183.96042Q24.096888 183.30417 24.096888 182.55417Q24.096888 181.3198 24.909388 180.6323Q25.721888 179.9448 27.237513 179.9448L27.690638 179.9448L27.690638 184.24167Q28.628138 184.21042 29.206263 183.6948Q29.784388 183.16354 29.784388 182.35104Q29.784388 181.78854 29.550013 181.39792Q29.315638 180.99167 28.925013 180.67917L29.440638 180.02292Q30.675013 180.8198 30.675013 182.41354ZM24.987513 182.55417Q24.987513 183.21042 25.471888 183.66354Q25.940638 184.10104 26.800013 184.1948L26.800013 181.02292L26.721888 181.02292Q25.893763 181.0698 25.440638 181.47604Q24.987513 181.86667 24.987513 182.55417ZM28.862513 175.35104Q28.425013 175.35104 28.190638 175.6948Q27.940638 176.02292 27.768763 176.85104Q27.596888 177.66354 27.346888 178.14792Q27.096888 178.6323 26.768763 178.86667Q26.425013 179.08542 25.956263 179.08542Q25.175013 179.08542 24.643763 178.42917Q24.096888 177.77292 24.096888 176.74167Q24.096888 175.66354 24.659388 175.0073Q25.206263 174.33542 26.065638 174.33542L26.065638 175.41354Q25.628138 175.41354 25.315638 175.80417Q24.987513 176.17917 24.987513 176.74167Q24.987513 177.33542 25.253138 177.67917Q25.503138 178.0073 25.909388 178.0073Q26.300013 178.0073 26.503138 177.6948Q26.706263 177.3823 26.893763 176.5698Q27.065638 175.7573 27.315638 175.2573Q27.565638 174.7573 27.925013 174.52292Q28.284388 174.27292 28.784388 174.27292Q29.643763 174.27292 30.159388 174.96042Q30.675013 175.6323 30.675013 176.71042Q30.675013 177.47604 30.409388 178.0698Q30.128138 178.64792 29.643763 178.97604Q29.159388 179.30417 28.596888 179.30417L28.596888 178.22604Q29.143763 178.1948 29.471888 177.78854Q29.784388 177.3823 29.784388 176.71042Q29.784388 176.10104 29.534388 175.72604Q29.284388 175.35104 28.862513 175.35104ZM27.143763 170.53854Q28.456263 170.53854 29.659388 170.8823Q30.846888 171.22604 31.862513 171.9448Q32.878136 172.64792 33.30001 173.41354L32.64376 173.64792Q31.956263 172.74167 30.503138 172.1948Q29.034388 171.64792 27.268763 171.6323L27.081263 171.6323Q25.846888 171.6323 24.784388 171.89792Q23.721888 172.14792 22.893763 172.61667Q22.050013 173.0698 21.581263 173.64792L20.925013 173.41354Q21.346888 172.64792 22.346888 171.9448Q23.346888 171.24167 24.565638 170.89792Q25.768763 170.53854 27.143763 170.53854Z" fill-rule="nonzero"/><path fill="#757575" d="M78.6125 97.24053Q78.6125 99.14678 77.95625 100.08428Q77.31563 101.00616 75.925 101.00616Q74.56563 101.00616 73.90938 100.09991Q73.25313 99.19366 73.22188 97.38116L73.22188 95.94366Q73.22188 94.05303 73.8625 93.14678Q74.51875 92.22491 75.90938 92.22491Q77.28438 92.22491 77.94063 93.11553Q78.59688 93.99053 78.6125 95.83428L78.6125 97.24053ZM77.51875 95.75616Q77.51875 94.38116 77.12813 93.75616Q76.75313 93.11553 75.90938 93.11553Q75.08125 93.11553 74.69063 93.75616Q74.31563 94.38116 74.31563 95.67803L74.31563 97.41241Q74.31563 98.78741 74.70625 99.45928Q75.1125 100.11553 75.925 100.11553Q76.72188 100.11553 77.1125 99.49053Q77.50313 98.86553 77.51875 97.53741L77.51875 95.75616Z" fill-rule="nonzero"/><path fill="#757575" d="M78.84688 121.76683L73.25313 121.76683L73.25313 120.98558L76.20625 117.70433Q76.8625 116.95433 77.1125 116.501205Q77.3625 116.032455 77.3625 115.532455Q77.3625 114.86058 76.95625 114.438705Q76.56563 114.001205 75.87813 114.001205Q75.08125 114.001205 74.62813 114.469955Q74.175 114.92308 74.175 115.751205L73.09688 115.751205Q73.09688 114.563705 73.84688 113.844955Q74.6125 113.11058 75.87813 113.11058Q77.08125 113.11058 77.76875 113.73558Q78.45625 114.36058 78.45625 115.407455Q78.45625 116.657455 76.84688 118.407455L74.56563 120.876205L78.84688 120.876205L78.84688 121.76683Z" fill-rule="nonzero"/><path fill="#757575" d="M67.83125 137.85562L68.64375 137.85562Q69.425 137.84 69.8625 137.44937Q70.3 137.05875 70.3 136.38687Q70.3 134.88687 68.8 134.88687Q68.09688 134.88687 67.675 135.29312Q67.26875 135.69937 67.26875 136.35562L66.175 136.35562Q66.175 135.34 66.90938 134.66812Q67.65938 133.99625 68.8 133.99625Q70.00313 133.99625 70.69063 134.63687Q71.37813 135.2775 71.37813 136.41812Q71.37813 136.98062 71.01875 137.49625Q70.65938 138.01187 70.03438 138.2775Q70.7375 138.49625 71.1125 139.01187Q71.50313 139.5275 71.50313 140.2775Q71.50313 141.41812 70.75313 142.10562Q70.00313 142.7775 68.8 142.7775Q67.6125 142.7775 66.84688 142.12125Q66.09688 141.465 66.09688 140.4025L67.19063 140.4025Q67.19063 141.07437 67.62813 141.48062Q68.06563 141.88687 68.81563 141.88687Q69.59688 141.88687 70.00313 141.48062Q70.425 141.05875 70.425 140.29312Q70.425 139.55875 69.97188 139.16812Q69.51875 138.76187 68.64375 138.74625L67.83125 138.74625L67.83125 137.85562ZM78.84688 142.6525L73.25313 142.6525L73.25313 141.87125L76.20625 138.59Q76.8625 137.84 77.1125 137.38687Q77.3625 136.91812 77.3625 136.41812Q77.3625 135.74625 76.95625 135.32437Q76.56563 134.88687 75.87813 134.88687Q75.08125 134.88687 74.62813 135.35562Q74.175 135.80875 74.175 136.63687L73.09688 136.63687Q73.09688 135.44937 73.84688 134.73062Q74.6125 133.99625 75.87813 133.99625Q77.08125 133.99625 77.76875 134.62125Q78.45625 135.24625 78.45625 136.29312Q78.45625 137.54312 76.84688 139.29312L74.56563 141.76187L78.84688 141.76187L78.84688 142.6525Z" fill-rule="nonzero"/><path fill="#757575" d="M67.83125 158.74129L68.64375 158.74129Q69.425 158.72566 69.8625 158.33504Q70.3 157.94441 70.3 157.27254Q70.3 155.77254 68.8 155.77254Q68.09688 155.77254 67.675 156.17879Q67.26875 156.58504 67.26875 157.24129L66.175 157.24129Q66.175 156.22566 66.90938 155.55379Q67.65938 154.88191 68.8 154.88191Q70.00313 154.88191 70.69063 155.52254Q71.37813 156.16316 71.37813 157.30379Q71.37813 157.86629 71.01875 158.38191Q70.65938 158.89754 70.03438 159.16316Q70.7375 159.38191 71.1125 159.89754Q71.50313 160.41316 71.50313 161.16316Q71.50313 162.30379 70.75313 162.99129Q70.00313 163.66316 68.8 163.66316Q67.6125 163.66316 66.84688 163.00691Q66.09688 162.35066 66.09688 161.28816L67.19063 161.28816Q67.19063 161.96004 67.62813 162.36629Q68.06563 162.77254 68.81563 162.77254Q69.59688 162.77254 70.00313 162.36629Q70.425 161.94441 70.425 161.17879Q70.425 160.44441 69.97188 160.05379Q69.51875 159.64754 68.64375 159.63191L67.83125 159.63191L67.83125 158.74129ZM74.83125 158.74129L75.64375 158.74129Q76.425 158.72566 76.8625 158.33504Q77.3 157.94441 77.3 157.27254Q77.3 155.77254 75.8 155.77254Q75.09688 155.77254 74.675 156.17879Q74.26875 156.58504 74.26875 157.24129L73.175 157.24129Q73.175 156.22566 73.90938 155.55379Q74.65938 154.88191 75.8 154.88191Q77.00313 154.88191 77.69063 155.52254Q78.37813 156.16316 78.37813 157.30379Q78.37813 157.86629 78.01875 158.38191Q77.65938 158.89754 77.03438 159.16316Q77.7375 159.38191 78.1125 159.89754Q78.50313 160.41316 78.50313 161.16316Q78.50313 162.30379 77.75313 162.99129Q77.00313 163.66316 75.8 163.66316Q74.6125 163.66316 73.84688 163.00691Q73.09688 162.35066 73.09688 161.28816L74.19063 161.28816Q74.19063 161.96004 74.62813 162.36629Q75.06563 162.77254 75.81563 162.77254Q76.59688 162.77254 77.00313 162.36629Q77.425 161.94441 77.425 161.17879Q77.425 160.44441 76.97188 160.05379Q76.51875 159.64754 75.64375 159.63191L74.83125 159.63191L74.83125 158.74129Z" fill-rule="nonzero"/><path fill="#757575" d="M70.51875 175.89258L70.51875 176.79883L70.31563 176.79883Q69.05 176.83008 68.3 177.56445Q67.55 178.2832 67.425 179.5957Q68.1125 178.83008 69.26875 178.83008Q70.37813 178.83008 71.05 179.61133Q71.72188 180.39258 71.72188 181.64258Q71.72188 182.95508 71.00313 183.75195Q70.28438 184.54883 69.06563 184.54883Q67.84688 184.54883 67.08125 183.61133Q66.33125 182.6582 66.33125 181.17383L66.33125 180.76758Q66.33125 178.4082 67.33125 177.1582Q68.33125 175.9082 70.31563 175.89258L70.51875 175.89258ZM69.09688 179.73633Q68.53438 179.73633 68.06563 180.06445Q67.59688 180.39258 67.40938 180.9082L67.40938 181.29883Q67.40938 182.36133 67.87813 183.00195Q68.3625 183.64258 69.06563 183.64258Q69.8 183.64258 70.22188 183.11133Q70.64375 182.56445 70.64375 181.68945Q70.64375 180.81445 70.22188 180.2832Q69.8 179.73633 69.09688 179.73633ZM77.83125 181.56445L79.01875 181.56445L79.01875 182.43945L77.83125 182.43945L77.83125 184.42383L76.75313 184.42383L76.75313 182.43945L72.8625 182.43945L72.8625 181.79883L76.675 175.89258L77.83125 175.89258L77.83125 181.56445ZM74.09688 181.56445L76.75313 181.56445L76.75313 177.37695L76.6125 177.61133L74.09688 181.56445Z" fill-rule="nonzero"/><path fill="#757575" d="M70.40938 201.5595Q70.08125 201.96574 69.59688 202.21574Q69.12813 202.45012 68.56563 202.45012Q67.83125 202.45012 67.28438 202.09074Q66.7375 201.73137 66.44063 201.07512Q66.14375 200.40324 66.14375 199.60637Q66.14375 198.76262 66.45625 198.07512Q66.78438 197.38762 67.37813 197.02824Q67.9875 196.65324 68.78438 196.65324Q70.05 196.65324 70.76875 197.60637Q71.50313 198.5595 71.50313 200.1845L71.50313 200.497Q71.50313 202.997 70.51875 204.13762Q69.53438 205.27824 67.55 205.3095L67.33125 205.3095L67.33125 204.40324L67.56563 204.40324Q68.90938 204.372 69.62813 203.70012Q70.34688 203.02824 70.40938 201.5595ZM68.7375 201.5595Q69.28438 201.5595 69.7375 201.23137Q70.20625 200.88762 70.425 200.40324L70.425 199.96574Q70.425 198.90324 69.95625 198.23137Q69.4875 197.5595 68.78438 197.5595Q68.06563 197.5595 67.62813 198.10637Q67.20625 198.65324 67.20625 199.5595Q67.20625 200.4345 67.6125 200.997Q68.03438 201.5595 68.7375 201.5595ZM77.51875 196.77824L77.51875 197.6845L77.31563 197.6845Q76.05 197.71574 75.3 198.45012Q74.55 199.16887 74.425 200.48137Q75.1125 199.71574 76.26875 199.71574Q77.37813 199.71574 78.05 200.497Q78.72188 201.27824 78.72188 202.52824Q78.72188 203.84074 78.00313 204.63762Q77.28438 205.4345 76.06563 205.4345Q74.84688 205.4345 74.08125 204.497Q73.33125 203.54387 73.33125 202.0595L73.33125 201.65324Q73.33125 199.29387 74.33125 198.04387Q75.33125 196.79387 77.31563 196.77824L77.51875 196.77824ZM76.09688 200.622Q75.53438 200.622 75.06563 200.95012Q74.59688 201.27824 74.40938 201.79387L74.40938 202.1845Q74.40938 203.247 74.87813 203.88762Q75.3625 204.52824 76.06563 204.52824Q76.8 204.52824 77.22188 203.997Q77.64375 203.45012 77.64375 202.57512Q77.64375 201.70012 77.22188 201.16887Q76.8 200.622 76.09688 200.622Z" fill-rule="nonzero"/><path fill="#757575" d="M62.815624 226.19518L61.7375 226.19518L61.7375 218.97643L59.55 219.7733L59.55 218.78893L62.659374 217.61705L62.815624 217.61705L62.815624 226.19518ZM71.84688 226.19518L66.25313 226.19518L66.25313 225.41393L69.20625 222.13268Q69.8625 221.38268 70.1125 220.92955Q70.3625 220.4608 70.3625 219.9608Q70.3625 219.28893 69.95625 218.86705Q69.56563 218.42955 68.87813 218.42955Q68.08125 218.42955 67.62813 218.8983Q67.175 219.35143 67.175 220.17955L66.09688 220.17955Q66.09688 218.99205 66.84688 218.2733Q67.6125 217.53893 68.87813 217.53893Q70.08125 217.53893 70.76875 218.16393Q71.45625 218.78893 71.45625 219.8358Q71.45625 221.0858 69.84688 222.8358L67.56563 225.30455L71.84688 225.30455L71.84688 226.19518ZM78.44063 219.88268Q78.44063 220.5233 78.09688 221.0233Q77.75313 221.5233 77.19063 221.80455Q77.84688 222.0858 78.2375 222.6483Q78.62813 223.19518 78.62813 223.8983Q78.62813 224.99205 77.87813 225.66393Q77.14375 226.32018 75.925 226.32018Q74.69063 226.32018 73.94063 225.66393Q73.20625 224.99205 73.20625 223.8983Q73.20625 223.19518 73.58125 222.6483Q73.95625 222.0858 74.62813 221.80455Q74.06563 221.5233 73.7375 221.0233Q73.40938 220.5233 73.40938 219.88268Q73.40938 218.80455 74.09688 218.17955Q74.78438 217.53893 75.925 217.53893Q77.05 217.53893 77.7375 218.17955Q78.44063 218.80455 78.44063 219.88268ZM77.55 223.86705Q77.55 223.1483 77.09688 222.7108Q76.64375 222.25768 75.90938 222.25768Q75.175 222.25768 74.72188 222.7108Q74.28438 223.1483 74.28438 223.88268Q74.28438 224.60143 74.72188 225.0233Q75.15938 225.42955 75.925 225.42955Q76.675 225.42955 77.1125 225.00768Q77.55 224.5858 77.55 223.86705ZM75.925 218.42955Q75.28438 218.42955 74.87813 218.8358Q74.4875 219.22643 74.4875 219.91393Q74.4875 220.55455 74.87813 220.9608Q75.26875 221.36705 75.90938 221.36705Q76.56563 221.36705 76.95625 220.9608Q77.34688 220.55455 77.34688 219.91393Q77.34688 219.25768 76.94063 218.85143Q76.53438 218.42955 75.925 218.42955Z" fill-rule="nonzero"/><path fill="#757575" d="M64.84688 247.08084L59.253124 247.08084L59.253124 246.29959L62.20625 243.01834Q62.8625 242.26834 63.1125 241.81522Q63.3625 241.34647 63.3625 240.84647Q63.3625 240.17459 62.95625 239.75272Q62.565624 239.31522 61.878124 239.31522Q61.08125 239.31522 60.628124 239.78397Q60.175 240.23709 60.175 241.06522L59.096874 241.06522Q59.096874 239.87772 59.846874 239.15897Q60.6125 238.42459 61.878124 238.42459Q63.08125 238.42459 63.76875 239.04959Q64.45625 239.67459 64.45625 240.72147Q64.45625 241.97147 62.846874 243.72147L60.565624 246.19022L64.84688 246.19022L64.84688 247.08084ZM66.75313 242.79959L67.19063 238.54959L71.56563 238.54959L71.56563 239.54959L68.1125 239.54959L67.84688 241.87772Q68.4875 241.50272 69.28438 241.50272Q70.44063 241.50272 71.12813 242.28397Q71.81563 243.04959 71.81563 244.36209Q71.81563 245.67459 71.09688 246.44022Q70.39375 247.20584 69.1125 247.20584Q67.9875 247.20584 67.26875 246.58084Q66.55 245.94022 66.45625 244.83084L67.47188 244.83084Q67.58125 245.56522 68.00313 245.94022Q68.425 246.31522 69.1125 246.31522Q69.8625 246.31522 70.3 245.79959Q70.7375 245.28397 70.7375 244.37772Q70.7375 243.51834 70.26875 243.00272Q69.8 242.48709 69.01875 242.48709Q68.31563 242.48709 67.90938 242.78397L67.62813 243.01834L66.75313 242.79959ZM77.51875 238.54959L77.51875 239.45584L77.31563 239.45584Q76.05 239.48709 75.3 240.22147Q74.55 240.94022 74.425 242.25272Q75.1125 241.48709 76.26875 241.48709Q77.37813 241.48709 78.05 242.26834Q78.72188 243.04959 78.72188 244.29959Q78.72188 245.61209 78.00313 246.40897Q77.28438 247.20584 76.06563 247.20584Q74.84688 247.20584 74.08125 246.26834Q73.33125 245.31522 73.33125 243.83084L73.33125 243.42459Q73.33125 241.06522 74.33125 239.81522Q75.33125 238.56522 77.31563 238.54959L77.51875 238.54959ZM76.09688 242.39334Q75.53438 242.39334 75.06563 242.72147Q74.59688 243.04959 74.40938 243.56522L74.40938 243.95584Q74.40938 245.01834 74.87813 245.65897Q75.3625 246.29959 76.06563 246.29959Q76.8 246.29959 77.22188 245.76834Q77.64375 245.22147 77.64375 244.34647Q77.64375 243.47147 77.22188 242.94022Q76.8 242.39334 76.09688 242.39334Z" fill-rule="nonzero"/><path fill="#757575" d="M59.753124 263.68524L60.190624 259.43524L64.56563 259.43524L64.56563 260.43524L61.1125 260.43524L60.846874 262.76337Q61.4875 262.38837 62.284374 262.38837Q63.440624 262.38837 64.12813 263.16962Q64.81563 263.93524 64.81563 265.24774Q64.81563 266.56024 64.09688 267.32587Q63.39375 268.0915 62.1125 268.0915Q60.9875 268.0915 60.26875 267.4665Q59.55 266.82587 59.45625 265.7165L60.471874 265.7165Q60.58125 266.45087 61.003124 266.82587Q61.425 267.20087 62.1125 267.20087Q62.8625 267.20087 63.3 266.68524Q63.7375 266.16962 63.7375 265.26337Q63.7375 264.404 63.26875 263.88837Q62.8 263.37274 62.01875 263.37274Q61.315624 263.37274 60.909374 263.66962L60.628124 263.904L59.753124 263.68524ZM69.81563 267.9665L68.7375 267.9665L68.7375 260.74774L66.55 261.54462L66.55 260.56024L69.65938 259.38837L69.81563 259.38837L69.81563 267.9665ZM78.84688 267.9665L73.25313 267.9665L73.25313 267.18524L76.20625 263.904Q76.8625 263.154 77.1125 262.70087Q77.3625 262.23212 77.3625 261.73212Q77.3625 261.06024 76.95625 260.63837Q76.56563 260.20087 75.87813 260.20087Q75.08125 260.20087 74.62813 260.66962Q74.175 261.12274 74.175 261.95087L73.09688 261.95087Q73.09688 260.76337 73.84688 260.04462Q74.6125 259.31024 75.87813 259.31024Q77.08125 259.31024 77.76875 259.93524Q78.45625 260.56024 78.45625 261.60712Q78.45625 262.85712 76.84688 264.60712L74.56563 267.07587L78.84688 267.07587L78.84688 267.9665Z" fill-rule="nonzero"/><path fill="#757575" d="M55.815624 288.85217L54.7375 288.85217L54.7375 281.63342L52.55 282.4303L52.55 281.44592L55.659374 280.27405L55.815624 280.27405L55.815624 288.85217ZM64.6125 285.21155Q64.6125 287.1178 63.95625 288.0553Q63.315624 288.97717 61.925 288.97717Q60.565624 288.97717 59.909374 288.07092Q59.253124 287.16467 59.221874 285.35217L59.221874 283.91467Q59.221874 282.02405 59.8625 281.1178Q60.51875 280.19592 61.909374 280.19592Q63.284374 280.19592 63.940624 281.08655Q64.59688 281.96155 64.6125 283.8053L64.6125 285.21155ZM63.51875 283.72717Q63.51875 282.35217 63.128124 281.72717Q62.753124 281.08655 61.909374 281.08655Q61.08125 281.08655 60.690624 281.72717Q60.315624 282.35217 60.315624 283.64905L60.315624 285.38342Q60.315624 286.75842 60.70625 287.4303Q61.1125 288.08655 61.925 288.08655Q62.721874 288.08655 63.1125 287.46155Q63.503124 286.83655 63.51875 285.50842L63.51875 283.72717ZM71.84688 288.85217L66.25313 288.85217L66.25313 288.07092L69.20625 284.78967Q69.8625 284.03967 70.1125 283.58655Q70.3625 283.1178 70.3625 282.6178Q70.3625 281.94592 69.95625 281.52405Q69.56563 281.08655 68.87813 281.08655Q68.08125 281.08655 67.62813 281.5553Q67.175 282.00842 67.175 282.83655L66.09688 282.83655Q66.09688 281.64905 66.84688 280.9303Q67.6125 280.19592 68.87813 280.19592Q70.08125 280.19592 70.76875 280.82092Q71.45625 281.44592 71.45625 282.4928Q71.45625 283.7428 69.84688 285.4928L67.56563 287.96155L71.84688 287.96155L71.84688 288.85217ZM77.83125 285.9928L79.01875 285.9928L79.01875 286.8678L77.83125 286.8678L77.83125 288.85217L76.75313 288.85217L76.75313 286.8678L72.8625 286.8678L72.8625 286.22717L76.675 280.32092L77.83125 280.32092L77.83125 285.9928ZM74.09688 285.9928L76.75313 285.9928L76.75313 281.8053L76.6125 282.03967L74.09688 285.9928Z" fill-rule="nonzero"/><path fill="#757575" d="M193.32187 316.45L187.72812 316.45L187.72812 315.66876L190.68124 312.3875Q191.3375 311.6375 191.5875 311.1844Q191.8375 310.71564 191.8375 310.21564Q191.8375 309.54376 191.43124 309.1219Q191.04062 308.6844 190.35312 308.6844Q189.55624 308.6844 189.10312 309.15314Q188.65 309.60626 188.65 310.4344L187.57187 310.4344Q187.57187 309.2469 188.32187 308.52814Q189.0875 307.79376 190.35312 307.79376Q191.55624 307.79376 192.24374 308.41876Q192.93124 309.04376 192.93124 310.09064Q192.93124 311.34064 191.32187 313.09064L189.04062 315.5594L193.32187 315.5594L193.32187 316.45ZM200.0875 312.8094Q200.0875 314.71564 199.43124 315.65314Q198.79062 316.575 197.4 316.575Q196.04062 316.575 195.38437 315.66876Q194.72812 314.7625 194.69687 312.95L194.69687 311.5125Q194.69687 309.6219 195.3375 308.71564Q195.99374 307.79376 197.38437 307.79376Q198.75937 307.79376 199.41562 308.6844Q200.07187 309.5594 200.0875 311.40314L200.0875 312.8094ZM198.99374 311.325Q198.99374 309.95 198.60312 309.325Q198.22812 308.6844 197.38437 308.6844Q196.55624 308.6844 196.16562 309.325Q195.79062 309.95 195.79062 311.2469L195.79062 312.98126Q195.79062 314.35626 196.18124 315.02814Q196.5875 315.6844 197.4 315.6844Q198.19687 315.6844 198.5875 315.0594Q198.97812 314.4344 198.99374 313.10626L198.99374 311.325ZM207.0875 312.8094Q207.0875 314.71564 206.43124 315.65314Q205.79062 316.575 204.4 316.575Q203.04062 316.575 202.38437 315.66876Q201.72812 314.7625 201.69687 312.95L201.69687 311.5125Q201.69687 309.6219 202.3375 308.71564Q202.99374 307.79376 204.38437 307.79376Q205.75937 307.79376 206.41562 308.6844Q207.07187 309.5594 207.0875 311.40314L207.0875 312.8094ZM205.99374 311.325Q205.99374 309.95 205.60312 309.325Q205.22812 308.6844 204.38437 308.6844Q203.55624 308.6844 203.16562 309.325Q202.79062 309.95 202.79062 311.2469L202.79062 312.98126Q202.79062 314.35626 203.18124 315.02814Q203.5875 315.6844 204.4 315.6844Q205.19687 315.6844 205.5875 315.0594Q205.97812 314.4344 205.99374 313.10626L205.99374 311.325ZM208.86874 315.8875Q208.86874 315.60626 209.025 315.41876Q209.19687 315.23126 209.525 315.23126Q209.86874 315.23126 210.04062 315.41876Q210.2125 315.60626 210.2125 315.8875Q210.2125 316.15314 210.04062 316.34064Q209.86874 316.5125 209.525 316.5125Q209.19687 316.5125 209.025 316.34064Q208.86874 316.15314 208.86874 315.8875ZM217.0875 312.8094Q217.0875 314.71564 216.43124 315.65314Q215.79062 316.575 214.4 316.575Q213.04062 316.575 212.38437 315.66876Q211.72812 314.7625 211.69687 312.95L211.69687 311.5125Q211.69687 309.6219 212.3375 308.71564Q212.99374 307.79376 214.38437 307.79376Q215.75937 307.79376 216.41562 308.6844Q217.07187 309.5594 217.0875 311.40314L217.0875 312.8094ZM215.99374 311.325Q215.99374 309.95 215.60312 309.325Q215.22812 308.6844 214.38437 308.6844Q213.55624 308.6844 213.16562 309.325Q212.79062 309.95 212.79062 311.2469L212.79062 312.98126Q212.79062 314.35626 213.18124 315.02814Q213.5875 315.6844 214.4 315.6844Q215.19687 315.6844 215.5875 315.0594Q215.97812 314.4344 215.99374 313.10626L215.99374 311.325ZM224.0875 312.8094Q224.0875 314.71564 223.43124 315.65314Q222.79062 316.575 221.4 316.575Q220.04062 316.575 219.38437 315.66876Q218.72812 314.7625 218.69687 312.95L218.69687 311.5125Q218.69687 309.6219 219.3375 308.71564Q219.99374 307.79376 221.38437 307.79376Q222.75937 307.79376 223.41562 308.6844Q224.07187 309.5594 224.0875 311.40314L224.0875 312.8094ZM222.99374 311.325Q222.99374 309.95 222.60312 309.325Q222.22812 308.6844 221.38437 308.6844Q220.55624 308.6844 220.16562 309.325Q219.79062 309.95 219.79062 311.2469L219.79062 312.98126Q219.79062 314.35626 220.18124 315.02814Q220.5875 315.6844 221.4 315.6844Q222.19687 315.6844 222.5875 315.0594Q222.97812 314.4344 222.99374 313.10626L222.99374 311.325ZM231.0875 312.8094Q231.0875 314.71564 230.43124 315.65314Q229.79062 316.575 228.4 316.575Q227.04062 316.575 226.38437 315.66876Q225.72812 314.7625 225.69687 312.95L225.69687 311.5125Q225.69687 309.6219 226.3375 308.71564Q226.99374 307.79376 228.38437 307.79376Q229.75937 307.79376 230.41562 308.6844Q231.07187 309.5594 231.0875 311.40314L231.0875 312.8094ZM229.99374 311.325Q229.99374 309.95 229.60312 309.325Q229.22812 308.6844 228.38437 308.6844Q227.55624 308.6844 227.16562 309.325Q226.79062 309.95 226.79062 311.2469L226.79062 312.98126Q226.79062 314.35626 227.18124 315.02814Q227.5875 315.6844 228.4 315.6844Q229.19687 315.6844 229.5875 315.0594Q229.97812 314.4344 229.99374 313.10626L229.99374 311.325Z" fill-rule="nonzero"/><path fill="#757575" d="M316.28125 313.59064L317.46875 313.59064L317.46875 314.46564L316.28125 314.46564L316.28125 316.45L315.20312 316.45L315.20312 314.46564L311.3125 314.46564L311.3125 313.825L315.125 307.91876L316.28125 307.91876L316.28125 313.59064ZM312.54688 313.59064L315.20312 313.59064L315.20312 309.40314L315.0625 309.6375L312.54688 313.59064ZM324.0625 312.8094Q324.0625 314.71564 323.40625 315.65314Q322.76562 316.575 321.375 316.575Q320.01562 316.575 319.35938 315.66876Q318.70312 314.7625 318.67188 312.95L318.67188 311.5125Q318.67188 309.6219 319.3125 308.71564Q319.96875 307.79376 321.35938 307.79376Q322.73438 307.79376 323.39062 308.6844Q324.04688 309.5594 324.0625 311.40314L324.0625 312.8094ZM322.96875 311.325Q322.96875 309.95 322.57812 309.325Q322.20312 308.6844 321.35938 308.6844Q320.53125 308.6844 320.14062 309.325Q319.76562 309.95 319.76562 311.2469L319.76562 312.98126Q319.76562 314.35626 320.15625 315.02814Q320.5625 315.6844 321.375 315.6844Q322.17188 315.6844 322.5625 315.0594Q322.95312 314.4344 322.96875 313.10626L322.96875 311.325ZM331.0625 312.8094Q331.0625 314.71564 330.40625 315.65314Q329.76562 316.575 328.375 316.575Q327.01562 316.575 326.35938 315.66876Q325.70312 314.7625 325.67188 312.95L325.67188 311.5125Q325.67188 309.6219 326.3125 308.71564Q326.96875 307.79376 328.35938 307.79376Q329.73438 307.79376 330.39062 308.6844Q331.04688 309.5594 331.0625 311.40314L331.0625 312.8094ZM329.96875 311.325Q329.96875 309.95 329.57812 309.325Q329.20312 308.6844 328.35938 308.6844Q327.53125 308.6844 327.14062 309.325Q326.76562 309.95 326.76562 311.2469L326.76562 312.98126Q326.76562 314.35626 327.15625 315.02814Q327.5625 315.6844 328.375 315.6844Q329.17188 315.6844 329.5625 315.0594Q329.95312 314.4344 329.96875 313.10626L329.96875 311.325ZM332.84375 315.8875Q332.84375 315.60626 333.0 315.41876Q333.17188 315.23126 333.5 315.23126Q333.84375 315.23126 334.01562 315.41876Q334.1875 315.60626 334.1875 315.8875Q334.1875 316.15314 334.01562 316.34064Q333.84375 316.5125 333.5 316.5125Q333.17188 316.5125 333.0 316.34064Q332.84375 316.15314 332.84375 315.8875ZM341.0625 312.8094Q341.0625 314.71564 340.40625 315.65314Q339.76562 316.575 338.375 316.575Q337.01562 316.575 336.35938 315.66876Q335.70312 314.7625 335.67188 312.95L335.67188 311.5125Q335.67188 309.6219 336.3125 308.71564Q336.96875 307.79376 338.35938 307.79376Q339.73438 307.79376 340.39062 308.6844Q341.04688 309.5594 341.0625 311.40314L341.0625 312.8094ZM339.96875 311.325Q339.96875 309.95 339.57812 309.325Q339.20312 308.6844 338.35938 308.6844Q337.53125 308.6844 337.14062 309.325Q336.76562 309.95 336.76562 311.2469L336.76562 312.98126Q336.76562 314.35626 337.15625 315.02814Q337.5625 315.6844 338.375 315.6844Q339.17188 315.6844 339.5625 315.0594Q339.95312 314.4344 339.96875 313.10626L339.96875 311.325ZM348.0625 312.8094Q348.0625 314.71564 347.40625 315.65314Q346.76562 316.575 345.375 316.575Q344.01562 316.575 343.35938 315.66876Q342.70312 314.7625 342.67188 312.95L342.67188 311.5125Q342.67188 309.6219 343.3125 308.71564Q343.96875 307.79376 345.35938 307.79376Q346.73438 307.79376 347.39062 308.6844Q348.04688 309.5594 348.0625 311.40314L348.0625 312.8094ZM346.96875 311.325Q346.96875 309.95 346.57812 309.325Q346.20312 308.6844 345.35938 308.6844Q344.53125 308.6844 344.14062 309.325Q343.76562 309.95 343.76562 311.2469L343.76562 312.98126Q343.76562 314.35626 344.15625 315.02814Q344.5625 315.6844 345.375 315.6844Q346.17188 315.6844 346.5625 315.0594Q346.95312 314.4344 346.96875 313.10626L346.96875 311.325ZM355.0625 312.8094Q355.0625 314.71564 354.40625 315.65314Q353.76562 316.575 352.375 316.575Q351.01562 316.575 350.35938 315.66876Q349.70312 314.7625 349.67188 312.95L349.67188 311.5125Q349.67188 309.6219 350.3125 308.71564Q350.96875 307.79376 352.35938 307.79376Q353.73438 307.79376 354.39062 308.6844Q355.04688 309.5594 355.0625 311.40314L355.0625 312.8094ZM353.96875 311.325Q353.96875 309.95 353.57812 309.325Q353.20312 308.6844 352.35938 308.6844Q351.53125 308.6844 351.14062 309.325Q350.76562 309.95 350.76562 311.2469L350.76562 312.98126Q350.76562 314.35626 351.15625 315.02814Q351.5625 315.6844 352.375 315.6844Q353.17188 315.6844 353.5625 315.0594Q353.95312 314.4344 353.96875 313.10626L353.96875 311.325Z" fill-rule="nonzero"/><path fill="#757575" d="M439.94376 307.91876L439.94376 308.825L439.74063 308.825Q438.475 308.85626 437.725 309.59064Q436.975 310.3094 436.85 311.6219Q437.5375 310.85626 438.69376 310.85626Q439.80313 310.85626 440.475 311.6375Q441.14688 312.41876 441.14688 313.66876Q441.14688 314.98126 440.42813 315.77814Q439.70938 316.575 438.49063 316.575Q437.27188 316.575 436.50626 315.6375Q435.75626 314.6844 435.75626 313.2L435.75626 312.79376Q435.75626 310.4344 436.75626 309.1844Q437.75626 307.9344 439.74063 307.91876L439.94376 307.91876ZM438.52188 311.7625Q437.95938 311.7625 437.49063 312.09064Q437.02188 312.41876 436.83438 312.9344L436.83438 313.325Q436.83438 314.3875 437.30313 315.02814Q437.7875 315.66876 438.49063 315.66876Q439.225 315.66876 439.64688 315.1375Q440.06876 314.59064 440.06876 313.71564Q440.06876 312.84064 439.64688 312.3094Q439.225 311.7625 438.52188 311.7625ZM448.0375 312.8094Q448.0375 314.71564 447.38126 315.65314Q446.74063 316.575 445.35 316.575Q443.99063 316.575 443.33438 315.66876Q442.67813 314.7625 442.64688 312.95L442.64688 311.5125Q442.64688 309.6219 443.2875 308.71564Q443.94376 307.79376 445.33438 307.79376Q446.70938 307.79376 447.36563 308.6844Q448.02188 309.5594 448.0375 311.40314L448.0375 312.8094ZM446.94376 311.325Q446.94376 309.95 446.55313 309.325Q446.17813 308.6844 445.33438 308.6844Q444.50626 308.6844 444.11563 309.325Q443.74063 309.95 443.74063 311.2469L443.74063 312.98126Q443.74063 314.35626 444.13126 315.02814Q444.5375 315.6844 445.35 315.6844Q446.14688 315.6844 446.5375 315.0594Q446.92813 314.4344 446.94376 313.10626L446.94376 311.325ZM455.0375 312.8094Q455.0375 314.71564 454.38126 315.65314Q453.74063 316.575 452.35 316.575Q450.99063 316.575 450.33438 315.66876Q449.67813 314.7625 449.64688 312.95L449.64688 311.5125Q449.64688 309.6219 450.2875 308.71564Q450.94376 307.79376 452.33438 307.79376Q453.70938 307.79376 454.36563 308.6844Q455.02188 309.5594 455.0375 311.40314L455.0375 312.8094ZM453.94376 311.325Q453.94376 309.95 453.55313 309.325Q453.17813 308.6844 452.33438 308.6844Q451.50626 308.6844 451.11563 309.325Q450.74063 309.95 450.74063 311.2469L450.74063 312.98126Q450.74063 314.35626 451.13126 315.02814Q451.5375 315.6844 452.35 315.6844Q453.14688 315.6844 453.5375 315.0594Q453.92813 314.4344 453.94376 313.10626L453.94376 311.325ZM456.81876 315.8875Q456.81876 315.60626 456.975 315.41876Q457.14688 315.23126 457.475 315.23126Q457.81876 315.23126 457.99063 315.41876Q458.1625 315.60626 458.1625 315.8875Q458.1625 316.15314 457.99063 316.34064Q457.81876 316.5125 457.475 316.5125Q457.14688 316.5125 456.975 316.34064Q456.81876 316.15314 456.81876 315.8875ZM465.0375 312.8094Q465.0375 314.71564 464.38126 315.65314Q463.74063 316.575 462.35 316.575Q460.99063 316.575 460.33438 315.66876Q459.67813 314.7625 459.64688 312.95L459.64688 311.5125Q459.64688 309.6219 460.2875 308.71564Q460.94376 307.79376 462.33438 307.79376Q463.70938 307.79376 464.36563 308.6844Q465.02188 309.5594 465.0375 311.40314L465.0375 312.8094ZM463.94376 311.325Q463.94376 309.95 463.55313 309.325Q463.17813 308.6844 462.33438 308.6844Q461.50626 308.6844 461.11563 309.325Q460.74063 309.95 460.74063 311.2469L460.74063 312.98126Q460.74063 314.35626 461.13126 315.02814Q461.5375 315.6844 462.35 315.6844Q463.14688 315.6844 463.5375 315.0594Q463.92813 314.4344 463.94376 313.10626L463.94376 311.325ZM472.0375 312.8094Q472.0375 314.71564 471.38126 315.65314Q470.74063 316.575 469.35 316.575Q467.99063 316.575 467.33438 315.66876Q466.67813 314.7625 466.64688 312.95L466.64688 311.5125Q466.64688 309.6219 467.2875 308.71564Q467.94376 307.79376 469.33438 307.79376Q470.70938 307.79376 471.36563 308.6844Q472.02188 309.5594 472.0375 311.40314L472.0375 312.8094ZM470.94376 311.325Q470.94376 309.95 470.55313 309.325Q470.17813 308.6844 469.33438 308.6844Q468.50626 308.6844 468.11563 309.325Q467.74063 309.95 467.74063 311.2469L467.74063 312.98126Q467.74063 314.35626 468.13126 315.02814Q468.5375 315.6844 469.35 315.6844Q470.14688 315.6844 470.5375 315.0594Q470.92813 314.4344 470.94376 313.10626L470.94376 311.325ZM479.0375 312.8094Q479.0375 314.71564 478.38126 315.65314Q477.74063 316.575 476.35 316.575Q474.99063 316.575 474.33438 315.66876Q473.67813 314.7625 473.64688 312.95L473.64688 311.5125Q473.64688 309.6219 474.2875 308.71564Q474.94376 307.79376 476.33438 307.79376Q477.70938 307.79376 478.36563 308.6844Q479.02188 309.5594 479.0375 311.40314L479.0375 312.8094ZM477.94376 311.325Q477.94376 309.95 477.55313 309.325Q477.17813 308.6844 476.33438 308.6844Q475.50626 308.6844 475.11563 309.325Q474.74063 309.95 474.74063 311.2469L474.74063 312.98126Q474.74063 314.35626 475.13126 315.02814Q475.5375 315.6844 476.35 315.6844Q477.14688 315.6844 477.5375 315.0594Q477.92813 314.4344 477.94376 313.10626L477.94376 311.325Z" fill-rule="nonzero"/><path fill="#4285f4" d="M166.0 57.416668C166.0 56.864384 166.44771 56.416668 167.0 56.416668L177.0 56.416668C177.55229 56.416668 178.0 56.864384 178.0 57.416668L178.0 67.416664C178.0 67.96895 177.55229 68.416664 177.0 68.416664L167.0 68.416664C166.44771 68.416664 166.0 67.96895 166.0 67.416664Z" fill-rule="nonzero"/><path fill="#757575" d="M189.5 63.11979Q188.0625 62.697914 187.39062 62.08854Q186.73438 61.479164 186.73438 60.58854Q186.73438 59.58854 187.53125 58.93229Q188.34375 58.260414 189.64062 58.260414Q190.51562 58.260414 191.20312 58.604164Q191.89062 58.947914 192.26562 59.541664Q192.65625 60.135414 192.65625 60.854164L191.51562 60.854164Q191.51562 60.072914 191.01562 59.635414Q190.53125 59.197914 189.64062 59.197914Q188.8125 59.197914 188.34375 59.572914Q187.875 59.93229 187.875 60.572914Q187.875 61.104164 188.3125 61.46354Q188.76562 61.822914 189.82812 62.11979Q190.89062 62.416664 191.48438 62.77604Q192.09375 63.135414 192.375 63.61979Q192.67188 64.104164 192.67188 64.74479Q192.67188 65.791664 191.85938 66.416664Q191.04688 67.041664 189.70312 67.041664Q188.8125 67.041664 188.04688 66.697914Q187.29688 66.354164 186.875 65.77604Q186.46875 65.18229 186.46875 64.447914L187.59375 64.447914Q187.59375 65.21354 188.17188 65.666664Q188.75 66.11979 189.70312 66.11979Q190.59375 66.11979 191.0625 65.760414Q191.53125 65.385414 191.53125 64.760414Q191.53125 64.135414 191.09375 63.791664Q190.65625 63.447914 189.5 63.11979ZM196.5 63.11979Q195.0625 62.697914 194.39062 62.08854Q193.73438 61.479164 193.73438 60.58854Q193.73438 59.58854 194.53125 58.93229Q195.34375 58.260414 196.64062 58.260414Q197.51562 58.260414 198.20312 58.604164Q198.89062 58.947914 199.26562 59.541664Q199.65625 60.135414 199.65625 60.854164L198.51562 60.854164Q198.51562 60.072914 198.01562 59.635414Q197.53125 59.197914 196.64062 59.197914Q195.8125 59.197914 195.34375 59.572914Q194.875 59.93229 194.875 60.572914Q194.875 61.104164 195.3125 61.46354Q195.76562 61.822914 196.82812 62.11979Q197.89062 62.416664 198.48438 62.77604Q199.09375 63.135414 199.375 63.61979Q199.67188 64.104164 199.67188 64.74479Q199.67188 65.791664 198.85938 66.416664Q198.04688 67.041664 196.70312 67.041664Q195.8125 67.041664 195.04688 66.697914Q194.29688 66.354164 193.875 65.77604Q193.46875 65.18229 193.46875 64.447914L194.59375 64.447914Q194.59375 65.21354 195.17188 65.666664Q195.75 66.11979 196.70312 66.11979Q197.59375 66.11979 198.0625 65.760414Q198.53125 65.385414 198.53125 64.760414Q198.53125 64.135414 198.09375 63.791664Q197.65625 63.447914 196.5 63.11979ZM206.89062 59.30729L204.14062 59.30729L204.14062 66.916664L203.03125 66.916664L203.03125 59.30729L200.28125 59.30729L200.28125 58.385414L206.89062 58.385414L206.89062 59.30729ZM214.54688 62.93229Q214.54688 64.18229 214.125 65.11979Q213.70312 66.041664 212.92188 66.541664Q212.15625 67.041664 211.125 67.041664Q210.125 67.041664 209.34375 66.541664Q208.5625 66.041664 208.125 65.135414Q207.70312 64.21354 207.6875 62.99479L207.6875 62.385414Q207.6875 61.15104 208.10938 60.21354Q208.54688 59.27604 209.32812 58.77604Q210.10938 58.260414 211.125 58.260414Q212.14062 58.260414 212.92188 58.760414Q213.70312 59.260414 214.125 60.197914Q214.54688 61.135414 214.54688 62.385414L214.54688 62.93229ZM213.4375 62.36979Q213.4375 60.854164 212.82812 60.041664Q212.21875 59.229164 211.125 59.229164Q210.04688 59.229164 209.4375 60.041664Q208.82812 60.854164 208.8125 62.291664L208.8125 62.93229Q208.8125 64.40104 209.42188 65.24479Q210.04688 66.072914 211.125 66.072914Q212.21875 66.072914 212.8125 65.291664Q213.42188 64.49479 213.4375 63.010414L213.4375 62.36979ZM219.125 63.46354L217.10938 63.46354L217.10938 66.916664L215.98438 66.916664L215.98438 58.385414L218.8125 58.385414Q220.25 58.385414 221.01562 59.041664Q221.79688 59.697914 221.79688 60.947914Q221.79688 61.74479 221.35938 62.33854Q220.9375 62.93229 220.17188 63.229164L222.17188 66.83854L222.17188 66.916664L220.96875 66.916664L219.125 63.46354ZM217.10938 62.541664L218.84375 62.541664Q219.6875 62.541664 220.17188 62.11979Q220.67188 61.68229 220.67188 60.947914Q220.67188 60.166664 220.20312 59.74479Q219.73438 59.322914 218.84375 59.30729L217.10938 59.30729L217.10938 62.541664ZM227.8125 62.979164L224.10938 62.979164L224.10938 65.99479L228.40625 65.99479L228.40625 66.916664L222.98438 66.916664L222.98438 58.385414L228.35938 58.385414L228.35938 59.30729L224.10938 59.30729L224.10938 62.05729L227.8125 62.05729L227.8125 62.979164Z" fill-rule="nonzero"/><path fill="#db4437" d="M245.0 57.416668C245.0 56.864384 245.44771 56.416668 246.0 56.416668L256.0 56.416668C256.55228 56.416668 257.0 56.864384 257.0 57.416668L257.0 67.416664C257.0 67.96895 256.55228 68.416664 256.0 68.416664L246.0 68.416664C245.44771 68.416664 245.0 67.96895 245.0 67.416664Z" fill-rule="nonzero"/><path fill="#757575" d="M268.5 63.11979Q267.0625 62.697914 266.39062 62.08854Q265.73438 61.479164 265.73438 60.58854Q265.73438 59.58854 266.53125 58.93229Q267.34375 58.260414 268.64062 58.260414Q269.51562 58.260414 270.20312 58.604164Q270.89062 58.947914 271.26562 59.541664Q271.65625 60.135414 271.65625 60.854164L270.51562 60.854164Q270.51562 60.072914 270.01562 59.635414Q269.53125 59.197914 268.64062 59.197914Q267.8125 59.197914 267.34375 59.572914Q266.875 59.93229 266.875 60.572914Q266.875 61.104164 267.3125 61.46354Q267.76562 61.822914 268.82812 62.11979Q269.89062 62.416664 270.48438 62.77604Q271.09375 63.135414 271.375 63.61979Q271.67188 64.104164 271.67188 64.74479Q271.67188 65.791664 270.85938 66.416664Q270.04688 67.041664 268.70312 67.041664Q267.8125 67.041664 267.04688 66.697914Q266.29688 66.354164 265.875 65.77604Q265.46875 65.18229 265.46875 64.447914L266.59375 64.447914Q266.59375 65.21354 267.17188 65.666664Q267.75 66.11979 268.70312 66.11979Q269.59375 66.11979 270.0625 65.760414Q270.53125 65.385414 270.53125 64.760414Q270.53125 64.135414 270.09375 63.791664Q269.65625 63.447914 268.5 63.11979ZM275.5 63.11979Q274.0625 62.697914 273.39062 62.08854Q272.73438 61.479164 272.73438 60.58854Q272.73438 59.58854 273.53125 58.93229Q274.34375 58.260414 275.64062 58.260414Q276.51562 58.260414 277.20312 58.604164Q277.89062 58.947914 278.26562 59.541664Q278.65625 60.135414 278.65625 60.854164L277.51562 60.854164Q277.51562 60.072914 277.01562 59.635414Q276.53125 59.197914 275.64062 59.197914Q274.8125 59.197914 274.34375 59.572914Q273.875 59.93229 273.875 60.572914Q273.875 61.104164 274.3125 61.46354Q274.76562 61.822914 275.82812 62.11979Q276.89062 62.416664 277.48438 62.77604Q278.09375 63.135414 278.375 63.61979Q278.67188 64.104164 278.67188 64.74479Q278.67188 65.791664 277.85938 66.416664Q277.04688 67.041664 275.70312 67.041664Q274.8125 67.041664 274.04688 66.697914Q273.29688 66.354164 272.875 65.77604Q272.46875 65.18229 272.46875 64.447914L273.59375 64.447914Q273.59375 65.21354 274.17188 65.666664Q274.75 66.11979 275.70312 66.11979Q276.59375 66.11979 277.0625 65.760414Q277.53125 65.385414 277.53125 64.760414Q277.53125 64.135414 277.09375 63.791664Q276.65625 63.447914 275.5 63.11979ZM285.89062 59.30729L283.14062 59.30729L283.14062 66.916664L282.03125 66.916664L282.03125 59.30729L279.28125 59.30729L279.28125 58.385414L285.89062 58.385414L285.89062 59.30729ZM293.54688 62.93229Q293.54688 64.18229 293.125 65.11979Q292.70312 66.041664 291.92188 66.541664Q291.15625 67.041664 290.125 67.041664Q289.125 67.041664 288.34375 66.541664Q287.5625 66.041664 287.125 65.135414Q286.70312 64.21354 286.6875 62.99479L286.6875 62.385414Q286.6875 61.15104 287.10938 60.21354Q287.54688 59.27604 288.32812 58.77604Q289.10938 58.260414 290.125 58.260414Q291.14062 58.260414 291.92188 58.760414Q292.70312 59.260414 293.125 60.197914Q293.54688 61.135414 293.54688 62.385414L293.54688 62.93229ZM292.4375 62.36979Q292.4375 60.854164 291.82812 60.041664Q291.21875 59.229164 290.125 59.229164Q289.04688 59.229164 288.4375 60.041664Q287.82812 60.854164 287.8125 62.291664L287.8125 62.93229Q287.8125 64.40104 288.42188 65.24479Q289.04688 66.072914 290.125 66.072914Q291.21875 66.072914 291.8125 65.291664Q292.42188 64.49479 292.4375 63.010414L292.4375 62.36979ZM298.125 63.46354L296.10938 63.46354L296.10938 66.916664L294.98438 66.916664L294.98438 58.385414L297.8125 58.385414Q299.25 58.385414 300.01562 59.041664Q300.79688 59.697914 300.79688 60.947914Q300.79688 61.74479 300.35938 62.33854Q299.9375 62.93229 299.17188 63.229164L301.17188 66.83854L301.17188 66.916664L299.96875 66.916664L298.125 63.46354ZM296.10938 62.541664L297.84375 62.541664Q298.6875 62.541664 299.17188 62.11979Q299.67188 61.68229 299.67188 60.947914Q299.67188 60.166664 299.20312 59.74479Q298.73438 59.322914 297.84375 59.30729L296.10938 59.30729L296.10938 62.541664ZM306.8125 62.979164L303.10938 62.979164L303.10938 65.99479L307.40625 65.99479L307.40625 66.916664L301.98438 66.916664L301.98438 58.385414L307.35938 58.385414L307.35938 59.30729L303.10938 59.30729L303.10938 62.05729L306.8125 62.05729L306.8125 62.979164ZM314.29688 66.916664L308.70312 66.916664L308.70312 66.135414L311.65625 62.854164Q312.3125 62.104164 312.5625 61.65104Q312.8125 61.18229 312.8125 60.68229Q312.8125 60.010414 312.40625 59.58854Q312.01562 59.15104 311.32812 59.15104Q310.53125 59.15104 310.07812 59.61979Q309.625 60.072914 309.625 60.90104L308.54688 60.90104Q308.54688 59.71354 309.29688 58.99479Q310.0625 58.260414 311.32812 58.260414Q312.53125 58.260414 313.21875 58.885414Q313.90625 59.510414 313.90625 60.55729Q313.90625 61.80729 312.29688 63.55729L310.01562 66.02604L314.29688 66.02604L314.29688 66.916664Z" fill-rule="nonzero"/><path fill="#f4b400" d="M331.0 57.416668C331.0 56.864384 331.44772 56.416668 332.0 56.416668L342.0 56.416668C342.55228 56.416668 343.0 56.864384 343.0 57.416668L343.0 67.416664C343.0 67.96895 342.55228 68.416664 342.0 68.416664L332.0 68.416664C331.44772 68.416664 331.0 67.96895 331.0 67.416664Z" fill-rule="nonzero"/><path fill="#757575" d="M354.5 63.11979Q353.0625 62.697914 352.39062 62.08854Q351.73438 61.479164 351.73438 60.58854Q351.73438 59.58854 352.53125 58.93229Q353.34375 58.260414 354.64062 58.260414Q355.51562 58.260414 356.20312 58.604164Q356.89062 58.947914 357.26562 59.541664Q357.65625 60.135414 357.65625 60.854164L356.51562 60.854164Q356.51562 60.072914 356.01562 59.635414Q355.53125 59.197914 354.64062 59.197914Q353.8125 59.197914 353.34375 59.572914Q352.875 59.93229 352.875 60.572914Q352.875 61.104164 353.3125 61.46354Q353.76562 61.822914 354.82812 62.11979Q355.89062 62.416664 356.48438 62.77604Q357.09375 63.135414 357.375 63.61979Q357.67188 64.104164 357.67188 64.74479Q357.67188 65.791664 356.85938 66.416664Q356.04688 67.041664 354.70312 67.041664Q353.8125 67.041664 353.04688 66.697914Q352.29688 66.354164 351.875 65.77604Q351.46875 65.18229 351.46875 64.447914L352.59375 64.447914Q352.59375 65.21354 353.17188 65.666664Q353.75 66.11979 354.70312 66.11979Q355.59375 66.11979 356.0625 65.760414Q356.53125 65.385414 356.53125 64.760414Q356.53125 64.135414 356.09375 63.791664Q355.65625 63.447914 354.5 63.11979ZM361.5 63.11979Q360.0625 62.697914 359.39062 62.08854Q358.73438 61.479164 358.73438 60.58854Q358.73438 59.58854 359.53125 58.93229Q360.34375 58.260414 361.64062 58.260414Q362.51562 58.260414 363.20312 58.604164Q363.89062 58.947914 364.26562 59.541664Q364.65625 60.135414 364.65625 60.854164L363.51562 60.854164Q363.51562 60.072914 363.01562 59.635414Q362.53125 59.197914 361.64062 59.197914Q360.8125 59.197914 360.34375 59.572914Q359.875 59.93229 359.875 60.572914Q359.875 61.104164 360.3125 61.46354Q360.76562 61.822914 361.82812 62.11979Q362.89062 62.416664 363.48438 62.77604Q364.09375 63.135414 364.375 63.61979Q364.67188 64.104164 364.67188 64.74479Q364.67188 65.791664 363.85938 66.416664Q363.04688 67.041664 361.70312 67.041664Q360.8125 67.041664 360.04688 66.697914Q359.29688 66.354164 358.875 65.77604Q358.46875 65.18229 358.46875 64.447914L359.59375 64.447914Q359.59375 65.21354 360.17188 65.666664Q360.75 66.11979 361.70312 66.11979Q362.59375 66.11979 363.0625 65.760414Q363.53125 65.385414 363.53125 64.760414Q363.53125 64.135414 363.09375 63.791664Q362.65625 63.447914 361.5 63.11979ZM371.89062 59.30729L369.14062 59.30729L369.14062 66.916664L368.03125 66.916664L368.03125 59.30729L365.28125 59.30729L365.28125 58.385414L371.89062 58.385414L371.89062 59.30729ZM379.54688 62.93229Q379.54688 64.18229 379.125 65.11979Q378.70312 66.041664 377.92188 66.541664Q377.15625 67.041664 376.125 67.041664Q375.125 67.041664 374.34375 66.541664Q373.5625 66.041664 373.125 65.135414Q372.70312 64.21354 372.6875 62.99479L372.6875 62.385414Q372.6875 61.15104 373.10938 60.21354Q373.54688 59.27604 374.32812 58.77604Q375.10938 58.260414 376.125 58.260414Q377.14062 58.260414 377.92188 58.760414Q378.70312 59.260414 379.125 60.197914Q379.54688 61.135414 379.54688 62.385414L379.54688 62.93229ZM378.4375 62.36979Q378.4375 60.854164 377.82812 60.041664Q377.21875 59.229164 376.125 59.229164Q375.04688 59.229164 374.4375 60.041664Q373.82812 60.854164 373.8125 62.291664L373.8125 62.93229Q373.8125 64.40104 374.42188 65.24479Q375.04688 66.072914 376.125 66.072914Q377.21875 66.072914 377.8125 65.291664Q378.42188 64.49479 378.4375 63.010414L378.4375 62.36979ZM384.125 63.46354L382.10938 63.46354L382.10938 66.916664L380.98438 66.916664L380.98438 58.385414L383.8125 58.385414Q385.25 58.385414 386.01562 59.041664Q386.79688 59.697914 386.79688 60.947914Q386.79688 61.74479 386.35938 62.33854Q385.9375 62.93229 385.17188 63.229164L387.17188 66.83854L387.17188 66.916664L385.96875 66.916664L384.125 63.46354ZM382.10938 62.541664L383.84375 62.541664Q384.6875 62.541664 385.17188 62.11979Q385.67188 61.68229 385.67188 60.947914Q385.67188 60.166664 385.20312 59.74479Q384.73438 59.322914 383.84375 59.30729L382.10938 59.30729L382.10938 62.541664ZM392.8125 62.979164L389.10938 62.979164L389.10938 65.99479L393.40625 65.99479L393.40625 66.916664L387.98438 66.916664L387.98438 58.385414L393.35938 58.385414L393.35938 59.30729L389.10938 59.30729L389.10938 62.05729L392.8125 62.05729L392.8125 62.979164ZM400.29688 66.916664L394.70312 66.916664L394.70312 66.135414L397.65625 62.854164Q398.3125 62.104164 398.5625 61.65104Q398.8125 61.18229 398.8125 60.68229Q398.8125 60.010414 398.40625 59.58854Q398.01562 59.15104 397.32812 59.15104Q396.53125 59.15104 396.07812 59.61979Q395.625 60.072914 395.625 60.90104L394.54688 60.90104Q394.54688 59.71354 395.29688 58.99479Q396.0625 58.260414 397.32812 58.260414Q398.53125 58.260414 399.21875 58.885414Q399.90625 59.510414 399.90625 60.55729Q399.90625 61.80729 398.29688 63.55729L396.01562 66.02604L400.29688 66.02604L400.29688 66.916664ZM407.07812 63.729164L404.21875 63.729164L404.21875 62.854164L407.07812 62.854164L407.07812 63.729164ZM412.4375 58.385414L415.23438 65.33854L418.01562 58.385414L419.48438 58.385414L419.48438 66.916664L418.35938 66.916664L418.35938 63.58854L418.46875 60.010414L415.65625 66.916664L414.79688 66.916664L412.0 60.02604L412.10938 63.58854L412.10938 66.916664L410.98438 66.916664L410.98438 58.385414L412.4375 58.385414ZM424.73438 66.916664Q424.64062 66.729164 424.57812 66.24479Q423.82812 67.041664 422.78125 67.041664Q421.84375 67.041664 421.23438 66.510414Q420.64062 65.979164 420.64062 65.15104Q420.64062 64.166664 421.39062 63.61979Q422.14062 63.072914 423.51562 63.072914L424.5625 63.072914L424.5625 62.572914Q424.5625 62.010414 424.21875 61.68229Q423.89062 61.33854 423.21875 61.33854Q422.64062 61.33854 422.25 61.635414Q421.85938 61.916664 421.85938 62.33854L420.76562 62.33854Q420.76562 61.854164 421.09375 61.416664Q421.4375 60.979164 422.01562 60.729164Q422.59375 60.46354 423.28125 60.46354Q424.39062 60.46354 425.0 61.010414Q425.625 61.55729 425.65625 62.510414L425.65625 65.43229Q425.65625 66.30729 425.875 66.822914L425.875 66.916664L424.73438 66.916664ZM422.9375 66.08854Q423.45312 66.08854 423.90625 65.822914Q424.35938 65.55729 424.5625 65.135414L424.5625 63.83854L423.71875 63.83854Q421.71875 63.83854 421.71875 65.010414Q421.71875 65.510414 422.0625 65.80729Q422.40625 66.08854 422.9375 66.08854ZM433.17188 63.822914Q433.17188 65.260414 432.51562 66.15104Q431.85938 67.041664 430.71875 67.041664Q429.5625 67.041664 428.90625 66.30729L428.90625 69.354164L427.82812 69.354164L427.82812 60.572914L428.8125 60.572914L428.85938 61.27604Q429.53125 60.46354 430.70312 60.46354Q431.84375 60.46354 432.5 61.322914Q433.17188 62.18229 433.17188 63.71354L433.17188 63.822914ZM432.09375 63.697914Q432.09375 62.61979 431.625 62.010414Q431.17188 61.385414 430.375 61.385414Q429.39062 61.385414 428.90625 62.24479L428.90625 65.27604Q429.39062 66.15104 430.39062 66.15104Q431.17188 66.15104 431.625 65.541664Q432.09375 64.916664 432.09375 63.697914Z" fill-rule="nonzero"/><path fill="#757575" d="M24.39375 31.20625Q21.971874 30.51875 20.878124 29.51875Q19.784374 28.503124 19.784374 27.01875Q19.784374 25.33125 21.128124 24.2375Q22.471874 23.128124 24.6125 23.128124Q26.08125 23.128124 27.221874 23.70625Q28.378124 24.26875 29.003124 25.26875Q29.628124 26.253124 29.628124 27.440624L27.753124 27.440624Q27.753124 26.159374 26.925 25.425Q26.1125 24.675 24.6125 24.675Q23.221874 24.675 22.440624 25.284374Q21.675 25.89375 21.675 26.9875Q21.675 27.846874 22.409374 28.45625Q23.14375 29.05 24.909374 29.55Q26.690624 30.05 27.690624 30.659374Q28.690624 31.253124 29.175 32.05Q29.659374 32.846874 29.659374 33.940624Q29.659374 35.659374 28.315624 36.70625Q26.971874 37.753124 24.70625 37.753124Q23.253124 37.753124 21.971874 37.190624Q20.70625 36.628124 20.01875 35.659374Q19.33125 34.675 19.33125 33.425L21.221874 33.425Q21.221874 34.721874 22.175 35.471874Q23.128124 36.20625 24.70625 36.20625Q26.190624 36.20625 26.9875 35.6125Q27.784374 35.003124 27.784374 33.95625Q27.784374 32.909374 27.05 32.346874Q26.315624 31.76875 24.39375 31.20625ZM34.3625 24.425L34.3625 26.9875L36.346874 26.9875L36.346874 28.378124L34.3625 28.378124L34.3625 34.925Q34.3625 35.565624 34.628124 35.89375Q34.89375 36.20625 35.534374 36.20625Q35.846874 36.20625 36.39375 36.08125L36.39375 37.55Q35.675 37.753124 35.003124 37.753124Q33.8 37.753124 33.175 37.01875Q32.565624 36.284374 32.565624 34.925L32.565624 28.378124L30.64375 28.378124L30.64375 26.9875L32.565624 26.9875L32.565624 24.425L34.3625 24.425ZM38.440624 32.175Q38.440624 30.6125 39.05 29.378124Q39.659374 28.128124 40.7375 27.45625Q41.83125 26.784374 43.2375 26.784374Q45.39375 26.784374 46.721874 28.284374Q48.065624 29.76875 48.065624 32.253124L48.065624 32.378124Q48.065624 33.925 47.471874 35.159374Q46.878124 36.378124 45.76875 37.065624Q44.675 37.753124 43.253124 37.753124Q41.1125 37.753124 39.76875 36.253124Q38.440624 34.753124 38.440624 32.3L38.440624 32.175ZM40.253124 32.378124Q40.253124 34.14375 41.065624 35.20625Q41.89375 36.26875 43.253124 36.26875Q44.628124 36.26875 45.440624 35.190624Q46.253124 34.1125 46.253124 32.175Q46.253124 30.425 45.425 29.346874Q44.596874 28.26875 43.2375 28.26875Q41.89375 28.26875 41.065624 29.33125Q40.253124 30.39375 40.253124 32.378124ZM55.01875 28.596874Q54.6125 28.534374 54.14375 28.534374Q52.3625 28.534374 51.721874 30.05L51.721874 37.55L49.925 37.55L49.925 26.9875L51.675 26.9875L51.70625 28.20625Q52.596874 26.784374 54.221874 26.784374Q54.753124 26.784374 55.01875 26.925L55.01875 28.596874ZM63.440624 37.55Q63.284374 37.2375 63.190624 36.440624Q61.925 37.753124 60.175 37.753124Q58.6125 37.753124 57.6125 36.8625Q56.6125 35.971874 56.6125 34.6125Q56.6125 32.971874 57.8625 32.065624Q59.128124 31.14375 61.39375 31.14375L63.159374 31.14375L63.159374 30.315624Q63.159374 29.3625 62.58125 28.8Q62.01875 28.2375 60.925 28.2375Q59.95625 28.2375 59.3 28.7375Q58.64375 29.221874 58.64375 29.909374L56.83125 29.909374Q56.83125 29.128124 57.39375 28.39375Q57.95625 27.64375 58.909374 27.221874Q59.878124 26.784374 61.034374 26.784374Q62.8625 26.784374 63.89375 27.70625Q64.925 28.6125 64.97188 30.221874L64.97188 35.08125Q64.97188 36.534374 65.33125 37.39375L65.33125 37.55L63.440624 37.55ZM60.440624 36.175Q61.3 36.175 62.05 35.7375Q62.815624 35.3 63.159374 34.596874L63.159374 32.425L61.7375 32.425Q58.425 32.425 58.425 34.3625Q58.425 35.221874 58.9875 35.70625Q59.55 36.175 60.440624 36.175ZM67.4875 32.175Q67.4875 29.70625 68.62813 28.253124Q69.76875 26.784374 71.65938 26.784374Q73.59688 26.784374 74.675 28.159374L74.76875 26.9875L76.40938 26.9875L76.40938 37.3Q76.40938 39.346874 75.19063 40.51875Q73.9875 41.70625 71.925 41.70625Q70.78438 41.70625 69.69063 41.221874Q68.59688 40.7375 68.01875 39.878124L68.95625 38.8Q70.12813 40.2375 71.8 40.2375Q73.12813 40.2375 73.8625 39.4875Q74.59688 38.753124 74.59688 37.409374L74.59688 36.4875Q73.51875 37.753124 71.64375 37.753124Q69.78438 37.753124 68.62813 36.253124Q67.4875 34.753124 67.4875 32.175ZM69.3 32.378124Q69.3 34.175 70.03438 35.190624Q70.76875 36.20625 72.08125 36.20625Q73.8 36.20625 74.59688 34.659374L74.59688 29.83125Q73.76875 28.315624 72.1125 28.315624Q70.78438 28.315624 70.03438 29.346874Q69.3 30.378124 69.3 32.378124ZM83.3 37.753124Q81.15938 37.753124 79.8 36.346874Q78.45625 34.925 78.45625 32.565624L78.45625 32.221874Q78.45625 30.659374 79.05 29.425Q79.65938 28.190624 80.7375 27.4875Q81.81563 26.784374 83.08125 26.784374Q85.14375 26.784374 86.28438 28.14375Q87.425 29.503124 87.425 32.034374L87.425 32.784374L80.26875 32.784374Q80.3 34.346874 81.175 35.315624Q82.05 36.26875 83.39375 36.26875Q84.3625 36.26875 85.01875 35.878124Q85.69063 35.4875 86.19063 34.846874L87.28438 35.70625Q85.95625 37.753124 83.3 37.753124ZM83.08125 28.26875Q81.9875 28.26875 81.2375 29.065624Q80.50313 29.8625 80.33125 31.3L85.6125 31.3L85.6125 31.159374Q85.53438 29.784374 84.8625 29.034374Q84.20625 28.26875 83.08125 28.26875ZM98.26875 33.065624L98.53438 34.940624L98.94063 33.253124L101.75313 23.33125L103.33125 23.33125L106.08125 33.253124L106.47188 34.971874L106.76875 33.05L108.9875 23.33125L110.8625 23.33125L107.425 37.55L105.70625 37.55L102.78438 27.190624L102.55 26.096874L102.33125 27.190624L99.3 37.55L97.58125 37.55L94.14375 23.33125L96.01875 23.33125L98.26875 33.065624ZM118.40938 31.8L115.08125 31.8L115.08125 37.55L113.19063 37.55L113.19063 23.33125L117.89375 23.33125Q120.3 23.33125 121.59688 24.425Q122.89375 25.51875 122.89375 27.6125Q122.89375 28.940624 122.175 29.925Q121.45625 30.909374 120.175 31.39375L123.51875 37.425L123.51875 37.55L121.50313 37.55L118.40938 31.8ZM115.08125 30.26875L117.95625 30.26875Q119.34688 30.26875 120.175 29.55Q121.00313 28.815624 121.00313 27.6125Q121.00313 26.284374 120.20625 25.58125Q119.425 24.878124 117.94063 24.878124L115.08125 24.878124L115.08125 30.26875ZM127.20625 37.55L125.33125 37.55L125.33125 23.33125L127.20625 23.33125L127.20625 37.55ZM140.01875 24.878124L135.45625 24.878124L135.45625 37.55L133.59688 37.55L133.59688 24.878124L129.03438 24.878124L129.03438 23.33125L140.01875 23.33125L140.01875 24.878124ZM150.2375 30.971874L144.08125 30.971874L144.08125 36.01875L151.2375 36.01875L151.2375 37.55L142.20625 37.55L142.20625 23.33125L151.14375 23.33125L151.14375 24.878124L144.08125 24.878124L144.08125 29.440624L150.2375 29.440624L150.2375 30.971874ZM162.15938 36.26875Q163.12813 36.26875 163.84688 35.690624Q164.56563 35.096874 164.64375 34.221874L166.3625 34.221874Q166.3 35.128124 165.72188 35.95625Q165.15938 36.76875 164.19063 37.26875Q163.2375 37.753124 162.15938 37.753124Q160.00313 37.753124 158.72188 36.315624Q157.45625 34.8625 157.45625 32.3625L157.45625 32.065624Q157.45625 30.51875 158.01875 29.315624Q158.58125 28.1125 159.64375 27.45625Q160.70625 26.784374 162.14375 26.784374Q163.925 26.784374 165.09688 27.846874Q166.28438 28.909374 166.3625 30.6125L164.64375 30.6125Q164.56563 29.596874 163.8625 28.940624Q163.175 28.26875 162.14375 28.26875Q160.76875 28.26875 160.00313 29.26875Q159.25313 30.253124 159.25313 32.128124L159.25313 32.471874Q159.25313 34.3 160.00313 35.284374Q160.75313 36.26875 162.15938 36.26875ZM167.44063 32.175Q167.44063 30.6125 168.05 29.378124Q168.65938 28.128124 169.7375 27.45625Q170.83125 26.784374 172.2375 26.784374Q174.39375 26.784374 175.72188 28.284374Q177.06563 29.76875 177.06563 32.253124L177.06563 32.378124Q177.06563 33.925 176.47188 35.159374Q175.87813 36.378124 174.76875 37.065624Q173.675 37.753124 172.25313 37.753124Q170.1125 37.753124 168.76875 36.253124Q167.44063 34.753124 167.44063 32.3L167.44063 32.175ZM169.25313 32.378124Q169.25313 34.14375 170.06563 35.20625Q170.89375 36.26875 172.25313 36.26875Q173.62813 36.26875 174.44063 35.190624Q175.25313 34.1125 175.25313 32.175Q175.25313 30.425 174.425 29.346874Q173.59688 28.26875 172.2375 28.26875Q170.89375 28.26875 170.06563 29.33125Q169.25313 30.39375 169.25313 32.378124ZM185.06563 34.753124Q185.06563 34.01875 184.51875 33.6125Q183.97188 33.20625 182.59688 32.909374Q181.22188 32.6125 180.40938 32.20625Q179.6125 31.8 179.22188 31.2375Q178.84688 30.659374 178.84688 29.878124Q178.84688 28.58125 179.94063 27.690624Q181.03438 26.784374 182.75313 26.784374Q184.55 26.784374 185.65938 27.721874Q186.78438 28.64375 186.78438 30.08125L184.95625 30.08125Q184.95625 29.346874 184.33125 28.815624Q183.70625 28.26875 182.75313 28.26875Q181.75313 28.26875 181.19063 28.70625Q180.64375 29.128124 180.64375 29.83125Q180.64375 30.471874 181.15938 30.815624Q181.675 31.14375 183.03438 31.45625Q184.39375 31.753124 185.22188 32.175Q186.06563 32.58125 186.47188 33.175Q186.87813 33.76875 186.87813 34.6125Q186.87813 36.034374 185.7375 36.89375Q184.6125 37.753124 182.8 37.753124Q181.53438 37.753124 180.55 37.3Q179.58125 36.846874 179.01875 36.05Q178.47188 35.2375 178.47188 34.3L180.28438 34.3Q180.33125 35.20625 181.00313 35.7375Q181.69063 36.26875 182.8 36.26875Q183.83125 36.26875 184.44063 35.8625Q185.06563 35.440624 185.06563 34.753124ZM191.3625 24.425L191.3625 26.9875L193.34688 26.9875L193.34688 28.378124L191.3625 28.378124L191.3625 34.925Q191.3625 35.565624 191.62813 35.89375Q191.89375 36.20625 192.53438 36.20625Q192.84688 36.20625 193.39375 36.08125L193.39375 37.55Q192.675 37.753124 192.00313 37.753124Q190.8 37.753124 190.175 37.01875Q189.56563 36.284374 189.56563 34.925L189.56563 28.378124L187.64375 28.378124L187.64375 26.9875L189.56563 26.9875L189.56563 24.425L191.3625 24.425Z" fill-rule="nonzero"/></svg>